<?xml version="1.0" encoding="utf-8"?>
<!-- Generator: Adobe Illustrator 25.3.1, SVG Export Plug-In . SVG Version: 6.00 Build 0)  -->
<svg version="1.1" id="Layer_1" xmlns="http://www.w3.org/2000/svg" xmlns:xlink="http://www.w3.org/1999/xlink" x="0px" y="0px"
	 viewBox="0 0 3413.7 716.3" style="enable-background:new 0 0 3413.7 716.3;" xml:space="preserve">
<style type="text/css">
	.st0{fill:none;}
</style>
<path class="st0" d="M1518.9,389.6c-2.4,0.6-4.9,1.2-7.3,2.1c-25.6,9.3-51.3,18.7-76.9,28.1c-33.2,12.1-67.2,21.5-102.3,26.1
	c-8.6,1.1-17.3,1.9-26,2.3v0.2c-1.8,0-3.4,0-5.1,0h-0.6c-6.1,0.2-12.2,0.3-18.3,0.3s-12.2-0.1-18.3-0.3h-0.6l-5.1-0.2
	c-8.7-0.4-17.3-1.1-25.9-2.3c-35.1-4.6-69.1-14-102.3-26.1c-25.6-9.3-51.3-18.7-76.9-28.1c-1.4-0.5-2.8-0.9-4.3-1.3
	c-1-0.3-2.1,0.3-2.3,1.3c-0.2,0.8,0.1,1.6,0.7,2l0.5,0.4c16,10.8,32.1,21.5,48,32.4c22,15,43.5,30.8,66.1,44.9
	c30,18.7,61.8,31.4,96,35.4v-0.8c4.4,0.6,8.8,1.3,13.2,1.6c3.8,0.3,7.5,0.4,11.2,0.4s7.5-0.2,11.2-0.4c4.4-0.3,8.7-0.9,13.2-1.6v0.8
	c34.2-3.9,66-16.7,96-35.4c22.6-14.1,44.1-29.9,66.1-44.9c16-10.9,32-21.6,48-32.4c1.2-0.7,2.3-1.7,3.1-2.8c0.3-0.5,0.1-1.2-0.4-1.5
	C1519.4,389.6,1519.1,389.5,1518.9,389.6z"/>
<path class="st0" d="M1052.4,343.7c2-0.3,4-0.8,6-1.5c29-9.8,57.9-19.8,87-29.4c44.7-14.7,90.4-22.6,137.2-22.1
	c46.8-0.4,92.5,7.5,137.2,22.1c29.1,9.6,58,19.6,87,29.4c2,0.7,4,1.2,6,1.5c1,0.2,2-0.5,2.1-1.6c0.1-0.7-0.2-1.4-0.8-1.8l0,0
	c-25.7-17.2-51.6-34.3-77.2-51.7c-28.5-19.3-57.8-37-90.8-47.5c-13.5-4.3-27.3-7.2-41.4-8.7v0.2c-7.1-0.8-14.2-1.2-21.4-1.3h-1.4
	c-7.1,0.1-14.3,0.5-21.4,1.3v-0.2c-14,1.5-27.9,4.4-41.4,8.7c-33.1,10.5-62.3,28.2-90.8,47.5c-25.7,17.4-51.5,34.5-77.2,51.7
	c-0.8,0.6-1,1.8-0.4,2.6C1051.2,343.4,1051.8,343.7,1052.4,343.7z"/>
<path class="st0" d="M1522.4,357.2L1522.4,357.2c-31.2-10.5-62.5-20.8-93.6-31.3c-36.7-12.4-74-21.8-112.8-24.5
	c-6.6-0.5-13.3-0.7-19.9-0.8h-13.5h-13.5c-6.7,0.1-13.3,0.3-19.9,0.8c-38.7,2.7-76.1,12.1-112.8,24.5
	c-31.2,10.6-62.4,20.9-93.6,31.3l0,0c-1.7,0.6-1.3,3.9,0.5,3.9c29,0,145.8,0,216.2,0.1h46.2c27.8-0.2,62.6-0.1,96.3,0.1h114.8
	c1.9,0,3.6-0.1,5-0.2C1523.6,361,1525.3,358.8,1522.4,357.2z"/>
<path class="st0" d="M1052.4,343.7c2-0.3,4-0.8,6-1.5c29-9.8,57.9-19.8,87-29.4c44.7-14.7,90.4-22.6,137.2-22.1
	c46.8-0.4,92.5,7.5,137.2,22.1c29.1,9.6,58,19.6,87,29.4c2,0.7,4,1.2,6,1.5c1,0.2,2-0.5,2.1-1.6c0.1-0.7-0.2-1.4-0.8-1.8l0,0
	c-25.7-17.2-51.6-34.3-77.2-51.7c-28.5-19.3-57.8-37-90.8-47.5c-13.5-4.3-27.3-7.2-41.4-8.7v0.2c-7.1-0.8-14.2-1.2-21.4-1.3h-1.4
	c-7.1,0.1-14.3,0.5-21.4,1.3v-0.2c-14,1.5-27.9,4.4-41.4,8.7c-33.1,10.5-62.3,28.2-90.8,47.5c-25.7,17.4-51.5,34.5-77.2,51.7
	c-0.8,0.6-1,1.8-0.4,2.6C1051.2,343.4,1051.8,343.7,1052.4,343.7z"/>
<path class="st0" d="M1522.4,357.2L1522.4,357.2c-31.2-10.5-62.5-20.8-93.6-31.3c-36.7-12.4-74-21.8-112.8-24.5
	c-6.6-0.5-13.3-0.7-19.9-0.8h-13.5h-13.5c-6.7,0.1-13.3,0.3-19.9,0.8c-38.7,2.7-76.1,12.1-112.8,24.5
	c-31.2,10.6-62.4,20.9-93.6,31.3l0,0c-1.7,0.6-1.3,3.9,0.5,3.9c29,0,145.8,0,216.2,0.1h46.2c27.8-0.2,62.6-0.1,96.3,0.1h114.8
	c1.9,0,3.6-0.1,5-0.2C1523.6,361,1525.3,358.8,1522.4,357.2z"/>
<path class="st0" d="M1522,373.7l-474,0c-2.1,0.1-2.4,2.8-0.5,3.7c6,3,10.1,4.8,15.4,7c34.4,14.3,69.8,25.9,105.2,37.4
	c29.3,9.5,59.7,15.3,90.5,17.1v-0.1c7.7,0.5,15.7,0.8,23.9,0.8s16.2-0.3,23.8-0.8v0.1c30.8-1.8,61.2-7.5,90.6-17.1
	c35.4-11.5,70.2-24.9,105.2-37.4c5.2-1.9,14.3-5.5,20.2-7.5c0.9-0.3,1.3-1.2,1-2.1C1523.2,374.2,1522.7,373.8,1522,373.7z"/>
<path d="M1660,374.1v-12.5l0,0c0-0.1-0.1-0.1-0.2-0.1c-4.5,0-18.3,0.2-22.4,0.2c-16.3-0.3-23.1,0.3-39.3-1.3
	c-28.4-2.8-54.2-13.7-78.2-28.6c-23.2-14.4-45.8-29.8-68.4-45.1c-28.7-19.5-57.7-38.4-90.5-50.5c-25.5-9.4-51.6-14.8-78.4-14.4
	c-26.8-0.4-52.9,5-78.4,14.4c-32.8,12.1-61.8,31-90.5,50.5c-22.6,15.4-45.2,30.8-68.4,45.1c-24,14.9-49.8,25.8-78.2,28.6
	c-16.2,1.6-32.6,0.9-48.9,1.1c-4.2,0.1-8.3,0-12.8,0c-0.1,0-0.1,0-0.2,0.1h-0.1v12.5h9.7c12.3,0.1,24.6,0.4,36.9,0H966
	c12.5,0.9,24.8,3.8,36.3,8.7c9.5,3.9,19.4,7.6,28,13c23.7,14.9,46.8,30.6,70.2,45.9s46.2,31.6,70.4,45.6
	c27.5,15.8,56.5,25.8,87.1,29v0.2h1.3h0.2c15.2,1.3,30.5,1.3,45.8,0h0.2h1.3v-0.2c30.6-3.2,59.7-13.2,87.1-29
	c24.2-13.9,47-30.2,70.4-45.6s46.5-31.1,70.2-45.9c8.7-5.4,18.5-9.1,28-13c11.6-4.8,23.8-7.7,36.3-8.7 M1051,340.2
	c25.7-17.2,51.5-34.3,77.2-51.7c28.5-19.3,57.8-37,90.8-47.5c13.5-4.3,27.3-7.2,41.4-8.7v0.2c7.1-0.8,14.2-1.2,21.4-1.3h1.4
	c7.1,0.1,14.3,0.5,21.4,1.3v-0.2c14,1.5,27.9,4.4,41.4,8.7c33.1,10.5,62.3,28.2,90.8,47.5c25.6,17.4,51.5,34.5,77.2,51.7l0,0
	c0.9,0.6,1.1,1.8,0.5,2.6c-0.4,0.6-1.1,0.9-1.8,0.8c-2-0.3-4-0.8-6-1.5c-29-9.8-57.9-19.8-87-29.4c-44.7-14.7-90.4-22.6-137.2-22.1
	c-46.8-0.4-92.5,7.5-137.2,22.1c-29.1,9.6-58,19.6-87,29.4c-2,0.7-4,1.2-6,1.5c-1,0-1.9-0.9-1.9-1.9c0-0.6,0.3-1.1,0.8-1.5
	L1051,340.2z M1520,391.2c-0.8,1.1-1.9,2.1-3.1,2.8c-16,10.8-32.1,21.5-48,32.4c-22,15-43.5,30.8-66.1,44.9
	c-30,18.7-61.8,31.4-96,35.4l0,0c-8.3,1-16.7,1.5-25.1,1.5c-14.3,0.1-28.6-1.4-42.6-4.6c-27.1-5.8-52.7-17.1-77.1-32.3
	c-22.6-14.1-44.1-29.9-66.1-44.9c-16-10.9-32-21.6-48-32.4l-0.5-0.4c-0.8-0.6-1-1.8-0.4-2.7c0.5-0.6,1.3-0.9,2-0.7
	c1.4,0.4,2.9,0.8,4.3,1.3c25.6,9.3,51.3,18.7,76.9,28.1c33.2,12.1,67.2,21.5,102.3,26.1c8.6,1.1,17.3,1.9,25.9,2.3l5.1,0.2h0.6
	c6.1,0.2,12.2,0.3,18.3,0.3s12.2-0.1,18.3-0.3h0.6c1.6,0,3.3,0,5.1,0v-0.2c8.7-0.4,17.3-1.1,26-2.3c35.1-4.6,69.1-14,102.3-26.1
	c25.6-9.3,51.3-18.7,76.9-28.1c2.4-0.9,4.8-1.5,7.3-2.1c0.6-0.1,1.2,0.2,1.3,0.8c0.1,0.3,0,0.6-0.1,0.8L1520,391.2z M1522.3,376.9
	c-5.8,2-15,5.6-20.2,7.5c-35.1,12.5-69.8,25.9-105.2,37.4c-29.3,9.5-59.7,15.3-90.5,17.1v-0.1c-7.7,0.5-15.7,0.8-23.8,0.8
	s-16.2-0.3-23.9-0.8v0.1c-30.8-1.8-61.2-7.5-90.5-17.1c-35.4-11.5-70.9-23.1-105.2-37.4c-5.3-2.2-9.4-4-15.4-7
	c-1.9-0.9-1.6-3.6,0.5-3.7l474,0c0.9,0,1.6,0.8,1.6,1.7c0,0.7-0.4,1.3-1.1,1.5L1522.3,376.9z M1521.7,361.1c-1.5,0.1-3.2,0.1-5,0.2
	H1402c-33.7-0.2-68.5-0.3-96.3-0.1h-46.2c-70.4-0.1-187.2-0.1-216.2-0.1c-1.8,0-2.2-3.3-0.5-3.9l0,0c31.2-10.5,62.5-20.8,93.6-31.3
	c36.7-12.4,74.1-21.8,112.8-24.5c6.6-0.5,13.3-0.7,19.9-0.8h13.5h13.5c6.7,0.1,13.3,0.3,19.9,0.8c38.7,2.7,76.1,12.1,112.8,24.5
	c31.2,10.6,62.4,20.9,93.6,31.3l0,0c2.9,1.6,1.3,3.8-0.6,3.9L1521.7,361.1z"/>
<path class="st0" d="M2243.1,374h-29.7v0.1c-13.1-0.9-13.8-1.8-20.2-4.1c-17.8-6.1-28.3-18.3-36.3-35c-5.3-11-7.9-22.9-10.1-34.8
	c-2.6-14-4.4-28.3-8.7-42c-3.2-10.5-7.7-20.3-14.9-28.8c-6.4-7.5-13.9-13.2-23.6-15.8c-11.4-3-21.9-0.4-31.7,5.6
	c-9.6,5.9-17,14-23.3,23.3c-8.5,12.5-14.2,26.4-19.6,40.5c-3.2,8.3-6.5,16.5-10,24.6c-7.5,17.1-18.8,31-34.3,41.2
	c-6.9,4.7-14,8.9-21.4,12.7h51.1c5.1-0.1,9.9,0,12.8,0.2c30.3,2.9,44.1,8.1,70,25.1c15.2,10.1,27.2,24.4,34.3,41.2
	c3.6,8.1,6.9,16.4,10.1,24.6c5.4,14,11.1,27.9,19.6,40.5c6.3,9.2,13.6,17.4,23.3,23.3c9.8,6,20.3,8.6,31.7,5.6
	c9.6-2.5,17.2-8.3,23.6-15.8c7.2-8.5,11.7-18.2,14.9-28.8c4.2-13.7,6.1-27.9,8.7-42c2.2-12,4.8-23.8,10.1-34.8s11.6-19.9,20.3-26.5
	h-46.5L2243.1,374z"/>
<path class="st0" d="M2243.1,374h-29.7v0.1c-13.1-0.9-13.8-1.8-20.2-4.1c-17.8-6.1-28.3-18.3-36.3-35c-5.3-11-7.9-22.9-10.1-34.8
	c-2.6-14-4.4-28.3-8.7-42c-3.2-10.5-7.7-20.3-14.9-28.8c-6.4-7.5-13.9-13.2-23.6-15.8c-11.4-3-21.9-0.4-31.7,5.6
	c-9.6,5.9-17,14-23.3,23.3c-8.5,12.5-14.2,26.4-19.6,40.5c-3.2,8.3-6.5,16.5-10,24.6c-7.5,17.1-18.8,31-34.3,41.2
	c-6.9,4.7-14,8.9-21.4,12.7h51.1c5.1-0.1,9.9,0,12.8,0.2c30.3,2.9,44.1,8.1,70,25.1c15.2,10.1,27.2,24.4,34.3,41.2
	c3.6,8.1,6.9,16.4,10.1,24.6c5.4,14,11.1,27.9,19.6,40.5c6.3,9.2,13.6,17.4,23.3,23.3c9.8,6,20.3,8.6,31.7,5.6
	c9.6-2.5,17.2-8.3,23.6-15.8c7.2-8.5,11.7-18.2,14.9-28.8c4.2-13.7,6.1-27.9,8.7-42c2.2-12,4.8-23.8,10.1-34.8s11.6-19.9,20.3-26.5
	h-46.5L2243.1,374z"/>
<path class="st0" d="M2243.1,374h-29.7v0.1c-13.1-0.9-13.8-1.8-20.2-4.1c-17.8-6.1-28.3-18.3-36.3-35c-5.3-11-7.9-22.9-10.1-34.8
	c-2.6-14-4.4-28.3-8.7-42c-3.2-10.5-7.7-20.3-14.9-28.8c-6.4-7.5-13.9-13.2-23.6-15.8c-11.4-3-21.9-0.4-31.7,5.6
	c-9.6,5.9-17,14-23.3,23.3c-8.5,12.5-14.2,26.4-19.6,40.5c-3.2,8.3-6.5,16.5-10,24.6c-7.5,17.1-18.8,31-34.3,41.2
	c-6.9,4.7-14,8.9-21.4,12.7h51.1c5.1-0.1,9.9,0,12.8,0.2c30.3,2.9,44.1,8.1,70,25.1c15.2,10.1,27.2,24.4,34.3,41.2
	c3.6,8.1,6.9,16.4,10.1,24.6c5.4,14,11.1,27.9,19.6,40.5c6.3,9.2,13.6,17.4,23.3,23.3c9.8,6,20.3,8.6,31.7,5.6
	c9.6-2.5,17.2-8.3,23.6-15.8c7.2-8.5,11.7-18.2,14.9-28.8c4.2-13.7,6.1-27.9,8.7-42c2.2-12,4.8-23.8,10.1-34.8s11.6-19.9,20.3-26.5
	h-46.5L2243.1,374z"/>
<path class="st0" d="M2243.1,374h-29.7v0.1c-13.1-0.9-13.8-1.8-20.2-4.1c-17.8-6.1-28.3-18.3-36.3-35c-5.3-11-7.9-22.9-10.1-34.8
	c-2.6-14-4.4-28.3-8.7-42c-3.2-10.5-7.7-20.3-14.9-28.8c-6.4-7.5-13.9-13.2-23.6-15.8c-11.4-3-21.9-0.4-31.7,5.6
	c-9.6,5.9-17,14-23.3,23.3c-8.5,12.5-14.2,26.4-19.6,40.5c-3.2,8.3-6.5,16.5-10,24.6c-7.5,17.1-18.8,31-34.3,41.2
	c-6.9,4.7-14,8.9-21.4,12.7h51.1c5.1-0.1,9.9,0,12.8,0.2c30.3,2.9,44.1,8.1,70,25.1c15.2,10.1,27.2,24.4,34.3,41.2
	c3.6,8.1,6.9,16.4,10.1,24.6c5.4,14,11.1,27.9,19.6,40.5c6.3,9.2,13.6,17.4,23.3,23.3c9.8,6,20.3,8.6,31.7,5.6
	c9.6-2.5,17.2-8.3,23.6-15.8c7.2-8.5,11.7-18.2,14.9-28.8c4.2-13.7,6.1-27.9,8.7-42c2.2-12,4.8-23.8,10.1-34.8s11.6-19.9,20.3-26.5
	h-46.5L2243.1,374z"/>
<path d="M2212.8,361.5v0.1c-11.1-0.6-14.7-2-21.7-5.5c0,0,0,0.1,0,0.1c-12.1-6.6-20.1-16.9-25.4-29.6c-4.1-9.8-6.3-20-8.2-30.3
	c-2.3-12.6-3.8-25.4-7.2-37.9c-4.3-15.9-11.4-30.2-23-41.9c-7.6-7.6-16.4-13-27.1-15c-15.2-2.9-28.7,1.3-41.1,9.9
	c-14.9,10.5-25.3,24.7-33.4,40.8c-6.9,13.8-12.1,28.3-17.8,42.6c-12.3,30.7-34.6,50.2-65.7,60.3l-0.3,0.1
	c-13.4,4.2-27.3,6.3-41.4,6.3h-36.2v0.1h-27.3v0.1h-86.4v12.5H1898c4.4,0.1,8.5,0,11.4-0.1h67.3h3.4l32.8,0.3c14,0,28,2.1,41.4,6.3
	l0.4,0.1c31.1,10,53.4,29.6,65.7,60.3c5.7,14.3,10.9,28.8,17.8,42.6c8.1,16.1,18.5,30.3,33.4,40.8c12.3,8.7,25.9,12.8,41.1,9.9
	c10.7-2,19.6-7.4,27.1-15c11.7-11.8,18.7-26.1,23-41.9c3.4-12.4,4.9-25.2,7.2-37.9c1.9-10.3,4.1-20.6,8.2-30.3
	c5.4-12.7,13.4-23,25.4-29.6c0,0,2.2-1.4,3.5-2.2c0.6-0.4,1.3-0.7,1.9-1c4-1.5,5.8-1.6,15.6-2.1h0.4h1.4h0.5l45.7,0.2v-0.1h106.2
	v-0.1h30.7v-12.5 M2289.6,374.4c-8.7,6.6-15.1,15.6-20.3,26.5s-7.9,22.9-10.1,34.8c-2.6,14.1-4.4,28.3-8.7,42
	c-3.2,10.5-7.7,20.3-14.9,28.8c-6.4,7.5-13.9,13.2-23.6,15.8c-11.4,3-21.9,0.3-31.7-5.6c-9.7-5.9-17-14-23.3-23.3
	c-8.5-12.5-14.2-26.4-19.6-40.5c-3.2-8.3-6.5-16.5-10.1-24.6c-7.1-16.8-19.1-31.2-34.4-41.3c-25.9-17.1-39.7-22.3-70-25.1
	c-2.9-0.3-7.6-0.3-12.8-0.2h-51.1c7.4-3.8,14.5-8.1,21.4-12.7c15.5-10.2,26.8-24.1,34.3-41.2c3.6-8.1,6.9-16.4,10-24.6
	c5.4-14,11.1-27.9,19.6-40.5c6.3-9.2,13.6-17.4,23.3-23.3c9.8-6,20.3-8.6,31.7-5.6c9.6,2.5,17.2,8.3,23.6,15.8
	c7.2,8.4,11.7,18.2,14.9,28.8c4.2,13.7,6.1,27.9,8.7,42c2.2,12,4.9,23.8,10.1,34.8c8,16.8,18.6,28.9,36.3,35
	c6.5,2.2,7.1,3.2,20.2,4.1V374"/>
<path class="st0" d="M496.5,334.3c-2.4-11.1-4.4-20.2-6.7-31.2l-17.2,20.2L496.5,334.3z"/>
<path class="st0" d="M497.8,221.3c4.2,18.9,5.5,37.8,1.6,57c-0.5,2.3-0.5,4.6,0,6.8c3.6,16.8,7.2,33.5,11.1,50.2
	c0.5,2.2,2.4,5.1,4.3,5.9c6.9,2.8,14.1,4.7,22.2,7.3c2.3-11.6,4.6-21.8,6.2-32.2c3.7-23.5,6.5-47.1,10.6-70.5
	c3.1-17.5,7.6-34.7,11.8-53.6c-25.2,3.1-47.1,13.2-68,25.2C497.7,218.8,497.7,220,497.8,221.3z"/>
<path class="st0" d="M472.6,237.1c-17.8,11.4-36.3,40.5-39.9,62.5l26,16.3c8.3-6.2,15.3-14,20.5-22.9c4.1-6.8,5.7-13.5,3-21.6
	C478.5,260.3,475.8,248.8,472.6,237.1z"/>
<path class="st0" d="M441,185.1c-30.7-0.5-59,18.7-70.9,48.2c-2.1,5.3-2.1,9.2,2.2,13.2c13.8,12.8,27.3,25.8,41.1,38.7
	c1.8,1.7,4.1,2.8,7,4.8c9.2-27.4,24.9-49.5,47.5-68.1c-3.2-8.7-6.9-16.6-9.1-24.8C456.1,187.5,449.9,185.2,441,185.1z"/>
<path class="st0" d="M427.9,333.6l18.5-9.1l-17.2-10.8C428.8,320.5,428.4,326,427.9,333.6z"/>
<path class="st0" d="M686.7,361.3c-2.1-41.3-9.1-80.5-29-116.8c-5.4,39.6-13.4,78.4-25.8,116.8H686.7z"/>
<path class="st0" d="M409.4,125.3c-18.6-12.1-38-11.7-57.4-2.2c-14,6.8-21.1,18.4-21.4,34.1c-0.5,26.5,11.7,48,27,70.9
	c8.5-18.9,19.2-33.1,35.5-42.8s33.6-13.8,53.6-14C436.6,152.5,426.2,136.3,409.4,125.3z"/>
<path class="st0" d="M638.2,171.2c-4.2-10.4-13.5-15.5-24.6-13.5s-17.8,9.6-24,20.2c20.6,2.9,37.7,10.4,53.7,24
	C643.5,189.9,642,180.3,638.2,171.2z"/>
<path class="st0" d="M579.9,358.1l36.3,3.7c0.9-1.2,1.7-2.5,2.3-3.9c14.2-41.9,22.8-85.5,25.6-129.7c0.2-2.7-0.5-6.3-2.2-8.2
	c-14.7-16.8-32.9-26.9-57.5-28.5C599.8,247.9,596.2,302.5,579.9,358.1z"/>
<path class="st0" d="M566.5,355.3c13.8-46.2,19-91.9,8.4-138.7c-12,44.1-13.9,89.9-24.9,135.3L566.5,355.3z"/>
<path class="st0" d="M355.5,346.3c-8.5-32.4-11.8-65-4.2-98c1.1-4.6-1-7.5-3.3-10.8c-9.6-13.1-17.8-27-23.7-42.3
	c-5.2-13.4-8.2-27.2-7.1-41.7c1.1-14.2,6.6-26.3,17.7-35.3c14.5-11.8,31.6-16.2,50-15.1s33.4,9.7,46.1,22.5
	c11.1,11.1,19.7,24,26.8,37.9c3.9,7.8,7.8,15,16.2,19.1c3.4,1.7,6.1,5,8.6,8.1c3.5,4.3,6.6,9,10.1,13.9
	c22.8-12.6,46.4-22.4,72.1-26.2c-0.2-2-0.1-3-0.4-3.9c-10-25.6-23.9-48.6-44.1-67.5C507,94.6,491.6,86,473.6,82.3
	c-22.7-4.7-46.1-5.2-69-1.4c-51.4,8.3-94.6,32.5-131.5,68.4c-37.3,36.2-64.5,79.3-85,126.8c-8.6,19.8-14.6,40.4-16.8,61.9
	c-0.7,7-2.3,14.3,1,21.7c61.6-0.7,123,1.6,184.5-7.8C356.2,349.4,355.9,347.8,355.5,346.3z"/>
<path class="st0" d="M561.9,368.5l-13.5-2.9c-7,17.4-13.7,33.8-20.1,50.3c-0.8,2.1-0.1,4.8-0.1,7.2l2.6,0.7
	C547,409,554.7,389.5,561.9,368.5z"/>
<path class="st0" d="M685.7,375.8h-59.5c-14.9,45-46.7,75.7-86.5,99.2c5,21.2,10.3,41.3,21.5,59.2c15.7,25,37.6,29.3,61.3,11.8
	c5.6-4.1,10.8-8.7,15.5-13.9c5.7-6.4,11-13.2,15.8-20.4c26.5-40.2,34.1-85.3,33.4-132.4C687.1,378.1,686.2,377,685.7,375.8z"/>
<path class="st0" d="M610.1,374.9l-33.7-3.4c-6.1,13.3-11.5,26.1-17.8,38.3c-6.3,12.3-15.6,22.8-27,30.5c1.6,7.2,3,13.2,4.4,19.3
	C564.1,450.6,608.6,399.9,610.1,374.9z"/>
<path class="st0" d="M426.5,432c13.7,8.6,28.6,12.7,45.1,9.8c-31.9-21.3-47.4-52.6-55.5-88.8L375,363.4c4.9,9.9,8.9,18.9,13.8,27.4
	C398.2,407.2,410.1,421.8,426.5,432z"/>
<path class="st0" d="M514.8,356c2.6,12.9,4.8,24.3,7.1,35.7c6.2-9.1,9.2-19,11.5-29.9L514.8,356z"/>
<path class="st0" d="M414,339.4c0.8-12.1,1.4-22.9,2.1-34.3c-9.1-7.6-18.1-14.8-26.7-22.4s-16.9-15.9-25.8-24.3
	c-6.4,25.7-1.5,75.4,9,91.6L414,339.4z"/>
<path class="st0" d="M489.4,453c-2.6,0.6-5.1,1.4-7.7,1.9c-30.7,5.9-56.7-3.6-79-24.5c-13.4-12.5-23.6-27.4-31.8-43.9
	c-3.3-6.8-6.3-13.7-9.6-20.9c-3.2,0.2-6.1,0.3-9,0.6c-18.4,1.7-36.7,4.4-55.2,5c-38,1.2-75.9,1.4-113.9,2c-3.4,0.1-6.9,0.4-10.8,0.6
	c1.9,13.2,6.5,25.8,13.3,37.2c13,21.9,31.8,37.8,53.7,50.1c38.1,21.5,80.2,34.8,123.7,39.1c52.7,5.4,103.2-4.2,151.1-27.1
	c3.2-1.5,6.2-3.4,9.5-5.1c-1.6-7.2-3.1-13.6-5-22L489.4,453z"/>
<path class="st0" d="M507.5,423c3-3.6,5.5-7.2,4.4-12.5c-3.9-18.4-7.4-36.9-11.3-55.3c-0.5-2.2-2.2-5.1-4.1-6
	c-12.1-5.9-24.5-11.3-36.4-16.7l-30.5,15.8c4.7,28.1,15.8,52.2,36.4,71.4c3.8,3.6,8.2,6.7,12.9,9.2C496.3,437.7,496,436.6,507.5,423
	z"/>
<path d="M770.1,361.9c-22.4,0-44.8,0.2-67.3-0.1c-1.1,0-2-0.8-2.1-1.9c-0.3-2.2-0.5-3.7-0.7-5.2c-2-16-3.3-32.2-6.2-48.1
	c-5.3-28.8-14.2-56.4-30.6-81c-3.5-5.1-5.4-11.2-5.4-17.4c-0.3-13.1-1.5-26.2-5.8-38.7c-5.4-15.9-20.6-26.6-37.3-25.5
	c-11.2,0.8-20.5,6.6-28.6,15.5c-2.1,2.3-4,4.8-6.3,7.6c-0.7,0.9-2.1,1.1-3,0.3c-0.3-0.2-0.5-0.5-0.6-0.8c-1.2-2.5-2.2-4.6-3.1-6.8
	c-9.4-21-21.5-40.2-37.5-56.8C519,86,499.8,73.9,476.2,69.1c-23.4-4.8-47.4-5.4-70.9-1.9c-48.8,7.2-91.1,28.3-128.3,60.3
	s-65,71-87.6,114.1c-16.1,30.6-28.4,62.5-31.7,97.4c-0.6,5.9-0.8,11.9-1.1,18.8c-0.1,1.1-1,2-2.2,2c-3.2,0-6.1,0-9,0l-86.8,0.5v13.5
	l88.1-0.5c3.3,0,6.6,0,9.7,0c1,0,1.8,0.6,2.1,1.6c0.5,1.6,0.8,2.6,1,3.6c7.3,36,27.7,63,57.1,83.9c22,15.6,46.5,26.1,72,34.9
	c61.8,21.2,124.1,24.4,186.9,5.2c16.6-5.1,32.7-11.9,49.9-18.4c1.1-0.4,2.4,0.1,2.8,1.3c0,0,0,0.1,0,0.1c0.7,2.1,1.3,4.2,2,6.3
	c3.4,10.4,6.4,20.9,10.4,31c4.9,12.3,11.5,23.8,21.3,33.1c14.8,14.1,31.9,17.8,51.2,10.7c10.7-3.9,19.9-10.4,28.1-18.2
	c19.8-18.8,33.3-41.7,43.4-66.8c11.3-28.3,15.7-57.9,16.1-88.2c0.1-5.2,0.3-10.4,0.5-16.3c0-1.2,1-2.1,2.2-2.1H815v-13.2
	C799.9,361.9,785,361.9,770.1,361.9z M657.7,244.5c19.9,36.3,26.9,75.5,29,116.8h-54.8C644.3,322.9,652.3,284.1,657.7,244.5z
	 M613.7,157.7c11.1-2.1,20.3,3.1,24.6,13.5c3.7,9.1,5.2,18.7,5.1,30.7c-15.9-13.5-33.1-21.1-53.7-24
	C595.8,167.3,602.5,159.8,613.7,157.7z M641.9,220c1.7,1.9,2.4,5.5,2.2,8.2c-2.8,44.2-11.4,87.8-25.6,129.7
	c-0.7,1.3-1.5,2.6-2.3,3.9l-36.3-3.7c16.2-55.6,19.9-110.2,4.5-166.6C609,193.1,627.3,203.2,641.9,220z M574.9,216.6
	c10.5,46.8,5.4,92.4-8.4,138.7l-16.5-3.4C561,306.5,563,260.7,574.9,216.6L574.9,216.6z M553.9,245.9c-4.1,23.4-6.9,47-10.6,70.5
	c-1.6,10.4-4,20.6-6.2,32.2c-8.1-2.6-15.3-4.6-22.2-7.3c-2-0.8-3.8-3.7-4.3-5.9c-3.9-16.7-7.6-33.5-11.1-50.2
	c-0.5-2.3-0.5-4.6,0-6.8c3.9-19.1,2.6-38.1-1.6-57c-0.1-1.3-0.1-2.6,0-3.8c20.9-12,42.8-22,68-25.2
	C561.6,211.2,557.1,228.4,553.9,245.9L553.9,245.9z M479.2,293c-5.3,8.9-12.3,16.7-20.6,22.9l-26-16.3c3.6-22,22.1-51.1,39.9-62.5
	c3.2,11.7,5.9,23.2,9.6,34.3C485,279.5,483.3,286.2,479.2,293z M489.7,303.1c2.4,10.9,4.3,20,6.7,31.2l-24-11L489.7,303.1z
	 M446.4,324.4l-18.5,9.1c0.5-7.6,0.9-13,1.3-20L446.4,324.4z M420.3,289.9c-2.9-1.9-5.2-3.1-7-4.8c-13.7-12.9-27.3-25.9-41.1-38.7
	c-4.3-4-4.4-7.9-2.2-13.2c12-29.4,40.3-48.6,71-48.2c8.9,0.1,15.1,2.4,17.7,12c2.2,8.2,5.8,16.1,9.1,24.8
	C445.2,240.4,429.5,262.5,420.3,289.9z M393.1,185.3c-16.3,9.6-27,23.9-35.5,42.8c-15.2-22.9-27.5-44.4-27-70.9
	c0.3-15.7,7.4-27.3,21.4-34.1c19.4-9.4,38.8-9.8,57.4,2.2c16.8,10.9,27.3,27.2,37.3,45.9C426.7,171.4,409.2,175.7,393.1,185.3z
	 M363.6,258.3c8.9,8.4,17.1,16.6,25.8,24.3s17.6,14.8,26.7,22.4c-0.7,11.5-1.4,22.2-2.1,34.3l-41.4,10.5
	C362.2,333.7,357.2,284,363.6,258.3L363.6,258.3z M416.1,352.9c8.1,36.2,23.6,67.5,55.5,88.8c-16.6,3-31.4-1.2-45.1-9.8
	c-16.4-10.2-28.2-24.7-37.8-41.1c-4.9-8.5-8.8-17.5-13.8-27.4L416.1,352.9z M466,419.6c-20.6-19.2-31.7-43.3-36.4-71.4l30.5-15.8
	c11.9,5.4,24.3,10.8,36.4,16.7c1.9,0.9,3.6,3.8,4.1,6c3.9,18.4,7.4,36.9,11.3,55.3c1.1,5.3-1.3,9-4.4,12.5
	c-11.5,13.6-11.2,14.7-28.7,5.8C474.2,426.3,469.8,423.2,466,419.6z M171.2,338c2.2-21.5,8.3-42.1,16.8-61.9
	c20.5-47.5,47.8-90.6,85-126.8c37-35.9,80.2-60,131.5-68.4c22.9-3.8,46.3-3.3,69,1.4c18,3.7,33.4,12.3,46.7,24.7
	c20.2,18.9,34.1,41.9,44.1,67.5c0.3,0.9,0.2,1.9,0.4,3.9c-25.7,3.8-49.3,13.6-72.1,26.2c-3.5-4.9-6.6-9.6-10.1-13.9
	c-2.5-3-5.3-6.4-8.6-8.1c-8.4-4.1-12.3-11.4-16.2-19.1c-7-13.9-15.7-26.8-26.8-37.9c-12.8-12.8-27.7-21.4-46.1-22.5
	s-35.5,3.3-50,15.1c-11.1,9-16.5,21.2-17.7,35.3c-1.1,14.5,1.9,28.3,7.1,41.7c5.9,15.2,14.1,29.1,23.7,42.3
	c2.4,3.2,4.4,6.2,3.3,10.8c-7.6,33-4.3,65.7,4.2,98c0.4,1.5,0.7,3.1,1.3,5.7c-61.5,9.3-123,7-184.5,7.8
	C169,352.3,170.5,345,171.2,338z M514.4,473.1c-47.9,23-98.4,32.5-151.1,27.1c-43.5-4.3-85.7-17.7-123.8-39.1
	c-21.9-12.3-40.7-28.2-53.7-50.1c-6.9-11.4-11.4-24-13.3-37.2c3.9-0.2,7.3-0.5,10.8-0.6c38-0.6,76-0.7,113.9-2
	c18.4-0.6,36.8-3.3,55.2-5c2.9-0.3,5.8-0.4,9-0.6c3.3,7.2,6.3,14.1,9.6,20.9c8.1,16.4,18.3,31.4,31.7,43.9
	c22.3,20.9,48.3,30.4,79,24.5c2.6-0.5,5.1-1.3,7.7-1.9l29.5-7c1.9,8.4,3.4,14.8,5,22C520.6,469.8,517.6,471.6,514.4,473.1z
	 M521.9,391.7c-2.3-11.4-4.5-22.8-7.1-35.7l18.6,5.8C531.1,372.8,528.1,382.5,521.9,391.7L521.9,391.7z M528.1,423.1
	c0-2.4-0.7-5.1,0.1-7.2c6.4-16.5,13.1-32.9,20.1-50.3l13.5,2.9c-7.2,20.9-14.9,40.4-31.2,55.2L528.1,423.1z M531.6,440.2
	c11.4-7.7,20.7-18.2,27-30.5c6.4-12.2,11.7-25,17.8-38.3l33.7,3.4c-1.5,25-46,75.8-74.1,84.7C534.6,453.5,533.2,447.4,531.6,440.2
	L531.6,440.2z M653.7,511.7c-4.7,7.2-10,14-15.7,20.4c-4.7,5.1-9.8,9.8-15.5,13.9c-23.7,17.5-45.5,13.2-61.3-11.8
	c-11.2-17.9-16.5-38-21.5-59.2c39.7-23.5,71.5-54.2,86.5-99.2h59.5c0.5,1.2,1.3,2.4,1.4,3.5C687.9,426.4,680.2,471.5,653.7,511.7
	L653.7,511.7z"/>
<path class="st0" d="M3167.1,368c0.2-0.2,0.3-0.5,0.1-0.7c0,0-0.1-0.1-0.1-0.1V368z"/>
<path d="M3175.9,363.8l-25.4-21.5c-1.1-1-2.7-1.3-4.2-0.9c-1.4,0.4-2.5,1.6-2.8,3.1c-0.3,1.5,0.3,2.9,1.4,3.9l15.3,12.9h-561.4v12.5
	h561.5l-15.4,13c-1.6,1.4-1.8,3.9-0.4,5.6c0,0,0.1,0.1,0.1,0.1c1.5,1.6,4.1,1.8,5.9,0.4l25.4-21.5c2.1-1.7,2.4-4.8,0.7-6.9
	C3176.4,364.2,3176.1,363.9,3175.9,363.8L3175.9,363.8z M3167.1,368v-0.8C3167.4,367.3,3167.4,367.7,3167.1,368
	C3167.2,367.9,3167.2,367.9,3167.1,368z"/>
<path d="M859.9,345.6L859.9,345.6c12,0,21.7,9.7,21.7,21.7v0.9c0,12-9.7,21.7-21.7,21.7l0,0c-12,0-21.7-9.7-21.7-21.7v-0.9
	C838.3,355.3,848,345.6,859.9,345.6z"/>
<path d="M1705.4,345.6L1705.4,345.6c12,0,21.7,9.7,21.7,21.7v0.9c0,12-9.7,21.7-21.7,21.7h0c-12,0-21.7-9.7-21.7-21.7v-0.9
	C1683.7,355.3,1693.4,345.6,1705.4,345.6z"/>
<path d="M2554.8,345.6L2554.8,345.6c12,0,21.7,9.7,21.7,21.7v0.9c0,12-9.7,21.7-21.7,21.7l0,0c-12,0-21.7-9.7-21.7-21.7v-0.9
	C2533.1,355.3,2542.8,345.6,2554.8,345.6z"/>
<path d="M3222.3,345.6L3222.3,345.6c12,0,21.7,9.7,21.7,21.7v0.9c0,12-9.7,21.7-21.7,21.7l0,0c-12,0-21.7-9.7-21.7-21.7v-0.9
	C3200.6,355.3,3210.4,345.6,3222.3,345.6z"/>
<path d="M716.5,558.7v-53.7h16.8c5.3-0.1,10.5,1.2,15,4c4.2,2.7,6.3,7.1,6.2,13.2s-2.3,10.7-6.8,13.5c-4.5,2.9-9.8,4.4-15.2,4.3
	h-5.9v18.7L716.5,558.7z M733,513.5h-6.3v18h6.5c2.6,0.1,5.2-0.6,7.4-2.1c1.9-1.4,3-3.6,3.2-6.6c0-3.5-0.9-5.9-2.8-7.3
	C739,514.1,736.3,513.5,733,513.5z"/>
<path d="M783.7,520.3l2,8.2c-2.1,0.1-4.1,0.6-6,1.5c-2.5,1.1-4.8,2.6-6.8,4.4v24.2h-10.3v-38.3h5.4l3.4,5.6c1.8-1.5,3.7-2.8,5.8-3.8
	C779.2,521,781.5,520.4,783.7,520.3z"/>
<path d="M808.7,559.6c-6.1-0.1-10.8-1.9-14.2-5.5s-5.1-8.5-5.1-14.7c0-6.1,1.8-11,5.3-14.6s8.4-5.5,14.6-5.5
	c6.4,0,11.3,1.9,14.8,5.7c3.5,3.8,5.3,8.7,5.3,14.8c0,6.1-1.9,10.9-5.7,14.5C819.9,557.8,814.9,559.6,808.7,559.6z M818.8,539.8
	c0-3.6-0.8-6.5-2.4-8.6c-1.6-2.1-4.2-3.3-6.8-3.1c-2.6-0.1-5.2,0.9-7,2.8c-1.7,1.9-2.6,4.7-2.6,8.5c0,3.8,0.7,6.7,2.2,8.6
	c1.4,2,3.7,2.9,6.7,2.9c2.7,0.1,5.2-0.8,7.2-2.7C817.9,546.4,818.8,543.6,818.8,539.8L818.8,539.8z"/>
<path d="M848.4,502.9v18.7c1.5-0.9,3.2-1.5,4.9-2c1.5-0.4,3.1-0.7,4.6-0.7c5.6,0,10,2,13,5.8s4.5,8.7,4.5,14.5
	c0,5.8-1.5,10.7-4.6,14.5s-7.4,5.8-12.8,5.8c-2,0-4.1-0.4-6-1.1c-2.1-0.7-4.1-1.7-5.9-3.1l-2.5,3.2h-5.2v-54.9L848.4,502.9z
	 M855.2,550.9c3.5,0,6-1.3,7.4-3.8c1.4-2.4,2.1-5.1,2.1-7.8c0-2.8-0.6-5.6-1.9-8.1c-1.3-2.4-3.8-3.6-7.7-3.6c-1.2,0-2.3,0.2-3.4,0.6
	c-1.2,0.4-2.3,0.9-3.4,1.6v18.8c1.1,0.6,2.2,1.2,3.4,1.6C852.9,550.6,854,550.8,855.2,550.9L855.2,550.9z"/>
<path d="M894.3,502.9v55.8h-10.2v-54.9L894.3,502.9z"/>
<path d="M924.4,559.6c-6.7,0-11.9-1.8-15.7-5.5s-5.7-8.5-5.7-14.6c0-6.1,1.7-11,5.2-14.7c3.5-3.7,8.2-5.5,14.1-5.5
	c6,0,10.4,2,13.2,6c2.9,4.1,4.3,9.1,4.2,14.1v3.2h-25.8c0.4,2.4,1.6,4.5,3.5,6c2.1,1.6,4.7,2.4,7.3,2.2c1.6,0,3.2-0.2,4.7-0.7
	c1.7-0.6,3.3-1.2,4.9-1.9l3,7.4c-1.9,1.4-4.2,2.5-6.5,3C928.7,559.2,926.6,559.6,924.4,559.6z M930,535.6c-0.3-2.2-1.3-4.2-2.8-5.7
	c-1.4-1.2-3.3-1.9-5.1-1.8c-1.9-0.1-3.8,0.6-5.3,1.9c-1.5,1.5-2.5,3.5-2.8,5.7H930z"/>
<path d="M980.6,524.8c1.8-2,4-3.5,6.5-4.4c2.3-1,4.8-1.5,7.3-1.6c5.2,0,8.9,1.5,11.1,4.6c2.3,3.3,3.4,7.2,3.3,11.2v24h-10.4v-23.5
	c0.1-2-0.5-4-1.7-5.6c-1.3-1.4-3.2-2.1-5.1-1.9c-1.6,0-3.2,0.4-4.7,1.2c-1.6,0.7-3,1.6-4.4,2.7l0.2,1.6c0.1,0.5,0.1,1.1,0.1,1.6v24
	h-10.4v-23.5c0.1-2-0.5-4-1.7-5.6c-1.3-1.4-3.1-2.1-5-1.9c-1.4,0-2.7,0.3-4,0.8c-1.4,0.6-2.6,1.3-3.8,2.1v28.1h-10.2v-38.3h5.4
	l2.5,3.5c1.8-1.6,4-2.9,6.3-3.7c2.1-0.8,4.3-1.2,6.6-1.3c2.6-0.1,5.2,0.5,7.5,1.6C977.9,521.5,979.5,523,980.6,524.8z"/>
<path d="M761,624.6h-15.2v22.8h-10.2v-53.8H766l1.6,8.1h-21.8v14.9h13.7L761,624.6z"/>
<path d="M778.5,592c1.6,0,3,0.6,4.2,1.7c2.3,2.3,2.3,5.9,0,8.2c-1.1,1.1-2.6,1.7-4.2,1.7c-1.5,0-3-0.6-4-1.7
	c-2.3-2.2-2.3-5.9-0.1-8.2C775.5,592.6,777,592,778.5,592L778.5,592z M783.7,609v38.3h-10.3V609H783.7z"/>
<path d="M802.1,613.1c1.9-1.8,4.1-3.2,6.5-4.1c2.2-0.9,4.6-1.4,7-1.5c5.2,0,8.9,1.5,11.1,4.6c2.3,3.3,3.4,7.2,3.3,11.2v24h-10.3
	v-23.5c0.1-2-0.5-4-1.7-5.6c-1.3-1.4-3.2-2.1-5.1-1.9c-1.6,0-3.2,0.4-4.6,1.2c-1.5,0.7-3,1.6-4.4,2.7v27.3h-10.3V609h5.4
	L802.1,613.1z"/>
<path d="M876,591.5v55.8h-5.4l-2.8-3.7c-1.8,1.5-3.9,2.7-6.1,3.4c-2,0.8-4.2,1.2-6.4,1.2c-5.6,0-9.9-1.9-12.9-5.8
	c-3-3.9-4.5-8.8-4.5-14.5c0-5.8,1.6-10.6,4.8-14.5c3.2-3.9,7.5-5.8,13.1-5.8c1.6,0,3.3,0.3,4.8,0.8c1.8,0.5,3.5,1.2,5.1,2.1v-17.9
	L876,591.5z M858,616.3c-3.6,0-6.1,1.3-7.5,3.8c-1.4,2.4-2.1,5.1-2.1,7.8c-0.1,2.8,0.6,5.6,1.9,8.1c1.3,2.4,3.8,3.6,7.7,3.6
	c1.3,0,2.6-0.3,3.8-0.8c1.3-0.5,2.6-1.2,3.8-1.9V619c-1.2-0.8-2.4-1.5-3.8-2C860.6,616.6,859.3,616.3,858,616.3L858,616.3z"/>
<path d="M891.4,592c1.6,0,3,0.6,4.2,1.7c2.3,2.3,2.3,5.9,0,8.2c-1.1,1.1-2.6,1.7-4.2,1.7c-1.5,0-3-0.6-4-1.7c-2.2-2.3-2.2-5.9,0-8.2
	C888.4,592.6,889.9,592,891.4,592z M896.5,609v38.3h-10.3V609H896.5z"/>
<path d="M915,613.1c1.9-1.8,4.1-3.2,6.5-4.1c2.2-0.9,4.6-1.4,7-1.5c5.2,0,8.9,1.5,11.1,4.6c2.3,3.3,3.4,7.2,3.3,11.2v24h-10.3v-23.5
	c0.1-2-0.5-4-1.7-5.6c-1.3-1.4-3.2-2.1-5.1-1.9c-1.6,0-3.2,0.4-4.6,1.2c-1.6,0.7-3,1.6-4.4,2.7v27.3h-10.3V609h5.4L915,613.1z"/>
<path d="M988.9,609v38.3c0.1,4.4-1.6,8.6-4.7,11.7c-3.1,3.1-8.1,4.7-14.9,4.7c-2.4-0.1-4.8-0.5-7.1-1.1c-2.7-0.6-5.4-1.7-7.8-3.2
	l3.1-7.3c2,1,4,1.8,6.1,2.5c1.8,0.5,3.6,0.8,5.5,0.9c3.1,0,5.4-0.8,7-2.2c1.7-1.5,2.6-3.7,2.5-6v-2c-1.6,1-3.4,1.7-5.2,2.3
	c-1.7,0.5-3.4,0.8-5.1,0.8c-5.6,0-9.9-2-12.9-5.8s-4.5-8.7-4.5-14.5c0-5.8,1.6-10.6,4.8-14.5c3.2-3.9,7.5-5.8,13.1-5.8
	c2.2,0.1,4.4,0.5,6.4,1.2c2.2,0.7,4.3,1.9,6.1,3.4l2.4-3.2L988.9,609z M970.9,616.3c-3.6,0-6.1,1.3-7.5,3.8
	c-1.4,2.4-2.1,5.1-2.1,7.8c-0.1,2.8,0.6,5.6,1.9,8.1c1.3,2.4,3.8,3.6,7.7,3.6c1.3,0,2.6-0.3,3.8-0.8c1.3-0.5,2.6-1.2,3.8-1.9V619
	c-1.2-0.8-2.4-1.5-3.8-2C973.5,616.6,972.2,616.3,970.9,616.3L970.9,616.3z"/>
<path d="M1563.4,558.7v-53.7h16.8c5.3-0.1,10.5,1.2,15,4c4.2,2.7,6.2,7.1,6.2,13.2c0,6.2-2.3,10.7-6.8,13.5
	c-4.5,2.9-9.8,4.4-15.2,4.3h-5.9v18.7L1563.4,558.7z M1579.9,513.4h-6.3v18h6.5c2.6,0.1,5.2-0.6,7.4-2.1c1.9-1.4,3-3.6,3.2-6.6
	c0-3.5-0.9-5.9-2.8-7.3S1583.3,513.4,1579.9,513.4L1579.9,513.4z"/>
<path d="M1630.7,520.3l2.1,8.2c-2.1,0.1-4.1,0.6-6,1.5c-2.5,1.1-4.8,2.6-6.8,4.4v24.2h-10.3v-38.3h5.3l3.4,5.6
	c1.8-1.5,3.7-2.8,5.8-3.8C1626.2,521,1628.4,520.4,1630.7,520.3z"/>
<path d="M1655.6,559.6c-6.1-0.1-10.8-1.9-14.2-5.5c-3.4-3.6-5.1-8.5-5.1-14.7c0-6.1,1.8-11,5.3-14.6c3.6-3.6,8.4-5.5,14.6-5.5
	c6.4,0,11.3,1.9,14.8,5.7c3.5,3.8,5.3,8.7,5.2,14.8c0,6.1-1.9,10.9-5.7,14.5C1666.9,557.8,1661.9,559.6,1655.6,559.6z M1665.8,539.8
	c0-3.6-0.8-6.5-2.4-8.6c-1.6-2.1-4.2-3.3-6.8-3.1c-2.6-0.1-5.2,0.9-7,2.8c-1.7,1.8-2.5,4.7-2.5,8.5c0,3.8,0.7,6.7,2.2,8.6
	c1.5,2,3.7,2.9,6.7,2.9c2.7,0.1,5.2-0.8,7.2-2.7C1664.8,546.4,1665.8,543.6,1665.8,539.8L1665.8,539.8z"/>
<path d="M1695.3,502.9v18.7c1.5-0.9,3.2-1.5,4.9-2c1.5-0.4,3.1-0.7,4.6-0.7c5.6,0,10,2,13,5.8c3,3.9,4.5,8.7,4.5,14.5
	c0,5.8-1.5,10.7-4.6,14.5s-7.4,5.8-12.8,5.8c-2,0-4.1-0.4-6-1.1c-2.1-0.7-4.1-1.7-5.9-3.1l-2.5,3.2h-5.2v-54.9L1695.3,502.9z
	 M1702.1,550.9c3.5,0,6-1.3,7.4-3.8c1.4-2.4,2.1-5.1,2.1-7.8c0-2.8-0.6-5.6-1.9-8.1c-1.3-2.4-3.8-3.6-7.7-3.6
	c-1.2,0-2.3,0.2-3.4,0.6c-1.2,0.4-2.3,0.9-3.4,1.6v18.8c1.1,0.6,2.2,1.2,3.4,1.6C1699.8,550.6,1700.9,550.8,1702.1,550.9
	L1702.1,550.9z"/>
<path d="M1741.2,502.9v55.8h-10.2v-54.9L1741.2,502.9z"/>
<path d="M1771.4,559.6c-6.7,0-11.9-1.8-15.7-5.5c-3.8-3.6-5.7-8.5-5.7-14.6c0-6.1,1.7-11,5.2-14.7c3.4-3.7,8.1-5.5,14.1-5.5
	c6,0,10.4,2,13.2,6c2.9,4.1,4.3,9.1,4.2,14.1v3.2h-25.8c0.4,2.4,1.6,4.5,3.5,6c2.1,1.6,4.7,2.4,7.3,2.2c1.6,0,3.2-0.2,4.7-0.7
	c1.7-0.5,3.3-1.2,4.9-1.9l3,7.4c-1.9,1.4-4.2,2.5-6.5,3C1775.6,559.3,1773.5,559.6,1771.4,559.6z M1777,535.6
	c-0.3-2.2-1.3-4.2-2.8-5.7c-1.4-1.2-3.3-1.9-5.1-1.8c-1.9-0.1-3.8,0.6-5.3,1.9c-1.5,1.5-2.5,3.5-2.8,5.7H1777z"/>
<path d="M1827.6,524.8c1.8-2,4-3.5,6.5-4.4c2.3-1,4.8-1.5,7.3-1.6c5.2,0,8.9,1.5,11.1,4.6c2.3,3.3,3.4,7.2,3.3,11.2v24h-10.3v-23.5
	c0.1-2-0.5-4-1.7-5.6c-1.3-1.4-3.2-2.1-5.1-1.9c-1.6,0-3.2,0.4-4.7,1.2c-1.6,0.7-3,1.6-4.4,2.7c0,0.5,0.1,1,0.2,1.6s0.1,1,0.1,1.6
	v24h-10.4v-23.5c0.1-2-0.5-4-1.7-5.6c-1.3-1.4-3.1-2.1-5-1.9c-1.4,0-2.7,0.3-4,0.8c-1.3,0.6-2.6,1.3-3.8,2.1v28.1h-10.3v-38.3h5.4
	l2.5,3.5c1.8-1.6,4-2.9,6.3-3.7c2.1-0.8,4.3-1.2,6.6-1.3c2.6-0.1,5.2,0.5,7.5,1.6C1824.8,521.5,1826.5,523,1827.6,524.8z"/>
<path d="M1594.5,624.6h-15.2v22.8h-10.2v-53.8h30.4l1.6,8.1h-21.8v14.9h13.7L1594.5,624.6z"/>
<path d="M1627.9,609l2,8.2c-2.1,0.1-4.1,0.6-6,1.5c-2.5,1.1-4.7,2.6-6.8,4.4v24.2h-10.3V609h5.4l3.4,5.6c1.8-1.5,3.7-2.8,5.8-3.8
	C1623.4,609.7,1625.7,609.1,1627.9,609z"/>
<path d="M1647.9,648.3c-4.7,0-8.1-1.1-10.4-3.4c-2.3-2.4-3.5-5.7-3.4-9c0-4,1.3-7,4-9.1c2.7-2.1,6.2-3.2,10.5-3.2h7.5
	c0-1.7-0.6-3.3-1.7-4.5c-1.2-1.1-2.8-1.7-4.5-1.6c-2,0-3.9,0.3-5.8,0.8c-1.8,0.4-3.6,1-5.3,1.8l-2.8-8.5c2.1-1.2,4.4-2.1,6.8-2.5
	c2.3-0.6,4.6-0.9,7-1c4.3-0.1,8.5,1.3,11.8,4c3.2,2.4,5,6.2,4.9,10.2v25.2h-5.3l-2.5-3.2c-1.5,1.2-3.2,2.2-5,2.9
	C1651.9,647.8,1649.9,648.3,1647.9,648.3z M1642.9,635.9c0,1.1,0.5,2.2,1.3,3c1,0.9,2.2,1.4,3.6,1.3c1.5,0,2.9-0.3,4.3-0.9
	c1.5-0.7,2.9-1.7,4.2-2.8v-5.8h-7.7c-1.6-0.1-3.1,0.5-4.2,1.7C1643.4,633.2,1642.9,634.5,1642.9,635.9z"/>
<path d="M1709,613.5c1.8-2,4-3.5,6.5-4.4c2.3-1,4.8-1.5,7.3-1.6c5.2,0,8.9,1.5,11.1,4.6c2.3,3.3,3.4,7.2,3.3,11.2v24h-10.3v-23.5
	c0.1-2-0.5-4-1.7-5.6c-1.3-1.4-3.2-2.1-5.1-1.9c-1.6,0-3.2,0.4-4.7,1.2c-1.6,0.7-3,1.6-4.4,2.7c0,0.5,0.1,1.1,0.2,1.6s0.1,1,0.1,1.6
	v24h-10.3v-23.5c0.1-2-0.5-4-1.7-5.6c-1.3-1.4-3.1-2.1-5-1.9c-1.4,0-2.7,0.3-4,0.8c-1.4,0.6-2.6,1.3-3.8,2.1v28.1H1676V609h5.4
	l2.5,3.5c1.8-1.6,4-2.9,6.3-3.7c2.1-0.8,4.3-1.2,6.6-1.3c2.6-0.1,5.2,0.5,7.5,1.6C1706.2,610.1,1707.9,611.6,1709,613.5z"/>
<path d="M1751.7,592c1.6,0,3,0.6,4.2,1.7c2.3,2.3,2.3,5.9,0,8.2c-1.1,1.1-2.6,1.7-4.2,1.7c-1.5,0-3-0.6-4-1.7
	c-2.2-2.3-2.2-5.9,0-8.2C1748.8,592.6,1750.2,592,1751.7,592z M1756.9,609v38.3h-10.3V609H1756.9z"/>
<path d="M1775.3,613.1c1.9-1.8,4.1-3.2,6.5-4.1c2.2-0.9,4.6-1.4,7-1.5c5.2,0,8.9,1.5,11.1,4.6c2.3,3.3,3.4,7.2,3.3,11.2v24h-10.3
	v-23.5c0.1-2-0.5-4-1.7-5.6c-1.3-1.4-3.2-2.1-5.1-1.9c-1.6,0-3.2,0.4-4.6,1.2c-1.6,0.7-3,1.6-4.4,2.7v27.3h-10.3V609h5.4
	L1775.3,613.1z"/>
<path d="M1849.2,609v38.3c0.1,4.4-1.6,8.6-4.7,11.7c-3.1,3.1-8.1,4.7-14.9,4.7c-2.4-0.1-4.8-0.5-7.1-1.1c-2.7-0.6-5.4-1.7-7.7-3.2
	l3.1-7.3c2,1,4,1.8,6.1,2.5c1.8,0.5,3.6,0.8,5.4,0.9c3.1,0,5.4-0.8,7-2.2c1.7-1.5,2.6-3.7,2.4-6v-2c-1.6,1-3.4,1.7-5.2,2.3
	c-1.7,0.5-3.4,0.8-5.1,0.8c-5.6,0-9.9-2-12.9-5.8c-3-3.9-4.5-8.7-4.5-14.5c0-5.8,1.6-10.6,4.8-14.5c3.2-3.9,7.6-5.8,13.1-5.8
	c2.2,0.1,4.3,0.5,6.4,1.2c2.2,0.7,4.3,1.9,6.1,3.4l2.4-3.2L1849.2,609z M1831.2,616.3c-3.6,0-6.1,1.3-7.5,3.8
	c-1.4,2.4-2.1,5.1-2.1,7.8c0,2.8,0.6,5.6,1.9,8.1c1.3,2.4,3.8,3.6,7.7,3.6c1.3,0,2.6-0.3,3.8-0.8c1.3-0.5,2.6-1.2,3.8-1.9V619
	c-1.2-0.8-2.4-1.5-3.8-2C1833.9,616.6,1832.6,616.3,1831.2,616.3L1831.2,616.3z"/>
<path d="M2410.8,546.8c2,1,4.1,1.9,6.2,2.5c2.3,0.8,4.7,1.2,7.2,1.3c3.2,0,5.6-0.5,7.2-1.5c1.5-0.9,2.5-2.6,2.4-4.3
	c0-1.8-1.1-3.4-3.2-4.8c-2.3-1.5-4.6-2.8-7.1-4.1c-3.8-2-7.5-4.3-10.9-6.9c-3.5-2.6-5.4-6.7-5.1-11c0-4,1.8-7.7,4.9-10.2
	c3.2-2.8,7.7-4.2,13.6-4.1c2.7,0,5.5,0.4,8.1,1.3c2.4,0.7,4.8,1.7,7.1,2.8l-3.4,8.2c-1.6-0.8-3.4-1.5-5.3-2.2
	c-2-0.7-4.2-1.1-6.3-1.1c-2-0.1-4,0.4-5.7,1.3c-1.5,0.8-2.4,2.4-2.3,4.1c0,2.1,1.2,4,3,5c2,1.3,4.4,2.7,7.1,4.2
	c3.9,2,7.5,4.3,11,6.9c3.4,2.5,5.4,6.6,5.2,10.8c0,4.2-1.9,8.1-5.2,10.6c-3.4,2.8-8.4,4.2-14.9,4.2c-3-0.1-5.9-0.6-8.7-1.5
	c-3.6-1-5.9-2-7.1-3.1L2410.8,546.8z"/>
<path d="M2470.4,559.6c-6.1-0.1-10.8-1.9-14.2-5.5s-5.1-8.5-5.1-14.7c0-6.1,1.8-11,5.3-14.6s8.4-5.5,14.6-5.5
	c6.4,0,11.3,1.9,14.8,5.7c3.5,3.8,5.3,8.7,5.2,14.8c0,6.1-1.9,10.9-5.7,14.5C2481.6,557.8,2476.6,559.6,2470.4,559.6z M2480.5,539.8
	c0-3.6-0.8-6.5-2.4-8.6c-1.6-2.1-4.2-3.3-6.8-3.1c-2.6-0.1-5.2,0.9-7,2.8c-1.7,1.8-2.5,4.7-2.5,8.5s0.7,6.7,2.2,8.6
	c1.4,2,3.7,2.9,6.7,2.9c2.7,0.1,5.2-0.8,7.2-2.7C2479.6,546.4,2480.5,543.6,2480.5,539.8L2480.5,539.8z"/>
<path d="M2510.1,502.9v55.8h-10.2v-54.9L2510.1,502.9z"/>
<path d="M2547.6,554.9c-3.7,3.3-8.4,5.1-13.3,5.4c-5.2,0-8.9-1.5-11.1-4.6c-2.2-3.3-3.4-7.2-3.3-11.2v-24.1h10.4V544
	c-0.1,2,0.5,4,1.7,5.6c1.3,1.4,3.2,2.1,5.1,1.9c1.5,0,3-0.4,4.4-1c1.5-0.7,2.9-1.5,4.2-2.4v-27.8h10.3v38.3h-5.4L2547.6,554.9z"/>
<path d="M2589.5,557.9c-1.1,0.8-2.3,1.4-3.6,1.7c-1.3,0.4-2.7,0.6-4.1,0.7c-4.7,0-8.5-1.2-11.2-3.6c-2.7-2.4-4.1-5.8-4.1-10.2v-18.1
	h-5.1v-7.9h5.1v-9.1l10.2-1.8v10.9h7l3.2,7.9h-10.1v16.3c-0.1,1.8,0.4,3.5,1.4,4.9c1,1.3,2.6,2,4.2,1.9c0.7,0,1.3-0.1,2-0.2
	c0.7-0.2,1.5-0.4,2.1-0.8L2589.5,557.9z"/>
<path d="M2600.4,503.3c1.6,0,3,0.6,4.1,1.7c2.3,2.3,2.3,5.9,0,8.2c-1.1,1.1-2.6,1.7-4.1,1.7c-1.5,0-3-0.6-4-1.7
	c-2.3-2.2-2.3-5.9-0.1-8.2C2597.4,504,2598.8,503.3,2600.4,503.3L2600.4,503.3z M2605.5,520.3v38.3h-10.3v-38.3L2605.5,520.3z"/>
<path d="M2633.2,559.6c-6.1-0.1-10.8-1.9-14.2-5.5s-5.1-8.5-5.1-14.7c0-6.1,1.8-11,5.3-14.6s8.4-5.5,14.6-5.5
	c6.4,0,11.3,1.9,14.8,5.7c3.5,3.8,5.3,8.7,5.3,14.8c0,6.1-1.9,10.9-5.7,14.5C2644.4,557.8,2639.4,559.6,2633.2,559.6z M2643.3,539.8
	c0-3.6-0.8-6.5-2.4-8.6c-1.6-2.1-4.2-3.3-6.8-3.1c-2.6-0.1-5.2,0.9-7,2.8c-1.7,1.8-2.5,4.7-2.5,8.5s0.7,6.7,2.2,8.6
	c1.5,2,3.7,2.9,6.7,2.9c2.7,0.1,5.2-0.8,7.2-2.7C2642.4,546.4,2643.3,543.6,2643.3,539.8L2643.3,539.8z"/>
<path d="M2670.6,524.4c1.9-1.8,4.1-3.2,6.5-4.1c2.2-0.9,4.6-1.4,7-1.5c5.2,0,8.9,1.5,11.1,4.6c2.3,3.3,3.4,7.2,3.3,11.2v24h-10.3
	v-23.5c0.1-2-0.5-4-1.7-5.6c-1.3-1.4-3.2-2.1-5.1-1.9c-1.6,0-3.2,0.4-4.6,1.2c-1.6,0.7-3,1.6-4.4,2.7v27.3h-10.3v-38.3h5.4
	L2670.6,524.4z"/>
<path d="M2415.5,635.5c2,1,4.1,1.8,6.2,2.5c2.3,0.8,4.7,1.2,7.2,1.3c3.2,0,5.6-0.5,7.2-1.5c1.6-0.9,2.5-2.6,2.4-4.3
	c0-1.8-1.1-3.4-3.2-4.8c-2.3-1.5-4.6-2.8-7.1-4.1c-3.8-2-7.5-4.3-10.9-6.9c-3.5-2.6-5.4-6.7-5.1-11c0-4,1.8-7.7,4.9-10.2
	c3.2-2.8,7.7-4.2,13.6-4.2c2.7,0,5.5,0.4,8.1,1.3c2.4,0.8,4.8,1.7,7.1,2.8l-3.4,8.2c-1.6-0.8-3.4-1.5-5.3-2.2
	c-2-0.7-4.2-1.1-6.3-1.1c-2-0.1-4,0.4-5.7,1.3c-1.5,0.8-2.4,2.4-2.3,4.1c0,2.1,1.2,4,3,5c2,1.3,4.4,2.7,7.1,4.2
	c3.9,2,7.5,4.3,11,6.9c3.4,2.5,5.4,6.6,5.2,10.8c0,4.2-1.9,8.1-5.2,10.6c-3.4,2.8-8.4,4.2-14.9,4.2c-3-0.1-5.9-0.6-8.7-1.5
	c-3.6-1-5.9-2-7.1-3.1L2415.5,635.5z"/>
<path d="M2468.1,611.5c1.7-1.3,3.7-2.4,5.8-3c1.9-0.6,3.9-1,5.9-1c5.2,0,8.9,1.5,11.1,4.6c2.3,3.3,3.4,7.2,3.3,11.2v24H2484v-23.6
	c0.1-2-0.5-4-1.7-5.6c-1.3-1.4-3.2-2.1-5.1-1.9c-1.6,0-3.2,0.4-4.6,1.2c-1.5,0.7-3,1.6-4.4,2.7v27.3H2458v-54.9l10.2-0.9
	L2468.1,611.5z"/>
<path d="M2516.4,648.3c-4.7,0-8.1-1.1-10.4-3.4c-2.3-2.4-3.5-5.7-3.4-9c0-4,1.3-7,4-9.1c2.7-2.1,6.2-3.2,10.5-3.2h7.5
	c0.1-1.7-0.6-3.3-1.7-4.5c-1.2-1.1-2.8-1.7-4.5-1.6c-2,0-3.9,0.3-5.9,0.8c-1.8,0.4-3.6,1-5.3,1.8l-2.8-8.5c2.1-1.2,4.4-2.1,6.8-2.5
	c2.3-0.6,4.6-0.9,7-1c4.3-0.1,8.5,1.3,11.8,4c3.1,2.4,5,6.2,4.9,10.2v25.2h-5.3l-2.5-3.2c-1.5,1.2-3.2,2.2-5,2.9
	C2520.3,647.8,2518.3,648.3,2516.4,648.3z M2511.3,635.9c0,1.1,0.5,2.2,1.3,3c1,0.9,2.2,1.4,3.6,1.3c1.5,0,3-0.3,4.3-0.9
	c1.5-0.7,2.9-1.7,4.1-2.8v-5.8h-7.8c-1.6-0.1-3.1,0.5-4.1,1.7C2511.8,633.2,2511.3,634.5,2511.3,635.9z"/>
<path d="M2545,609h5.2l2.2,2.8c1.8-1.4,3.9-2.4,6.1-3.2c2-0.7,4.1-1.1,6.2-1.2c5.6,0,10,1.9,13,5.8c3,3.9,4.5,8.7,4.5,14.5
	c0,5.8-1.5,10.7-4.6,14.5c-3.1,3.9-7.4,5.8-12.8,5.8c-1.6,0-3.1-0.3-4.6-0.7c-1.7-0.5-3.3-1.1-4.9-2v18.3l-10.2,0.8L2545,609z
	 M2562,639.5c3.5,0,6-1.3,7.4-3.8c1.4-2.4,2.1-5.1,2.1-7.8c0-2.8-0.6-5.6-1.9-8.1c-1.3-2.4-3.8-3.6-7.7-3.6c-1.2,0-2.3,0.2-3.4,0.6
	c-1.2,0.4-2.3,0.9-3.4,1.6v18.8c1.1,0.6,2.2,1.2,3.4,1.6C2559.7,639.3,2560.8,639.5,2562,639.5L2562,639.5z"/>
<path d="M2595.5,592c1.6,0,3,0.6,4.1,1.7c2.3,2.3,2.3,5.9,0,8.2c-1.1,1.1-2.6,1.7-4.1,1.7c-1.5,0-3-0.6-4-1.7
	c-2.3-2.2-2.3-5.9-0.1-8.2C2592.5,592.6,2594,592,2595.5,592L2595.5,592z M2600.6,609v38.3h-10.3V609H2600.6z"/>
<path d="M2619.1,613.1c1.9-1.8,4.1-3.2,6.5-4.1c2.2-0.9,4.6-1.4,7-1.5c5.2,0,8.9,1.5,11.1,4.6c2.3,3.3,3.4,7.2,3.3,11.2v24h-10.3
	v-23.5c0.1-2-0.5-4-1.7-5.6c-1.3-1.4-3.2-2.1-5.1-1.9c-1.6,0-3.2,0.4-4.6,1.2c-1.6,0.7-3,1.6-4.4,2.7v27.3h-10.3V609h5.4
	L2619.1,613.1z"/>
<path d="M2693,609v38.3c0.1,4.4-1.6,8.6-4.7,11.7c-3.1,3.1-8.1,4.7-14.9,4.7c-2.4-0.1-4.8-0.5-7.1-1.1c-2.7-0.6-5.4-1.7-7.8-3.2
	l3.1-7.3c2,1,4,1.8,6.1,2.5c1.8,0.5,3.6,0.8,5.4,0.9c3.1,0,5.4-0.8,7-2.2c1.7-1.5,2.6-3.7,2.4-6v-2c-1.6,1-3.4,1.7-5.2,2.3
	c-1.7,0.5-3.4,0.8-5.1,0.8c-5.6,0-9.9-2-12.9-5.8s-4.5-8.7-4.5-14.5c-0.2-5.3,1.5-10.4,4.8-14.5c3.2-3.9,7.5-5.8,13.1-5.8
	c2.2,0.1,4.3,0.5,6.4,1.2c2.2,0.7,4.3,1.9,6.1,3.4l2.4-3.2L2693,609z M2675,616.3c-3.6,0-6.1,1.3-7.5,3.8c-1.4,2.4-2.1,5.1-2.1,7.8
	c0,2.8,0.6,5.6,1.9,8.1c1.3,2.4,3.8,3.6,7.7,3.6c1.3,0,2.6-0.3,3.8-0.8c1.3-0.5,2.6-1.2,3.8-1.9V619c-1.2-0.8-2.4-1.5-3.8-2
	C2677.6,616.6,2676.3,616.3,2675,616.3z"/>
<path d="M3079,540.8c2,1,4.1,1.9,6.2,2.5c2.3,0.8,4.7,1.2,7.2,1.3c3.2,0,5.6-0.5,7.2-1.5c1.5-0.9,2.5-2.6,2.4-4.3
	c0-1.8-1.1-3.4-3.2-4.8c-2.3-1.5-4.6-2.8-7.1-4.1c-3.8-2-7.5-4.3-10.9-6.9c-3.4-2.6-5.4-6.7-5.1-11c0-4,1.8-7.7,4.9-10.2
	c3.2-2.8,7.7-4.1,13.6-4.1c2.7,0,5.5,0.4,8.1,1.3c2.4,0.7,4.8,1.7,7.1,2.8l-3.4,8.2c-1.6-0.8-3.4-1.5-5.3-2.2
	c-2-0.7-4.2-1.1-6.3-1.1c-2-0.1-4,0.4-5.7,1.3c-1.5,0.8-2.4,2.4-2.3,4.1c0,2.1,1.2,4,3,5c2,1.3,4.4,2.7,7.1,4.2
	c3.9,2,7.5,4.3,11,6.9c3.4,2.5,5.4,6.6,5.2,10.8c0,4.1-1.9,8.1-5.2,10.6c-3.4,2.8-8.4,4.2-14.9,4.2c-3-0.1-5.9-0.6-8.7-1.5
	c-3.6-1-5.9-2-7.2-3.1L3079,540.8z"/>
<path d="M3138.6,553.6c-6.1-0.1-10.8-1.9-14.2-5.5s-5.1-8.5-5.1-14.7c0-6.1,1.8-11,5.3-14.6c3.6-3.6,8.4-5.5,14.6-5.5
	c6.4,0,11.3,1.9,14.8,5.7s5.3,8.7,5.2,14.8c0,6.1-1.9,10.9-5.7,14.5C3149.9,551.8,3144.9,553.6,3138.6,553.6z M3148.8,533.8
	c0-3.6-0.8-6.5-2.4-8.6c-1.6-2.1-4.2-3.3-6.8-3.1c-2.6-0.1-5.2,0.9-7,2.8c-1.7,1.8-2.5,4.7-2.5,8.5s0.7,6.7,2.2,8.6s3.7,2.9,6.7,2.9
	c2.7,0.1,5.2-0.8,7.2-2.7C3147.8,540.4,3148.8,537.6,3148.8,533.8L3148.8,533.8z"/>
<path d="M3178.3,496.9v55.8h-10.2v-54.9L3178.3,496.9z"/>
<path d="M3215.9,548.9c-3.7,3.3-8.4,5.1-13.3,5.4c-5.2,0-8.9-1.5-11.1-4.6c-2.2-3.3-3.4-7.2-3.3-11.2v-24.1h10.4V538
	c-0.1,2,0.5,4,1.7,5.6c1.3,1.4,3.2,2.1,5.1,1.9c1.5,0,3-0.4,4.4-1c1.5-0.7,2.9-1.4,4.2-2.4v-27.8h10.3v38.3h-5.4L3215.9,548.9z"/>
<path d="M3257.8,551.9c-1.1,0.8-2.3,1.4-3.6,1.7c-1.3,0.4-2.7,0.6-4.1,0.7c-4.7,0-8.5-1.2-11.2-3.6c-2.7-2.4-4.1-5.8-4.1-10.2v-18.1
	h-5.1v-7.9h5.1v-9.1l10.2-1.8v10.9h7l3.2,7.9H3245v16.3c-0.1,1.8,0.4,3.5,1.4,4.9c1,1.3,2.5,2,4.2,1.9c0.7,0,1.4-0.1,2.1-0.2
	c0.7-0.2,1.5-0.4,2.1-0.8L3257.8,551.9z"/>
<path d="M3268.6,497.3c1.6,0,3,0.6,4.1,1.7c2.3,2.3,2.3,5.9,0,8.2c-1.1,1.1-2.6,1.7-4.1,1.7c-1.5,0-2.9-0.6-4-1.7
	c-2.2-2.3-2.2-5.9,0-8.2C3265.6,497.9,3267.1,497.3,3268.6,497.3z M3273.7,514.3v38.3h-10.3v-38.3L3273.7,514.3z"/>
<path d="M3301.4,553.6c-6.1-0.1-10.8-1.9-14.2-5.5s-5.1-8.5-5.1-14.7c0-6.1,1.8-11,5.3-14.6c3.6-3.6,8.4-5.5,14.6-5.5
	c6.4,0,11.3,1.9,14.8,5.7c3.5,3.8,5.3,8.7,5.2,14.8c0,6.1-1.9,10.9-5.7,14.5C3312.6,551.8,3307.6,553.6,3301.4,553.6z M3311.5,533.8
	c0-3.6-0.8-6.5-2.4-8.6c-1.6-2.1-4.2-3.3-6.8-3.1c-2.6-0.1-5.2,0.9-7,2.8c-1.7,1.8-2.5,4.7-2.5,8.5s0.7,6.7,2.2,8.6
	c1.4,2,3.7,2.9,6.7,2.9c2.7,0.1,5.2-0.8,7.2-2.7C3310.6,540.4,3311.5,537.6,3311.5,533.8L3311.5,533.8z"/>
<path d="M3338.8,518.4c1.9-1.8,4.1-3.2,6.5-4.1c2.2-0.9,4.6-1.4,7-1.5c5.2,0,8.9,1.5,11.1,4.6c2.3,3.3,3.4,7.2,3.3,11.2v24h-10.3
	v-23.5c0.1-2-0.5-4-1.7-5.6c-1.3-1.4-3.2-2.1-5.1-1.9c-1.6,0-3.2,0.4-4.6,1.2c-1.6,0.7-3,1.6-4.4,2.7v27.3h-10.3v-38.3h5.4
	L3338.8,518.4z"/>
<path d="M3080.9,641.3v-53.8h16.8c5.3-0.1,10.5,1.2,15,4c4.2,2.7,6.3,7.1,6.2,13.2c0,6.2-2.3,10.7-6.8,13.5
	c-4.5,2.9-9.8,4.4-15.2,4.3h-5.9v18.7L3080.9,641.3z M3097.4,596.1h-6.3v18h6.5c2.6,0.1,5.3-0.6,7.4-2.1c1.9-1.4,2.9-3.6,3.2-6.6
	c0-3.5-0.9-5.9-2.9-7.3C3103.4,596.8,3100.8,596.1,3097.4,596.1z"/>
<path d="M3132.3,586c1.6,0,3.1,0.6,4.1,1.7c2.3,2.3,2.3,5.9,0,8.2c-1.1,1.1-2.6,1.7-4.1,1.7c-1.5,0-2.9-0.6-4-1.7
	c-2.2-2.3-2.2-5.9,0-8.2C3129.3,586.6,3130.8,586,3132.3,586z M3137.4,603v38.3h-10.3V603H3137.4z"/>
<path d="M3171.1,640.5c-1.1,0.8-2.3,1.4-3.6,1.7c-1.3,0.4-2.7,0.6-4.1,0.7c-4.7,0-8.5-1.2-11.2-3.6c-2.7-2.4-4.1-5.8-4.1-10.2V611
	h-5.1v-7.9h5.1V594l10.2-1.8v10.9h7l3.2,7.9h-10.1v16.3c-0.1,1.8,0.4,3.5,1.4,4.9c1,1.3,2.6,2,4.2,1.9c0.7,0,1.3-0.1,2-0.2
	c0.7-0.2,1.5-0.4,2.1-0.8L3171.1,640.5z"/>
<path d="M3195,610.8c-2.7-0.1-5.2,1.1-6.8,3.3c-1.7,2.4-2.6,5.3-2.4,8.2c-0.1,2.9,0.7,5.8,2.4,8.1c1.6,2.1,4.2,3.3,6.8,3.2
	c1.6,0,3.3-0.2,4.9-0.7c1.7-0.5,3.3-1.2,4.9-1.9l2.9,7.4c-1.9,1.4-4.2,2.5-6.5,3c-2.1,0.6-4.2,0.9-6.3,1c-6.2,0-11.1-1.8-14.5-5.5
	s-5.2-8.5-5.2-14.6c0-6.1,1.7-11,5.2-14.7s8.4-5.5,14.6-5.5c2.1,0.1,4.2,0.4,6.2,1c2.4,0.6,4.6,1.6,6.6,3l-2.9,7.4
	c-1.6-0.8-3.3-1.4-4.9-1.9C3198.3,610.9,3196.7,610.7,3195,610.8z"/>
<path d="M3226,605.5c1.7-1.3,3.7-2.4,5.8-3c1.9-0.6,3.9-1,5.9-1c5.2,0,8.9,1.5,11.1,4.6c2.3,3.3,3.4,7.2,3.3,11.2v24h-10.3v-23.6
	c0.1-2-0.5-4-1.7-5.6c-1.3-1.4-3.2-2.1-5.1-1.9c-1.6,0-3.2,0.4-4.6,1.2c-1.5,0.7-3,1.6-4.4,2.7v27.3h-10.2v-54.9l10.2-0.9V605.5z"/>
<path d="M3266.6,586c1.6,0,3.1,0.6,4.1,1.7c2.3,2.3,2.3,5.9,0,8.2c-1.1,1.1-2.6,1.7-4.1,1.7c-1.5,0-2.9-0.6-4-1.7
	c-2.2-2.3-2.2-5.9,0-8.2C3263.6,586.6,3265.1,586,3266.6,586z M3271.7,603v38.3h-10.3V603H3271.7z"/>
<path d="M3290.1,607.1c1.9-1.8,4.1-3.2,6.5-4.1c2.2-0.9,4.6-1.4,7-1.5c5.2,0,8.9,1.5,11.1,4.6c2.3,3.3,3.4,7.2,3.3,11.2v24h-10.3
	v-23.5c0.1-2-0.5-4-1.7-5.6c-1.3-1.4-3.2-2.1-5.1-1.9c-1.6,0-3.2,0.4-4.6,1.2c-1.5,0.7-3,1.6-4.4,2.7v27.3h-10.3V603h5.4
	L3290.1,607.1z"/>
<path d="M3364.1,603v38.3c0.1,4.4-1.6,8.6-4.7,11.7c-3.1,3.1-8.1,4.7-14.9,4.7c-2.4-0.1-4.8-0.5-7.1-1.1c-2.7-0.6-5.4-1.7-7.8-3.2
	l3.1-7.3c2,1,4,1.8,6.1,2.5c1.8,0.5,3.6,0.8,5.5,0.9c3.1,0,5.4-0.8,7-2.2c1.7-1.5,2.6-3.7,2.4-6v-2c-1.6,1-3.4,1.7-5.2,2.2
	c-1.7,0.5-3.4,0.8-5.1,0.8c-5.6,0-9.9-2-12.9-5.8c-3-3.9-4.5-8.7-4.5-14.5c0-5.8,1.6-10.6,4.8-14.5c3.2-3.9,7.5-5.9,13.1-5.8
	c2.2,0.1,4.4,0.5,6.4,1.2c2.2,0.7,4.3,1.9,6.1,3.4l2.4-3.2L3364.1,603z M3346.1,610.3c-3.6,0-6.1,1.3-7.5,3.8
	c-1.4,2.4-2.1,5.1-2.1,7.8c-0.1,2.8,0.6,5.6,1.9,8.1c1.3,2.4,3.8,3.6,7.7,3.5c1.3,0,2.6-0.3,3.8-0.8c1.3-0.5,2.6-1.2,3.8-1.9V613
	c-1.2-0.8-2.4-1.5-3.8-2C3348.7,610.5,3347.4,610.3,3346.1,610.3z"/>
<g>
	<path d="M17.2-115.4c0-5.7-0.1-10.4-0.5-14.9h8.8l0.5,8.9h0.3c3.1-5.2,8.2-10.1,17.3-10.1c7.5,0,13.2,4.6,15.6,11h0.2
		c1.7-3.1,3.9-5.5,6.2-7.2c3.3-2.5,6.9-3.9,12.2-3.9c7.3,0,18.1,4.8,18.1,23.9v32.5h-9.8v-31.2c0-10.6-3.9-17-12-17
		c-5.7,0-10.1,4.2-11.8,9.1c-0.5,1.4-0.8,3.2-0.8,5v34.1h-9.8v-33c0-8.8-3.9-15.1-11.5-15.1c-6.3,0-10.8,5-12.4,10
		c-0.6,1.5-0.8,3.2-0.8,4.9v33.3h-9.8V-115.4z"/>
	<path d="M142.8-75.2l-0.8-6.9h-0.3c-3.1,4.3-9,8.2-16.9,8.2c-11.2,0-16.9-7.9-16.9-15.8c0-13.3,11.8-20.6,33.1-20.5v-1.1
		c0-4.6-1.3-12.8-12.5-12.8c-5.1,0-10.5,1.6-14.4,4.1l-2.3-6.6c4.6-3,11.2-4.9,18.1-4.9c16.9,0,21,11.5,21,22.6v20.6
		c0,4.8,0.2,9.5,0.9,13.2H142.8z M141.3-103.4c-10.9-0.2-23.4,1.7-23.4,12.4c0,6.5,4.3,9.6,9.5,9.6c7.2,0,11.7-4.6,13.3-9.2
		c0.3-1,0.6-2.2,0.6-3.2V-103.4z"/>
	<path d="M167.1-113.2c0-6.5-0.1-12.1-0.5-17.2h8.8l0.3,10.8h0.5c2.5-7.4,8.5-12.1,15.3-12.1c1.1,0,1.9,0.1,2.8,0.3v9.5
		c-1-0.2-2.1-0.3-3.4-0.3c-7.1,0-12.1,5.4-13.4,12.9c-0.2,1.4-0.5,3-0.5,4.7v29.4h-9.9V-113.2z"/>
	<path d="M242.5-77.3c-2.6,1.4-8.4,3.2-15.8,3.2c-16.6,0-27.5-11.3-27.5-28.1c0-17,11.6-29.3,29.6-29.3c5.9,0,11.2,1.5,13.9,2.8
		l-2.3,7.7c-2.4-1.4-6.2-2.6-11.6-2.6c-12.6,0-19.5,9.3-19.5,20.8c0,12.8,8.2,20.6,19.1,20.6c5.7,0,9.5-1.5,12.3-2.7L242.5-77.3z"/>
	<path d="M303.5-103.3c0,20.4-14.1,29.3-27.5,29.3c-14.9,0-26.4-10.9-26.4-28.4c0-18.5,12.1-29.3,27.3-29.3
		C292.8-131.6,303.5-120.1,303.5-103.3z M259.8-102.7c0,12.1,6.9,21.2,16.7,21.2c9.6,0,16.7-9,16.7-21.4c0-9.3-4.7-21.2-16.5-21.2
		C264.9-124.1,259.8-113.2,259.8-102.7z"/>
	<path d="M314.8-85.5c3,1.9,8.2,4,13.2,4c7.3,0,10.7-3.6,10.7-8.2c0-4.8-2.8-7.4-10.3-10.1c-9.9-3.5-14.6-9-14.6-15.6
		c0-8.9,7.2-16.2,19-16.2c5.6,0,10.5,1.6,13.6,3.4l-2.5,7.3c-2.2-1.4-6.2-3.2-11.3-3.2c-5.9,0-9.2,3.4-9.2,7.5
		c0,4.6,3.3,6.6,10.5,9.3c9.6,3.6,14.5,8.4,14.5,16.6c0,9.7-7.5,16.5-20.6,16.5c-6,0-11.6-1.5-15.5-3.8L314.8-85.5z"/>
	<path d="M361.2-113.2c0-6.5-0.1-12.1-0.5-17.2h8.8l0.3,10.8h0.5c2.5-7.4,8.5-12.1,15.3-12.1c1.1,0,1.9,0.1,2.8,0.3v9.5
		c-1-0.2-2.1-0.3-3.4-0.3c-7.1,0-12.1,5.4-13.4,12.9c-0.2,1.4-0.5,3-0.5,4.7v29.4h-9.9V-113.2z"/>
	<path d="M402.9-101c0.2,13.6,8.9,19.1,18.9,19.1c7.2,0,11.5-1.3,15.3-2.8l1.7,7.2c-3.5,1.6-9.6,3.4-18.3,3.4
		c-17,0-27.1-11.2-27.1-27.8s9.8-29.7,25.9-29.7c18,0,22.8,15.8,22.8,26c0,2.1-0.2,3.6-0.3,4.7H402.9z M432.3-108.2
		c0.1-6.4-2.6-16.3-13.9-16.3c-10.1,0-14.6,9.3-15.4,16.3H432.3z"/>
	<path d="M448.2-81l24.9-32.5c2.4-3,4.7-5.6,7.2-8.5v-0.2h-29.8v-8.1h42l-0.1,6.3l-24.6,32c-2.3,3.1-4.6,5.8-7.1,8.7v0.2h32.2v8
		h-44.8V-81z"/>
	<path d="M508-101c0.2,13.6,8.9,19.1,18.9,19.1c7.2,0,11.5-1.3,15.3-2.8l1.7,7.2c-3.5,1.6-9.6,3.4-18.3,3.4
		c-17,0-27.1-11.2-27.1-27.8s9.8-29.7,25.9-29.7c18,0,22.8,15.8,22.8,26c0,2.1-0.2,3.6-0.3,4.7H508z M537.4-108.2
		c0.1-6.4-2.6-16.3-13.9-16.3c-10.1,0-14.6,9.3-15.4,16.3H537.4z"/>
	<path d="M559.5-115.4c0-5.7-0.1-10.4-0.5-14.9h8.9l0.6,9.1h0.2c2.7-5.2,9.1-10.4,18.2-10.4c7.6,0,19.5,4.6,19.5,23.5v32.9h-10V-107
		c0-8.9-3.3-16.3-12.8-16.3c-6.6,0-11.7,4.7-13.4,10.3c-0.5,1.3-0.7,3-0.7,4.7v33.1h-10V-115.4z"/>
	<path d="M670.3-156.1v66.6c0,4.9,0.1,10.5,0.5,14.2h-9l-0.5-9.6h-0.2C658-78.7,651.3-74,642.3-74c-13.3,0-23.6-11.3-23.6-28
		c-0.1-18.3,11.3-29.6,24.7-29.6c8.4,0,14.1,4,16.6,8.4h0.2v-32.9H670.3z M660.3-107.9c0-1.3-0.1-3-0.5-4.2
		c-1.5-6.4-6.9-11.6-14.5-11.6c-10.4,0-16.5,9.1-16.5,21.3c0,11.2,5.5,20.4,16.3,20.4c6.7,0,12.9-4.4,14.7-12
		c0.3-1.4,0.5-2.7,0.5-4.3V-107.9z"/>
	<path d="M692.5-101c0.2,13.6,8.9,19.1,18.9,19.1c7.2,0,11.5-1.3,15.3-2.8l1.7,7.2c-3.5,1.6-9.6,3.4-18.3,3.4
		c-17,0-27.1-11.2-27.1-27.8s9.8-29.7,25.9-29.7c18,0,22.8,15.8,22.8,26c0,2.1-0.2,3.6-0.3,4.7H692.5z M721.9-108.2
		c0.1-6.4-2.6-16.3-13.9-16.3c-10.1,0-14.6,9.3-15.4,16.3H721.9z"/>
	<path d="M740.2-81.2c0-4.2,2.8-7.2,6.8-7.2c4,0,6.7,3,6.7,7.2c0,4.1-2.6,7.2-6.8,7.2C743-74,740.2-77.1,740.2-81.2z"/>
	<path d="M805.5-77.3c-2.6,1.4-8.4,3.2-15.8,3.2c-16.6,0-27.5-11.3-27.5-28.1c0-17,11.6-29.3,29.6-29.3c5.9,0,11.2,1.5,13.9,2.8
		l-2.3,7.7c-2.4-1.4-6.2-2.6-11.6-2.6c-12.6,0-19.5,9.3-19.5,20.8c0,12.8,8.2,20.6,19.1,20.6c5.7,0,9.5-1.5,12.3-2.7L805.5-77.3z"/>
	<path d="M866.4-103.3c0,20.4-14.1,29.3-27.5,29.3c-14.9,0-26.4-10.9-26.4-28.4c0-18.5,12.1-29.3,27.3-29.3
		C855.7-131.6,866.4-120.1,866.4-103.3z M822.7-102.7c0,12.1,6.9,21.2,16.7,21.2c9.6,0,16.7-9,16.7-21.4c0-9.3-4.7-21.2-16.5-21.2
		C827.8-124.1,822.7-113.2,822.7-102.7z"/>
	<path d="M879.1-115.4c0-5.7-0.1-10.4-0.5-14.9h8.8l0.5,8.9h0.3c3.1-5.2,8.2-10.1,17.3-10.1c7.5,0,13.2,4.6,15.6,11h0.2
		c1.7-3.1,3.9-5.5,6.2-7.2c3.3-2.5,6.9-3.9,12.2-3.9c7.3,0,18.1,4.8,18.1,23.9v32.5H948v-31.2c0-10.6-3.9-17-12-17
		c-5.7,0-10.1,4.2-11.8,9.1c-0.5,1.4-0.8,3.2-0.8,5v34.1h-9.8v-33c0-8.8-3.9-15.1-11.5-15.1c-6.3,0-10.8,5-12.4,10
		c-0.6,1.5-0.8,3.2-0.8,4.9v33.3h-9.8V-115.4z"/>
</g>
</svg>
