<?xml version="1.0" encoding="utf-8"?>
<!-- Generator: Adobe Illustrator 28.0.0, SVG Export Plug-In . SVG Version: 6.00 Build 0)  -->
<svg version="1.1" id="Layer_1" xmlns="http://www.w3.org/2000/svg" xmlns:xlink="http://www.w3.org/1999/xlink" x="0px" y="0px"
	 viewBox="0 0 2500 2500" style="enable-background:new 0 0 2500 2500;" xml:space="preserve">
<style type="text/css">
	.st0{fill:#FFFFFF;stroke:#FFFFFF;stroke-width:19;stroke-miterlimit:30.2383;}
</style>
<path class="st0" d="M1250,2359.9c616.7,0,1120.1-483.1,1120.1-1083.3c0-600.2-503.5-1083.3-1120.1-1083.3
	c-616.6,0-1120.1,483.1-1120.1,1083.3C129.9,1876.8,633.4,2359.9,1250,2359.9z"/>
<path d="M1165.7,1823.1c-313.5,0-497.9-253.3-497.9-568.4c0-327.4,202.8-593.1,590.1-593.1c399.5,0,534.8,271.8,540.9,426.3H1510
	c-6.1-86.5-79.9-216.2-258.2-216.2c-190.5,0-313.5,166.8-313.5,370.7s122.9,370.7,313.5,370.7c172.1,0,245.9-135.9,276.6-271.8
	h-276.6V1230h580.4v568.4h-254.6v-358.3C1559.1,1569.8,1479.2,1823.1,1165.7,1823.1L1165.7,1823.1z"/>
</svg>
