<?xml version="1.0" encoding="UTF-8"?>
<svg id="Layer_1" data-name="Layer 1" xmlns="http://www.w3.org/2000/svg" version="1.1" viewBox="0 0 143 157">
  <defs>
    <style>
      .cls-1 {
        fill: #4a4a4a;
        stroke-width: 0px;
      }
    </style>
  </defs>
  <path class="cls-1" d="M127.93,34.21L80.72,6.96c-6.01-3.47-13.48-3.47-19.49,0L14.02,34.21c-6.01,3.47-9.75,9.94-9.75,16.88v54.51c0,6.94,3.73,13.41,9.75,16.88l47.21,27.26c2.95,1.7,6.32,2.6,9.75,2.6s6.79-.9,9.74-2.6l47.21-27.25c6.01-3.47,9.75-9.94,9.75-16.88v-54.51c0-6.94-3.73-13.41-9.75-16.88ZM70.97,8.35c2.72,0,5.4.72,7.75,2.07l47.21,27.26c4.78,2.76,7.75,7.9,7.75,13.41v54.51c0,5.52-2.97,10.66-7.75,13.42l-47.21,27.25c-4.78,2.76-10.71,2.76-15.49,0l-47.21-27.26c-4.78-2.76-7.75-7.9-7.75-13.41v-54.51c0-5.52,2.97-10.66,7.75-13.42L63.23,10.42c2.34-1.35,5.02-2.07,7.74-2.07Z"/>
  <path class="cls-1" d="M87.39,45.58c.76,0,1.37-.16,1.81-.52.46-.36.68-.82.68-1.39,0-.42-.12-.76-.36-1.05-.22-.28-.64-.54-1.21-.78-.46-.18-.74-.32-.88-.44s-.2-.3-.2-.5.08-.34.22-.48c.14-.1.36-.16.64-.16.24,0,.5.04.76.14.26.1.48.22.68.34v-1.41c-.18-.06-.42-.12-.68-.18-.26-.06-.5-.08-.72-.08-.7,0-1.27.18-1.71.54-.44.36-.66.82-.66,1.37,0,.44.12.8.34,1.07.22.28.6.54,1.13.76.44.18.76.34.92.48.16.16.24.32.24.52,0,.22-.08.36-.24.46-.14.1-.4.14-.72.14-.26,0-.54-.06-.84-.16-.3-.1-.6-.26-.86-.44v1.43c.22.1.48.18.8.24.32.06.6.1.86.1Z"/>
  <rect class="cls-1" x="66.71" y="39.27" width="1.45" height="6.17"/>
  <path class="cls-1" d="M93.6,45.6c.99,0,1.77-.3,2.35-.9.56-.6.86-1.39.86-2.39s-.28-1.75-.82-2.33c-.54-.58-1.29-.86-2.25-.86-1.01,0-1.81.3-2.39.9-.56.6-.86,1.41-.86,2.43,0,.96.3,1.73.84,2.31.56.56,1.31.84,2.27.84ZM92.48,40.86c.3-.36.7-.54,1.23-.54.5,0,.92.18,1.19.52.28.36.42.86.42,1.51s-.14,1.17-.42,1.51c-.28.36-.7.52-1.21.52s-.96-.18-1.25-.52c-.3-.34-.44-.84-.44-1.47s.16-1.15.48-1.53Z"/>
  <polygon class="cls-1" points="57.4 38.69 57.42 38.69 60.15 45.44 61.14 45.44 63.81 38.69 63.83 38.69 63.83 45.44 65.32 45.44 65.32 36.84 63.29 36.84 60.69 43.21 60.65 43.21 58.18 36.84 56.03 36.84 56.03 45.44 57.4 45.44 57.4 38.69"/>
  <path class="cls-1" d="M72.23,45.58c.36,0,.68-.04.98-.1.3-.06.56-.16.8-.3v-1.35c-.22.16-.46.3-.72.4-.26.12-.5.16-.72.16-.58,0-1.03-.18-1.37-.52-.34-.34-.52-.84-.52-1.45s.16-1.13.52-1.51.82-.56,1.39-.56c.24,0,.48.06.72.14.22.08.46.22.68.38v-1.39c-.16-.08-.38-.18-.66-.24-.26-.06-.54-.1-.82-.1-1.07,0-1.89.32-2.47.96-.58.64-.88,1.45-.88,2.45,0,.88.28,1.61.86,2.19.56.58,1.29.86,2.21.86Z"/>
  <path class="cls-1" d="M67.43,38.33c.26,0,.46-.08.64-.24s.26-.36.26-.6-.1-.44-.26-.6c-.16-.16-.38-.24-.64-.24-.24,0-.44.08-.62.24-.18.16-.26.36-.26.6,0,.22.1.42.26.6.16.16.36.24.62.24Z"/>
  <path class="cls-1" d="M98,45.44h1.47v-4.97h2.17l-.02,3.14c0,.66.16,1.15.46,1.47.3.32.76.48,1.37.48.22,0,.42-.02.64-.06.22-.04.36-.08.46-.14v-1.19c-.08.06-.18.1-.3.14s-.22.06-.3.06c-.3,0-.52-.08-.66-.24-.12-.16-.2-.42-.2-.8v-2.89h1.47v-1.19h-1.47v-1.83l-1.45.44v1.39h-2.17v-.74c0-.36.08-.66.24-.84.16-.18.4-.28.7-.28.16,0,.3.02.42.06.12.04.22.08.26.1v-1.25c-.1-.04-.22-.08-.36-.08s-.3-.02-.48-.02c-.66,0-1.19.2-1.61.62-.42.42-.64.96-.64,1.59v.86h-1.03v1.19h1.03v4.97Z"/>
  <path class="cls-1" d="M76.53,42.33c0-.64.14-1.09.38-1.39.24-.3.54-.46.9-.46.22,0,.38.04.54.08.16.04.26.1.34.16v-1.47c-.06-.02-.14-.04-.24-.06s-.2-.02-.32-.02c-.38,0-.7.1-.98.28-.26.2-.46.46-.6.8h-.02v-.98h-1.45v6.17h1.45v-3.1Z"/>
  <path class="cls-1" d="M81.86,45.6c.99,0,1.77-.3,2.35-.9.56-.6.86-1.39.86-2.39s-.28-1.75-.82-2.33c-.54-.58-1.29-.86-2.25-.86-1.01,0-1.81.3-2.39.9-.56.6-.86,1.41-.86,2.43,0,.96.28,1.73.84,2.31.56.56,1.31.84,2.27.84ZM80.74,40.86c.3-.36.7-.54,1.23-.54.5,0,.92.18,1.19.52.28.36.42.86.42,1.51s-.14,1.17-.42,1.51c-.28.36-.7.52-1.21.52s-.96-.18-1.25-.52c-.3-.34-.44-.84-.44-1.47s.14-1.15.48-1.53Z"/>
  <rect class="cls-1" x="37.38" y="33.97" width="6.81" height="6.81"/>
  <rect class="cls-1" x="44.9" y="33.97" width="6.81" height="6.81"/>
  <rect class="cls-1" x="37.38" y="41.5" width="6.81" height="6.81"/>
  <rect class="cls-1" x="44.9" y="41.5" width="6.81" height="6.81"/>
  <path class="cls-1" d="M42.82,65.59c.26-.37.39-.8.39-1.29,0-.72-.23-1.28-.7-1.67-.46-.39-1.12-.59-1.97-.59h-2.68v9.31h2.71c.9,0,1.62-.25,2.18-.74s.84-1.14.84-1.94c0-.57-.16-1.06-.47-1.46-.31-.41-.75-.68-1.31-.81v-.03c.4-.16.73-.42,1-.79ZM41.9,67.43c.38.28.56.69.56,1.24s-.17.94-.5,1.25c-.34.3-.83.45-1.49.45h-1.51v-3.35h1.25c.75,0,1.31.14,1.69.41ZM41.55,65.63c-.35.27-.82.41-1.42.41h-1.17v-3.01h1.48c.52,0,.92.12,1.21.35.28.24.42.59.42,1.05,0,.53-.17.93-.53,1.2Z"/>
  <path class="cls-1" d="M47.66,71.51c.68,0,1.26-.15,1.73-.44s.82-.68,1.06-1.16l-.87-.44c-.2.37-.46.65-.77.84s-.67.28-1.08.28c-.54,0-1.01-.19-1.4-.57s-.59-.98-.59-1.8h4.8v-.56c0-.98-.25-1.74-.75-2.29s-1.2-.82-2.1-.82-1.62.33-2.2,1c-.57.66-.86,1.5-.86,2.51,0,1.13.28,1.99.85,2.58.57.58,1.29.88,2.17.88ZM46.36,66c.34-.35.78-.53,1.31-.53s.99.17,1.31.5c.32.33.47.79.47,1.36h-3.7c.06-.53.27-.97.61-1.32Z"/>
  <path class="cls-1" d="M53.94,68.42c.45.1.78.24.99.43.21.19.32.41.32.67,0,.34-.12.6-.36.79-.24.18-.54.27-.91.27s-.7-.07-.96-.22c-.26-.15-.47-.39-.61-.71l-.91.4c.19.44.5.8.91,1.06.41.27.94.4,1.58.4s1.16-.18,1.61-.54c.45-.36.67-.86.67-1.51,0-.53-.17-.96-.51-1.3-.34-.33-.87-.58-1.59-.74-.55-.13-.92-.26-1.11-.41-.19-.15-.28-.35-.28-.63,0-.29.11-.52.34-.68s.51-.25.85-.25.63.06.85.18c.22.12.39.3.52.55l.87-.4c-.19-.42-.49-.74-.89-.94-.4-.2-.84-.31-1.33-.31-.61,0-1.13.17-1.56.51-.44.34-.65.82-.65,1.45,0,.44.15.82.45,1.15.3.33.87.58,1.71.77Z"/>
  <path class="cls-1" d="M57.98,63.13v1.57h-1.14v.91h1.14v4.19c0,.55.14.96.43,1.26.29.29.69.44,1.21.44.32,0,.59-.05.83-.14.23-.09.45-.23.64-.43l-.54-.69c-.13.15-.25.25-.37.3s-.24.08-.37.08c-.26,0-.45-.07-.57-.21-.12-.14-.18-.37-.18-.69v-4.1h1.78v-.91h-1.78v-1.76l-1.07.19Z"/>
  <polygon class="cls-1" points="67.13 67.23 70.5 67.23 70.5 66.25 67.13 66.25 67.13 63.03 70.77 63.03 70.77 62.04 66.04 62.04 66.04 71.35 67.13 71.35 67.13 67.23"/>
  <rect class="cls-1" x="72.22" y="64.7" width="1.07" height="6.65"/>
  <path class="cls-1" d="M72.76,61.65c-.23,0-.42.08-.56.23-.14.15-.21.33-.21.54s.07.39.21.54c.14.15.33.23.56.23s.42-.08.56-.23c.14-.15.21-.33.21-.54s-.07-.39-.21-.54c-.14-.15-.33-.23-.56-.23Z"/>
  <path class="cls-1" d="M75.44,71.35l1.36-2.04c.1-.15.18-.26.23-.35.05-.09.08-.14.09-.16h.03c.06.1.11.2.16.28.05.08.09.16.14.23l1.33,2.04h1.21l-2.2-3.29,2.23-3.36h-1.15l-1.38,2.15c-.06.09-.11.17-.16.26-.05.09-.1.17-.15.26h-.03c-.05-.09-.09-.17-.14-.26-.04-.09-.09-.17-.14-.26l-1.31-2.15h-1.21l2.17,3.39-2.27,3.26h1.19Z"/>
  <path class="cls-1" d="M84.39,66.13l.93.38c.14-.33.35-.59.62-.77s.61-.28,1.02-.28c.43,0,.77.12,1.02.36s.37.6.37,1.08v.42l-1.92.22c-.7.08-1.25.3-1.64.64s-.58.83-.58,1.45c0,.53.19.98.56,1.33.37.35.89.53,1.56.53.42,0,.79-.09,1.14-.27.34-.18.63-.44.85-.77h.03v.88h1.07v-4.45c0-.75-.21-1.32-.62-1.74-.41-.41-1.01-.62-1.78-.62-.63,0-1.17.14-1.62.42-.45.28-.79.67-1,1.17ZM88.36,68.65c0,.58-.17,1.05-.5,1.43-.34.37-.78.56-1.32.56-.36,0-.66-.1-.88-.31-.23-.21-.34-.48-.34-.82,0-.31.1-.56.29-.75.2-.19.5-.31.91-.35l1.84-.21v.45Z"/>
  <path class="cls-1" d="M91.17,64.7v6.65h1.07v-3.79c0-.6.17-1.1.52-1.5s.8-.59,1.37-.59c.5,0,.88.16,1.13.48.25.32.37.8.37,1.46v3.95h1.07v-4.07c0-.89-.19-1.57-.58-2.04-.38-.47-.94-.7-1.67-.7-.48,0-.9.09-1.26.28-.36.18-.67.46-.92.83h-.03v-.95h-1.07Z"/>
  <path class="cls-1" d="M104.22,71.35v-9.85h-1.07v3.96h-.03c-.2-.29-.48-.51-.83-.68s-.75-.25-1.2-.25c-.93,0-1.68.32-2.25.97s-.86,1.54-.86,2.66c0,1.03.25,1.84.76,2.43.51.6,1.23.89,2.16.89.47,0,.89-.1,1.28-.29.38-.19.7-.47.95-.84h.03v.97h1.07ZM102.58,69.95c-.38.42-.89.64-1.54.64-.62,0-1.1-.22-1.45-.66-.35-.44-.52-1.04-.52-1.79,0-.87.19-1.53.57-1.98.38-.46.89-.68,1.54-.68.58,0,1.05.18,1.42.55.37.37.55.82.55,1.34v.98c0,.65-.19,1.18-.57,1.6Z"/>
  <path class="cls-1" d="M33.28,87.47c1.32,0,2.4-.45,3.21-1.36s1.23-2.1,1.23-3.57-.39-2.55-1.18-3.41-1.82-1.29-3.1-1.29c-1.36,0-2.47.45-3.31,1.35-.84.9-1.26,2.09-1.26,3.58,0,1.4.41,2.53,1.22,3.4.81.87,1.88,1.3,3.2,1.3ZM30.93,79.9c.62-.69,1.43-1.04,2.43-1.04s1.74.35,2.33,1.05.89,1.63.89,2.78-.3,2.03-.91,2.73-1.4,1.05-2.39,1.05-1.76-.35-2.37-1.05c-.6-.7-.91-1.61-.91-2.74s.31-2.07.92-2.77Z"/>
  <path class="cls-1" d="M41.63,85.44c-.04.11-.08.21-.11.3-.03.09-.07.2-.11.34h-.03c-.04-.14-.08-.25-.11-.33s-.07-.2-.11-.33l-1.69-4.75h-1.17l2.52,6.65h1.05l2.65-6.65h-1.12l-1.77,4.78Z"/>
  <path class="cls-1" d="M51.02,83.62c0-.98-.25-1.74-.75-2.29s-1.2-.82-2.1-.82-1.62.33-2.2,1c-.57.66-.86,1.5-.86,2.51,0,1.13.28,1.99.85,2.58.57.58,1.29.88,2.17.88.68,0,1.26-.15,1.73-.44s.82-.68,1.06-1.16l-.87-.44c-.2.37-.46.65-.77.84s-.67.28-1.08.28c-.54,0-1.01-.19-1.4-.57s-.59-.98-.59-1.8h4.8v-.56ZM46.23,83.29c.06-.53.27-.97.61-1.32.34-.35.78-.53,1.31-.53s.99.17,1.31.5c.32.33.47.79.47,1.36h-3.7Z"/>
  <path class="cls-1" d="M52.37,80.66v6.65h1.07v-3.39c0-.71.15-1.29.44-1.74.3-.45.68-.68,1.16-.68.15,0,.28.02.4.05s.23.07.33.12l.4-.9c-.18-.09-.34-.14-.49-.17-.14-.03-.3-.04-.48-.04-.39,0-.73.12-1.05.35s-.54.56-.7.98h-.03v-1.21h-1.07Z"/>
  <path class="cls-1" d="M58.95,83.51c-.7.08-1.25.3-1.64.64s-.58.83-.58,1.45c0,.53.19.98.56,1.33.37.35.89.53,1.56.53.42,0,.79-.09,1.14-.27.34-.18.63-.44.85-.77h.03v.88h1.07v-4.45c0-.75-.21-1.32-.62-1.74-.41-.41-1.01-.62-1.78-.62-.63,0-1.17.14-1.62.42-.45.28-.79.67-1,1.17l.93.38c.14-.33.35-.59.62-.77s.61-.28,1.02-.28c.43,0,.77.12,1.02.36s.37.6.37,1.08v.42l-1.92.22ZM60.87,84.61c0,.58-.17,1.05-.5,1.43-.34.37-.78.56-1.32.56-.36,0-.66-.1-.88-.31-.23-.21-.34-.48-.34-.82,0-.31.1-.56.29-.75.2-.19.5-.31.91-.35l1.84-.21v.45Z"/>
  <rect class="cls-1" x="63.68" y="77.47" width="1.07" height="9.85"/>
  <rect class="cls-1" x="66.64" y="77.47" width="1.07" height="9.85"/>
  <path class="cls-1" d="M76.35,87.31l1.93-6.7c.03-.11.06-.21.08-.31.02-.1.05-.22.08-.36h.03c.02.13.04.25.07.35.03.1.06.21.09.34l1.92,6.69h1.18l2.59-9.31h-1.07l-1.93,7.03c-.04.14-.07.25-.09.34-.02.09-.05.2-.08.33h-.03c-.03-.14-.06-.25-.08-.34-.02-.09-.05-.2-.09-.34l-1.98-7.02h-.97l-2.02,7.02c-.04.16-.08.28-.1.36-.02.08-.05.19-.09.31h-.03c-.03-.12-.05-.23-.08-.31-.02-.09-.06-.21-.1-.36l-2.02-7.02h-1.16l2.73,9.31h1.22Z"/>
  <path class="cls-1" d="M86.77,78.39c0-.21-.07-.39-.21-.54-.14-.15-.33-.23-.56-.23s-.42.08-.56.23c-.14.15-.21.33-.21.54s.07.39.21.54c.14.15.33.23.56.23s.42-.08.56-.23c.14-.15.21-.33.21-.54Z"/>
  <rect class="cls-1" x="85.45" y="80.66" width="1.07" height="6.65"/>
  <path class="cls-1" d="M89.42,81.61h-.03v-.95h-1.07v6.65h1.07v-3.79c0-.6.17-1.1.52-1.5s.8-.59,1.37-.59c.5,0,.88.16,1.13.48.25.32.37.8.37,1.46v3.95h1.07v-4.07c0-.89-.19-1.57-.58-2.04-.38-.47-.94-.7-1.67-.7-.48,0-.9.09-1.26.28-.36.18-.67.46-.92.83Z"/>
  <path class="cls-1" d="M96.69,81.61h-.03v-.95h-1.07v6.65h1.07v-3.79c0-.6.17-1.1.52-1.5s.8-.59,1.37-.59c.5,0,.88.16,1.13.48.25.32.37.8.37,1.46v3.95h1.07v-4.07c0-.89-.19-1.57-.58-2.04-.38-.47-.94-.7-1.67-.7-.48,0-.9.09-1.26.28-.36.18-.67.46-.92.83Z"/>
  <path class="cls-1" d="M102.41,84.01c0,1.13.28,1.99.85,2.58.57.58,1.29.88,2.17.88.68,0,1.26-.15,1.73-.44s.82-.68,1.06-1.16l-.87-.44c-.2.37-.46.65-.77.84s-.67.28-1.08.28c-.54,0-1.01-.19-1.4-.57s-.59-.98-.59-1.8h4.8v-.56c0-.98-.25-1.74-.75-2.29s-1.2-.82-2.1-.82-1.62.33-2.2,1c-.57.66-.86,1.5-.86,2.51ZM104.13,81.96c.34-.35.78-.53,1.31-.53s.99.17,1.31.5c.32.33.47.79.47,1.36h-3.7c.06-.53.27-.97.61-1.32Z"/>
  <path class="cls-1" d="M110.73,83.92c0-.71.15-1.29.44-1.74.3-.45.68-.68,1.16-.68.15,0,.28.02.4.05s.23.07.33.12l.4-.9c-.18-.09-.34-.14-.49-.17-.14-.03-.3-.04-.48-.04-.39,0-.73.12-1.05.35s-.54.56-.7.98h-.03v-1.21h-1.07v6.65h1.07v-3.39Z"/>
  <path class="cls-1" d="M57.21,105.51v-2.26c0-.38-.3-.68-.68-.68h-19.75c-1.24,0-1.99,1.37-1.32,2.42l3.7,5.73c.33.52.33,1.18,0,1.7l-3.7,5.73c-.67,1.04.08,2.42,1.32,2.42h9.62c.38,0,.68-.3.68-.68v-11.84c0-1.03.83-1.86,1.86-1.86h7.6c.38,0,.68-.3.68-.68Z"/>
  <path class="cls-1" d="M106.49,104.99c.67-1.04-.08-2.42-1.32-2.42h-19.75c-.38,0-.68.3-.68.68v2.26c0,.38.3.68.68.68h7.6c1.03,0,1.86.83,1.86,1.86v11.84c0,.38.3.68.68.68h9.62c1.24,0,1.99-1.37,1.32-2.42l-3.7-5.73c-.33-.52-.33-1.18,0-1.7l3.7-5.73Z"/>
  <path class="cls-1" d="M90.63,108.64h-39.92c-.65,0-1.18.53-1.18,1.18v15.63c0,.65.53,1.18,1.18,1.18h39.92c.65,0,1.18-.53,1.18-1.18v-15.63c0-.65-.53-1.18-1.18-1.18ZM65.68,114.58c0,.07-.06.13-.13.13h-2.65c-.07,0-.13.06-.13.13v1.18c0,.07.06.13.13.13h2.29c.07,0,.13.06.13.13v2.4c0,.07-.06.13-.13.13h-2.29c-.07,0-.13.06-.13.13v3.84c0,.07-.06.13-.13.13h-2.39c-.07,0-.13-.06-.13-.13v-10.6h0c0-.07.06-.13.13-.13h5.3c.07,0,.13.06.13.13v2.4ZM74.9,122.78c0,.07-.06.13-.13.13h-2.41c-.07,0-.13-.06-.13-.13v-3.84c0-.07-.06-.13-.13-.13h-1.1c-.07,0-.13.06-.13.13v3.84c0,.07-.06.13-.13.13h-2.4c-.07,0-.13-.06-.13-.13v-10.6c0-.07.06-.13.13-.13h2.4c.07,0,.13.06.13.13v3.84c0,.07.06.13.13.13h1.1c.07,0,.13-.06.13-.13v-3.84c0-.07.06-.13.13-.13h2.41c.07,0,.13.06.13.13v10.6ZM83.62,122.78c0,.07-.06.13-.13.13h-5.3c-.07,0-.13-.06-.13-.13v-10.6c0-.07.06-.13.13-.13h2.41c.07,0,.13.06.13.13v7.94h0c0,.07.06.13.13.13h2.63c.07,0,.13.06.13.13v2.4Z"/>
</svg>