<?xml version="1.0" encoding="utf-8"?>
<!-- Generator: Adobe Illustrator 26.5.3, SVG Export Plug-In . SVG Version: 6.00 Build 0)  -->
<svg version="1.1" id="Layer_1" xmlns="http://www.w3.org/2000/svg" xmlns:xlink="http://www.w3.org/1999/xlink" x="0px" y="0px"
	 viewBox="0 0 245 85.1" style="enable-background:new 0 0 245 85.1;" xml:space="preserve">
<style type="text/css">
	.st0{fill:#494949;}
</style>
<polygon class="st0" points="48.4,7.6 48.4,11.9 52.7,11.9 52.7,23.1 58.1,23.1 58.1,11.9 62.3,11.9 62.3,7.6 "/>
<rect x="39.6" y="7.6" class="st0" width="5.4" height="15.5"/>
<polygon class="st0" points="27.1,7.6 24.8,16.2 24.3,18.9 24.1,18.9 23.6,16.2 21.1,7.6 13.7,7.6 13.7,23.1 18.3,23.1 18.3,15 
	18.1,12.2 18.4,12.2 21.5,23.1 26.8,23.1 29.8,12.1 30.1,12.1 29.9,15.2 29.9,23.1 34.6,23.1 34.6,7.6 "/>
<g>
	<g>
		<path class="st0" d="M105.8,43h-3.3v12.5h3.3v6h-16v-6h3.3V43l-3.3,0v-6h16V43z M78.1,61.5L77,57.8h-6.9l-1.1,3.7h-9.6L68.5,37H79
			l8.9,24.4H78.1z M46.6,62.1c-3.4,0-7.4-0.6-8.8-1v-6.9c1.8,0.7,4.6,1.2,7.4,1.2c2.4,0,3.3-0.3,3.3-1.5c0-1-0.8-1.2-3.3-1.6
			c-3.5-0.6-7.5-1.5-7.5-7.2c0-5.3,3.6-8.6,11.4-8.6c3.6,0,7.1,0.7,8.4,1.1v6.3c-2.6-0.6-4.9-0.9-7.2-0.9c-1.2,0-2.7,0.1-2.7,1.2
			c0,1,0.9,1.2,4,1.8c3.9,0.8,6.9,2.1,6.9,6.9C58.4,57.2,55.8,62.1,46.6,62.1 M110.3,37h9.4v17.1h9.6l8-35.7L109,9.5v14
			c-3.6-1.6-10.9-3.4-18.7-3.4c-7.6,0-15.4,1.4-18.5,3.7l-2.6,7L11,27l2.5,17.4c1.6-4.7,5.8-7.9,13.7-7.9c2.6,0,5.3,0.5,6.7,0.8v7.1
			c-0.9-0.3-3.2-0.6-5.3-0.6c-3.5,0-6.1,1.3-6.1,5.4c0,4.7,3.3,5.7,6.6,5.7c1.7,0,2.8-0.1,4.8-0.6v6.9c-2.4,0.7-4.1,0.9-6.9,0.9
			c-5.8,0-9.4-1.7-11.6-4.3l2.6,18.4l37.4-7.7L54,71.8c2.8,2.7,12.4,4.9,23.1,4.9c9.2,0,24-2,31.8-4.5v7.5l15.5-4l3.2-14.3h-17.4V37
			z"/>
	</g>
</g>
<polygon class="st0" points="73.7,43.2 73.4,43.2 72.9,45.8 71.2,52.1 75.9,52.1 74.2,45.8 "/>
<g>
	<path class="st0" d="M141.8,39.5h1v3.5h4.4v-3.5h1v8.2h-1v-3.8h-4.4v3.8h-1V39.5z"/>
	<path class="st0" d="M154.6,46.4c0,0.2,0,0.5,0,0.7c0,0.2,0,0.4,0,0.6h-0.9c0-0.1,0-0.3,0-0.4c0-0.1,0-0.3,0-0.5h0
		c-0.1,0.1-0.1,0.3-0.3,0.4c-0.1,0.1-0.2,0.2-0.4,0.3c-0.2,0.1-0.3,0.2-0.5,0.2c-0.2,0.1-0.4,0.1-0.6,0.1c-0.4,0-0.7-0.1-0.9-0.2
		c-0.3-0.1-0.5-0.3-0.6-0.5c-0.2-0.2-0.3-0.4-0.4-0.7s-0.1-0.6-0.1-0.9v-3.3h0.9v3.2c0,0.5,0.1,0.8,0.3,1.1s0.5,0.4,0.9,0.4
		c0.3,0,0.5,0,0.8-0.2c0.2-0.1,0.4-0.2,0.5-0.4c0.1-0.2,0.2-0.4,0.3-0.7s0.1-0.5,0.1-0.8v-2.6h0.9V46.4z"/>
	<path class="st0" d="M156.4,43.5c0-0.2,0-0.5,0-0.7c0-0.2,0-0.4,0-0.6h0.9c0,0.1,0,0.3,0,0.4c0,0.1,0,0.3,0,0.5h0
		c0.1-0.1,0.1-0.3,0.3-0.4c0.1-0.1,0.2-0.2,0.4-0.3c0.2-0.1,0.3-0.2,0.5-0.2s0.4-0.1,0.6-0.1c0.3,0,0.5,0,0.7,0.1
		c0.2,0.1,0.4,0.2,0.5,0.3s0.2,0.2,0.3,0.3c0.1,0.1,0.1,0.2,0.2,0.3c0.2-0.3,0.4-0.6,0.7-0.8c0.3-0.2,0.6-0.3,1-0.3
		c0.4,0,0.7,0.1,1,0.2s0.5,0.3,0.6,0.5c0.2,0.2,0.3,0.4,0.3,0.7s0.1,0.6,0.1,0.9v3.3h-0.9v-3.2c0-0.2,0-0.4-0.1-0.5
		s-0.1-0.3-0.2-0.5c-0.1-0.1-0.2-0.3-0.4-0.3c-0.2-0.1-0.4-0.1-0.6-0.1c-0.2,0-0.4,0-0.5,0.1c-0.2,0.1-0.3,0.2-0.4,0.3
		c-0.1,0.1-0.2,0.3-0.3,0.5s-0.1,0.4-0.1,0.7v3.1H160v-3.1c0-0.6-0.1-1-0.2-1.3c-0.2-0.2-0.4-0.4-0.8-0.4c-0.3,0-0.5,0.1-0.8,0.2
		s-0.4,0.2-0.5,0.4c-0.1,0.2-0.2,0.4-0.3,0.7c-0.1,0.3-0.1,0.5-0.1,0.8v2.6h-0.9V43.5z"/>
	<path class="st0" d="M166.1,42.9c0.3-0.3,0.6-0.5,1-0.6c0.4-0.1,0.8-0.2,1.2-0.2c0.8,0,1.4,0.2,1.7,0.6s0.5,1,0.5,1.7v2.3
		c0,0.2,0,0.3,0,0.5c0,0.2,0,0.3,0.1,0.5h-0.9c0-0.1,0-0.3-0.1-0.4c0-0.2,0-0.3,0-0.4h0c-0.2,0.3-0.4,0.5-0.7,0.7
		c-0.3,0.2-0.7,0.3-1.1,0.3c-0.3,0-0.5,0-0.8-0.1c-0.2-0.1-0.5-0.2-0.6-0.3c-0.2-0.1-0.3-0.3-0.4-0.5c-0.1-0.2-0.2-0.4-0.2-0.7
		c0-0.4,0.1-0.8,0.3-1.1c0.2-0.3,0.5-0.4,0.9-0.6c0.3-0.1,0.7-0.2,1.1-0.2c0.4,0,0.8,0,1.1,0h0.3v-0.2c0-0.4-0.1-0.7-0.4-0.9
		c-0.2-0.2-0.6-0.3-1-0.3c-0.3,0-0.6,0-0.9,0.1s-0.5,0.2-0.7,0.4L166.1,42.9z M168.7,45.1c-0.6,0-1,0.1-1.4,0.2
		c-0.3,0.2-0.5,0.4-0.5,0.8c0,0.3,0.1,0.6,0.3,0.7s0.5,0.2,0.8,0.2c0.3,0,0.5,0,0.7-0.1c0.2-0.1,0.4-0.2,0.5-0.4
		c0.1-0.1,0.2-0.3,0.3-0.5c0.1-0.2,0.1-0.4,0.1-0.6v-0.3H168.7z"/>
	<path class="st0" d="M172.2,43.5c0-0.2,0-0.5,0-0.7c0-0.2,0-0.4,0-0.6h0.9c0,0.1,0,0.3,0,0.4c0,0.1,0,0.3,0,0.5h0
		c0.1-0.1,0.1-0.3,0.3-0.4c0.1-0.1,0.2-0.2,0.4-0.3c0.2-0.1,0.3-0.2,0.5-0.2s0.4-0.1,0.6-0.1c0.4,0,0.7,0.1,0.9,0.2
		c0.3,0.1,0.5,0.3,0.6,0.5c0.2,0.2,0.3,0.4,0.4,0.7c0.1,0.3,0.1,0.6,0.1,0.9v3.3H176v-3.2c0-0.5-0.1-0.8-0.3-1.1s-0.5-0.4-0.9-0.4
		c-0.3,0-0.5,0.1-0.8,0.2s-0.4,0.2-0.5,0.4c-0.1,0.2-0.2,0.4-0.3,0.7c-0.1,0.3-0.1,0.5-0.1,0.8v2.6h-0.9V43.5z"/>
	<path class="st0" d="M178.3,44.5h2.8v0.8h-2.8V44.5z"/>
	<path class="st0" d="M188.4,41.2c-0.2-0.3-0.6-0.6-0.9-0.7s-0.7-0.2-1.1-0.2c-0.5,0-0.9,0.1-1.3,0.3c-0.4,0.2-0.7,0.4-1,0.7
		s-0.5,0.7-0.6,1.1c-0.2,0.4-0.2,0.8-0.2,1.3c0,0.5,0.1,0.9,0.2,1.3c0.2,0.4,0.4,0.8,0.6,1.1c0.3,0.3,0.6,0.5,1,0.7s0.8,0.3,1.3,0.3
		c0.5,0,0.9-0.1,1.3-0.3c0.4-0.2,0.7-0.5,1-0.8l0.7,0.6c-0.4,0.5-0.8,0.9-1.3,1.1c-0.5,0.2-1.1,0.3-1.8,0.3c-0.6,0-1.1-0.1-1.6-0.3
		c-0.5-0.2-0.9-0.5-1.3-0.9c-0.4-0.4-0.7-0.8-0.9-1.4c-0.2-0.5-0.3-1.1-0.3-1.7c0-0.6,0.1-1.2,0.3-1.7c0.2-0.5,0.5-1,0.9-1.4
		s0.8-0.7,1.3-0.9c0.5-0.2,1.1-0.3,1.7-0.3c0.6,0,1.1,0.1,1.6,0.3c0.5,0.2,0.9,0.5,1.3,1L188.4,41.2z"/>
	<path class="st0" d="M190.3,45c0-0.4,0.1-0.8,0.2-1.2s0.3-0.6,0.6-0.9c0.3-0.2,0.6-0.4,0.9-0.6s0.7-0.2,1.2-0.2s0.8,0.1,1.2,0.2
		s0.7,0.3,0.9,0.6c0.3,0.3,0.5,0.5,0.6,0.9s0.2,0.7,0.2,1.2s-0.1,0.8-0.2,1.2c-0.1,0.3-0.3,0.6-0.6,0.9c-0.3,0.2-0.6,0.4-0.9,0.6
		s-0.7,0.2-1.2,0.2s-0.8-0.1-1.2-0.2s-0.7-0.3-0.9-0.6c-0.3-0.3-0.5-0.5-0.6-0.9C190.4,45.8,190.3,45.4,190.3,45z M191.3,45
		c0,0.3,0,0.5,0.1,0.8c0.1,0.2,0.2,0.5,0.4,0.6c0.2,0.2,0.4,0.3,0.6,0.4c0.2,0.1,0.5,0.2,0.8,0.2s0.6-0.1,0.8-0.2
		c0.2-0.1,0.4-0.2,0.6-0.4c0.2-0.2,0.3-0.4,0.4-0.6c0.1-0.2,0.1-0.5,0.1-0.8s0-0.5-0.1-0.8s-0.2-0.5-0.4-0.6
		c-0.2-0.2-0.4-0.3-0.6-0.4c-0.2-0.1-0.5-0.2-0.8-0.2s-0.6,0.1-0.8,0.2c-0.2,0.1-0.4,0.2-0.6,0.4c-0.2,0.2-0.3,0.4-0.4,0.6
		S191.3,44.7,191.3,45z"/>
	<path class="st0" d="M197.5,43.5c0-0.2,0-0.5,0-0.7c0-0.2,0-0.4,0-0.6h0.9c0,0.1,0,0.3,0,0.4c0,0.1,0,0.3,0,0.5h0
		c0.1-0.1,0.1-0.3,0.3-0.4c0.1-0.1,0.2-0.2,0.4-0.3c0.2-0.1,0.3-0.2,0.5-0.2s0.4-0.1,0.6-0.1c0.3,0,0.5,0,0.7,0.1
		c0.2,0.1,0.4,0.2,0.5,0.3s0.2,0.2,0.3,0.3c0.1,0.1,0.1,0.2,0.2,0.3c0.2-0.3,0.4-0.6,0.7-0.8c0.3-0.2,0.6-0.3,1-0.3
		c0.4,0,0.7,0.1,1,0.2s0.5,0.3,0.6,0.5c0.2,0.2,0.3,0.4,0.3,0.7s0.1,0.6,0.1,0.9v3.3h-0.9v-3.2c0-0.2,0-0.4-0.1-0.5
		s-0.1-0.3-0.2-0.5c-0.1-0.1-0.2-0.3-0.4-0.3c-0.2-0.1-0.4-0.1-0.6-0.1c-0.2,0-0.4,0-0.5,0.1c-0.2,0.1-0.3,0.2-0.4,0.3
		c-0.1,0.1-0.2,0.3-0.3,0.5s-0.1,0.4-0.1,0.7v3.1h-0.9v-3.1c0-0.6-0.1-1-0.2-1.3c-0.2-0.2-0.4-0.4-0.8-0.4c-0.3,0-0.5,0.1-0.8,0.2
		s-0.4,0.2-0.5,0.4c-0.1,0.2-0.2,0.4-0.3,0.7c-0.1,0.3-0.1,0.5-0.1,0.8v2.6h-0.9V43.5z"/>
	<path class="st0" d="M207.3,42.2h0.9V43h0c0.2-0.3,0.5-0.5,0.9-0.7c0.3-0.2,0.7-0.2,1.1-0.2c0.4,0,0.8,0.1,1.2,0.2
		c0.3,0.1,0.6,0.3,0.9,0.6c0.2,0.3,0.4,0.6,0.6,0.9s0.2,0.7,0.2,1.1s-0.1,0.8-0.2,1.1s-0.3,0.6-0.6,0.9c-0.2,0.3-0.5,0.5-0.9,0.6
		s-0.7,0.2-1.1,0.2c-0.5,0-0.9-0.1-1.3-0.3c-0.4-0.2-0.6-0.5-0.8-0.8h0v3.6h-0.9V42.2z M208.2,45c0,0.3,0,0.5,0.1,0.8
		c0.1,0.2,0.2,0.5,0.4,0.6c0.2,0.2,0.4,0.3,0.6,0.4c0.2,0.1,0.5,0.2,0.8,0.2s0.6-0.1,0.8-0.2c0.2-0.1,0.4-0.2,0.6-0.4
		c0.2-0.2,0.3-0.4,0.4-0.6c0.1-0.2,0.1-0.5,0.1-0.8s0-0.5-0.1-0.8s-0.2-0.5-0.4-0.6c-0.2-0.2-0.4-0.3-0.6-0.4
		c-0.2-0.1-0.5-0.2-0.8-0.2s-0.6,0.1-0.8,0.2c-0.2,0.1-0.4,0.2-0.6,0.4c-0.2,0.2-0.3,0.4-0.4,0.6S208.2,44.7,208.2,45z"/>
	<path class="st0" d="M219.1,46.4c0,0.2,0,0.5,0,0.7c0,0.2,0,0.4,0,0.6h-0.9c0-0.1,0-0.3,0-0.4c0-0.1,0-0.3,0-0.5h0
		c-0.1,0.1-0.1,0.3-0.3,0.4c-0.1,0.1-0.2,0.2-0.4,0.3c-0.2,0.1-0.3,0.2-0.5,0.2c-0.2,0.1-0.4,0.1-0.6,0.1c-0.4,0-0.7-0.1-0.9-0.2
		c-0.3-0.1-0.5-0.3-0.6-0.5c-0.2-0.2-0.3-0.4-0.4-0.7s-0.1-0.6-0.1-0.9v-3.3h0.9v3.2c0,0.5,0.1,0.8,0.3,1.1s0.5,0.4,0.9,0.4
		c0.3,0,0.5,0,0.8-0.2c0.2-0.1,0.4-0.2,0.5-0.4c0.1-0.2,0.2-0.4,0.3-0.7s0.1-0.5,0.1-0.8v-2.6h0.9V46.4z"/>
	<path class="st0" d="M223.8,43h-1.6v2.7c0,0.2,0,0.3,0,0.5c0,0.2,0,0.3,0.1,0.4c0.1,0.1,0.1,0.2,0.2,0.3c0.1,0.1,0.3,0.1,0.5,0.1
		c0.1,0,0.3,0,0.4,0c0.1,0,0.3-0.1,0.4-0.1l0,0.8c-0.2,0.1-0.3,0.1-0.5,0.2c-0.2,0-0.4,0-0.5,0c-0.3,0-0.6,0-0.8-0.1
		s-0.3-0.2-0.5-0.4c-0.1-0.2-0.2-0.3-0.2-0.6c0-0.2-0.1-0.5-0.1-0.8v-3h-1.2v-0.8h1.2v-1.5h0.9v1.5h1.6V43z"/>
	<path class="st0" d="M229.7,46.7c-0.3,0.4-0.7,0.7-1.1,0.9c-0.4,0.2-0.8,0.2-1.3,0.2c-0.4,0-0.8-0.1-1.1-0.2s-0.6-0.4-0.9-0.6
		c-0.2-0.3-0.4-0.6-0.5-0.9s-0.2-0.7-0.2-1.1c0-0.4,0.1-0.8,0.2-1.1c0.1-0.4,0.3-0.7,0.6-0.9c0.2-0.2,0.5-0.4,0.9-0.6
		s0.7-0.2,1.1-0.2c0.4,0,0.7,0.1,1,0.2c0.3,0.1,0.6,0.3,0.8,0.6c0.2,0.2,0.4,0.5,0.5,0.9s0.2,0.7,0.2,1.2v0.3h-4.4
		c0,0.2,0.1,0.5,0.2,0.7c0.1,0.2,0.2,0.4,0.4,0.6s0.3,0.3,0.5,0.4s0.4,0.1,0.7,0.1c0.4,0,0.7-0.1,1-0.2s0.5-0.3,0.7-0.6L229.7,46.7z
		 M228.9,44.5c0-0.5-0.2-0.8-0.5-1.1s-0.7-0.4-1.2-0.4s-0.9,0.1-1.2,0.4c-0.3,0.3-0.5,0.6-0.6,1.1H228.9z"/>
	<path class="st0" d="M231.3,43.5c0-0.2,0-0.5,0-0.7c0-0.2,0-0.4,0-0.6h0.9c0,0.1,0,0.3,0,0.4c0,0.1,0,0.3,0,0.5h0
		c0.1-0.1,0.1-0.3,0.3-0.4c0.1-0.1,0.2-0.2,0.4-0.3c0.2-0.1,0.3-0.2,0.5-0.2s0.4-0.1,0.6-0.1c0.1,0,0.1,0,0.2,0c0.1,0,0.1,0,0.2,0
		l-0.1,0.9c-0.2,0-0.3-0.1-0.5-0.1c-0.6,0-1,0.2-1.2,0.5c-0.2,0.4-0.4,0.8-0.4,1.5v2.6h-0.9V43.5z"/>
	<path class="st0" d="M141.8,53.3h1v8.2h-1V53.3z"/>
	<path class="st0" d="M144.6,57.4c0-0.2,0-0.5,0-0.7s0-0.4,0-0.6h0.9c0,0.1,0,0.3,0,0.4c0,0.1,0,0.3,0,0.5h0
		c0.1-0.1,0.1-0.3,0.3-0.4c0.1-0.1,0.2-0.2,0.4-0.3c0.2-0.1,0.3-0.2,0.5-0.2c0.2-0.1,0.4-0.1,0.6-0.1c0.4,0,0.7,0.1,0.9,0.2
		c0.3,0.1,0.5,0.3,0.6,0.5c0.2,0.2,0.3,0.4,0.4,0.7s0.1,0.6,0.1,0.9v3.3h-0.9v-3.2c0-0.5-0.1-0.8-0.3-1.1s-0.5-0.4-0.9-0.4
		c-0.3,0-0.5,0-0.8,0.1c-0.2,0.1-0.4,0.2-0.5,0.4c-0.1,0.2-0.2,0.4-0.3,0.7c-0.1,0.3-0.1,0.5-0.1,0.8v2.6h-0.9V57.4z"/>
	<path class="st0" d="M154,56.9h-1.6v2.7c0,0.2,0,0.3,0,0.5c0,0.2,0,0.3,0.1,0.4c0.1,0.1,0.1,0.2,0.2,0.3c0.1,0.1,0.3,0.1,0.5,0.1
		c0.1,0,0.3,0,0.4,0c0.1,0,0.3-0.1,0.4-0.1l0,0.8c-0.2,0.1-0.3,0.1-0.5,0.2c-0.2,0-0.4,0-0.5,0c-0.3,0-0.6,0-0.8-0.1
		s-0.3-0.2-0.5-0.4c-0.1-0.2-0.2-0.3-0.2-0.6c0-0.2-0.1-0.5-0.1-0.8v-3h-1.2v-0.8h1.2v-1.5h0.9v1.5h1.6V56.9z"/>
	<path class="st0" d="M159.9,60.5c-0.3,0.4-0.7,0.7-1.1,0.9c-0.4,0.2-0.8,0.2-1.3,0.2c-0.4,0-0.8-0.1-1.1-0.2s-0.6-0.4-0.9-0.6
		c-0.2-0.3-0.4-0.6-0.5-0.9s-0.2-0.7-0.2-1.1c0-0.4,0.1-0.8,0.2-1.1s0.3-0.7,0.6-0.9c0.2-0.2,0.5-0.4,0.9-0.6s0.7-0.2,1.1-0.2
		c0.4,0,0.7,0.1,1,0.2c0.3,0.1,0.6,0.3,0.8,0.6c0.2,0.2,0.4,0.5,0.5,0.9s0.2,0.7,0.2,1.2v0.3h-4.4c0,0.2,0.1,0.5,0.2,0.7
		c0.1,0.2,0.2,0.4,0.4,0.6c0.2,0.2,0.3,0.3,0.5,0.4s0.4,0.1,0.7,0.1c0.4,0,0.7-0.1,1-0.2s0.5-0.3,0.7-0.6L159.9,60.5z M159.1,58.3
		c0-0.5-0.2-0.8-0.5-1.1s-0.7-0.4-1.2-0.4s-0.9,0.1-1.2,0.4c-0.3,0.3-0.5,0.6-0.6,1.1H159.1z"/>
	<path class="st0" d="M161.5,57.4c0-0.2,0-0.5,0-0.7s0-0.4,0-0.6h0.9c0,0.1,0,0.3,0,0.4c0,0.1,0,0.3,0,0.5h0
		c0.1-0.1,0.1-0.3,0.3-0.4c0.1-0.1,0.2-0.2,0.4-0.3c0.2-0.1,0.3-0.2,0.5-0.2c0.2-0.1,0.4-0.1,0.6-0.1c0.1,0,0.1,0,0.2,0s0.1,0,0.2,0
		l-0.1,0.9c-0.2,0-0.3-0.1-0.5-0.1c-0.6,0-1,0.2-1.2,0.5s-0.4,0.8-0.4,1.5v2.6h-0.9V57.4z"/>
	<path class="st0" d="M165.5,56.8c0.3-0.3,0.6-0.5,1-0.6c0.4-0.1,0.8-0.2,1.2-0.2c0.8,0,1.4,0.2,1.7,0.6c0.4,0.4,0.5,1,0.5,1.7v2.3
		c0,0.2,0,0.3,0,0.5c0,0.2,0,0.3,0.1,0.5h-0.9c0-0.1,0-0.3-0.1-0.4c0-0.2,0-0.3,0-0.4h0c-0.2,0.3-0.4,0.5-0.7,0.7
		c-0.3,0.2-0.7,0.3-1.1,0.3c-0.3,0-0.5,0-0.8-0.1c-0.2-0.1-0.5-0.2-0.6-0.3c-0.2-0.1-0.3-0.3-0.4-0.5c-0.1-0.2-0.2-0.4-0.2-0.7
		c0-0.4,0.1-0.8,0.3-1.1c0.2-0.3,0.5-0.4,0.9-0.6c0.3-0.1,0.7-0.2,1.1-0.2c0.4,0,0.8,0,1.1,0h0.3V58c0-0.4-0.1-0.7-0.4-0.9
		c-0.2-0.2-0.6-0.3-1-0.3c-0.3,0-0.6,0-0.9,0.1c-0.3,0.1-0.5,0.2-0.7,0.4L165.5,56.8z M168.1,58.9c-0.6,0-1,0.1-1.4,0.2
		c-0.3,0.2-0.5,0.4-0.5,0.8c0,0.3,0.1,0.6,0.3,0.7s0.5,0.2,0.8,0.2c0.3,0,0.5,0,0.7-0.1c0.2-0.1,0.4-0.2,0.5-0.4
		c0.1-0.1,0.2-0.3,0.3-0.5c0.1-0.2,0.1-0.4,0.1-0.6v-0.3H168.1z"/>
	<path class="st0" d="M175.4,57.5c-0.2-0.2-0.4-0.4-0.6-0.5c-0.2-0.1-0.5-0.2-0.7-0.2c-0.3,0-0.6,0.1-0.8,0.2
		c-0.2,0.1-0.4,0.2-0.6,0.4c-0.1,0.2-0.3,0.4-0.3,0.6c-0.1,0.2-0.1,0.5-0.1,0.8s0,0.5,0.1,0.8s0.2,0.5,0.4,0.6
		c0.2,0.2,0.3,0.3,0.6,0.4c0.2,0.1,0.5,0.2,0.8,0.2c0.6,0,1.1-0.2,1.4-0.7l0.7,0.6c-0.3,0.3-0.6,0.5-0.9,0.7s-0.7,0.2-1.1,0.2
		c-0.4,0-0.8-0.1-1.1-0.2s-0.6-0.3-0.9-0.6c-0.2-0.3-0.4-0.6-0.6-0.9s-0.2-0.7-0.2-1.1c0-0.4,0.1-0.8,0.2-1.1s0.3-0.6,0.6-0.9
		c0.2-0.3,0.5-0.5,0.9-0.6s0.7-0.2,1.1-0.2c0.4,0,0.8,0.1,1.1,0.2s0.7,0.4,0.9,0.6L175.4,57.5z"/>
	<path class="st0" d="M180.1,56.9h-1.6v2.7c0,0.2,0,0.3,0,0.5c0,0.2,0,0.3,0.1,0.4c0.1,0.1,0.1,0.2,0.2,0.3c0.1,0.1,0.3,0.1,0.5,0.1
		c0.1,0,0.3,0,0.4,0c0.1,0,0.3-0.1,0.4-0.1l0,0.8c-0.2,0.1-0.3,0.1-0.5,0.2c-0.2,0-0.4,0-0.5,0c-0.3,0-0.6,0-0.8-0.1
		s-0.3-0.2-0.5-0.4c-0.1-0.2-0.2-0.3-0.2-0.6c0-0.2-0.1-0.5-0.1-0.8v-3h-1.2v-0.8h1.2v-1.5h0.9v1.5h1.6V56.9z"/>
	<path class="st0" d="M181.1,54c0-0.2,0.1-0.3,0.2-0.5c0.1-0.1,0.3-0.2,0.5-0.2s0.3,0.1,0.5,0.2s0.2,0.3,0.2,0.5
		c0,0.2-0.1,0.4-0.2,0.5s-0.3,0.2-0.5,0.2s-0.4-0.1-0.5-0.2C181.2,54.3,181.1,54.2,181.1,54z M181.3,56.1h0.9v5.4h-0.9V56.1z"/>
	<path class="st0" d="M183.7,58.8c0-0.4,0.1-0.8,0.2-1.2s0.3-0.6,0.6-0.9c0.3-0.2,0.6-0.4,0.9-0.6s0.7-0.2,1.2-0.2s0.8,0.1,1.2,0.2
		s0.7,0.3,0.9,0.6c0.3,0.3,0.5,0.5,0.6,0.9s0.2,0.7,0.2,1.2c0,0.4-0.1,0.8-0.2,1.2c-0.1,0.3-0.3,0.6-0.6,0.9
		c-0.3,0.2-0.6,0.4-0.9,0.6s-0.7,0.2-1.2,0.2s-0.8-0.1-1.2-0.2s-0.7-0.3-0.9-0.6c-0.3-0.3-0.5-0.5-0.6-0.9
		C183.8,59.6,183.7,59.2,183.7,58.8z M184.7,58.8c0,0.3,0,0.5,0.1,0.8c0.1,0.2,0.2,0.5,0.4,0.6c0.2,0.2,0.4,0.3,0.6,0.4
		c0.2,0.1,0.5,0.2,0.8,0.2s0.6-0.1,0.8-0.2c0.2-0.1,0.4-0.2,0.6-0.4c0.2-0.2,0.3-0.4,0.4-0.6c0.1-0.2,0.1-0.5,0.1-0.8
		c0-0.3,0-0.5-0.1-0.8c-0.1-0.2-0.2-0.5-0.4-0.6c-0.2-0.2-0.4-0.3-0.6-0.4c-0.2-0.1-0.5-0.2-0.8-0.2s-0.6,0.1-0.8,0.2
		c-0.2,0.1-0.4,0.2-0.6,0.4c-0.2,0.2-0.3,0.4-0.4,0.6C184.7,58.3,184.7,58.5,184.7,58.8z"/>
	<path class="st0" d="M190.9,57.4c0-0.2,0-0.5,0-0.7s0-0.4,0-0.6h0.9c0,0.1,0,0.3,0,0.4c0,0.1,0,0.3,0,0.5h0
		c0.1-0.1,0.1-0.3,0.3-0.4c0.1-0.1,0.2-0.2,0.4-0.3c0.2-0.1,0.3-0.2,0.5-0.2c0.2-0.1,0.4-0.1,0.6-0.1c0.4,0,0.7,0.1,0.9,0.2
		c0.3,0.1,0.5,0.3,0.6,0.5c0.2,0.2,0.3,0.4,0.4,0.7s0.1,0.6,0.1,0.9v3.3h-0.9v-3.2c0-0.5-0.1-0.8-0.3-1.1s-0.5-0.4-0.9-0.4
		c-0.3,0-0.5,0-0.8,0.1c-0.2,0.1-0.4,0.2-0.5,0.4c-0.1,0.2-0.2,0.4-0.3,0.7c-0.1,0.3-0.1,0.5-0.1,0.8v2.6h-0.9V57.4z"/>
</g>
</svg>
