<?xml version="1.0" encoding="UTF-8"?>
<svg id="Layer_1" data-name="Layer 1" xmlns="http://www.w3.org/2000/svg" viewBox="0 0 41.82 23.13">
  <defs>
    <style>
      .cls-1 {
        fill: #4b4b4b;
        stroke-width: 0px;
      }
    </style>
  </defs>
  <path class="cls-1" d="m13.45,5.49v2.78h-1.41v-2.44c0-.75-.42-1.06-.81-1.06-.56-.02-1.02.42-1.04.98,0,.03,0,.07,0,.1v2.42h-1.38V3.63h1.33v.66h.02c.14-.28.73-.76,1.54-.76s1.74.55,1.74,1.96Zm-6.86,2.78h1.41V3.63h-1.41v4.64Zm.71-6.97c-.45,0-.81.38-.81.83s.38.81.83.81c.45,0,.81-.37.81-.82,0-.45-.36-.81-.81-.81h-.02Zm32.76-.59v8.27c0,.39-.32.71-.71.71h-8.27c-.39,0-.71-.32-.71-.71V.71c0-.39.32-.71.71-.71h8.27c.39,0,.71.32.71.71h0Zm-6.86,2.92h-1.41v4.64h1.41V3.63Zm.12-1.51c0-.46-.36-.83-.82-.84-.46,0-.83.36-.84.82,0,.46.36.83.82.84h.01c.45.01.82-.34.83-.79,0,0,0,0,0,0v-.03Zm5.32,3.37c0-1.41-.93-1.96-1.74-1.96s-1.41.47-1.54.76h-.02v-.66h-1.33v4.64h1.41v-2.42c0-.74.51-1.07,1-1.07.4,0,.82.31.82,1.06v2.44h1.41v-2.78ZM3.37,1.41h-1.61v6.86h4.23v-1.41h-2.62V1.41Zm20.16,4.59v.4h-3.43s0,.06.02.09c.12.39.54.72,1.16.72.4.02.78-.15,1.04-.45l1.03.64c-.51.64-1.29,1-2.11.97-1.35,0-2.55-.82-2.55-2.4s1.21-2.44,2.51-2.44,2.33.87,2.33,2.47Zm-1.41-.56c0-.48-.31-.88-.96-.88-.6,0-1.03.4-1.06.88h2.02Zm-3.17-1.81h-1.73l-1.52,1.89h-.03V1.41h-1.41v6.86h1.41v-2.22h.03l1.56,2.22h1.77l-1.9-2.53,1.83-2.1Zm8.62-2.22h1.41v6.86h-1.33v-.6h-.02c-.18.31-.65.7-1.49.7-1.01,0-2.2-.73-2.2-2.42,0-1.52,1.03-2.41,2.18-2.41.54,0,1.06.21,1.43.6h.02V1.41Zm.06,4.53c.02-.64-.49-1.17-1.13-1.19h0s-.03,0-.03,0c-.62-.01-1.13.47-1.14,1.09v.09c-.04.62.44,1.16,1.06,1.2,0,0,0,0,0,0h.08c.65,0,1.17-.54,1.16-1.19Z"/>
  <path class="cls-1" d="m36.44,23.13H5.38c-2.97,0-5.38-2.41-5.38-5.38s2.41-5.38,5.38-5.38h31.06c2.97,0,5.38,2.41,5.38,5.38s-2.41,5.38-5.38,5.38ZM5.38,13.12c-2.55,0-4.63,2.08-4.63,4.63s2.08,4.63,4.63,4.63h31.06c2.55,0,4.63-2.08,4.63-4.63s-2.08-4.63-4.63-4.63H5.38Z"/>
  <g>
    <path class="cls-1" d="m13.23,16.58h-.81v-.55h2.24v.55h-.81v2.28h-.62v-2.28Z"/>
    <path class="cls-1" d="m14.39,17.89c0-.15.03-.29.08-.42.06-.13.13-.23.23-.32.1-.09.21-.16.34-.21.13-.05.27-.07.42-.07s.29.02.42.07c.13.05.25.12.34.21.1.09.17.2.23.32.06.12.08.26.08.42s-.03.29-.08.42c-.06.13-.13.23-.23.32-.1.09-.21.16-.34.21-.13.05-.27.07-.42.07s-.29-.02-.42-.07c-.13-.05-.25-.12-.34-.21-.1-.09-.17-.2-.23-.32-.06-.12-.08-.26-.08-.42Zm.6,0c0,.15.04.26.13.36.08.09.2.14.35.14s.27-.05.35-.14c.08-.09.13-.21.13-.36s-.04-.26-.13-.36c-.08-.09-.2-.14-.35-.14s-.27.05-.35.14c-.08.09-.13.21-.13.36Z"/>
    <path class="cls-1" d="m16.95,16.92h.55v.26h0s.06-.07.09-.11c.04-.04.08-.07.14-.1s.11-.05.17-.07c.06-.02.13-.03.2-.03.14,0,.27.02.39.07.12.05.22.12.3.21.08.09.15.2.19.32.04.12.07.26.07.4,0,.14-.02.27-.06.39-.04.12-.1.23-.18.33s-.17.17-.28.23-.23.09-.37.09c-.13,0-.24-.02-.35-.06-.11-.04-.2-.1-.27-.2h0v1.12h-.6v-2.85Zm.55.97c0,.15.04.26.13.36.08.09.2.14.35.14s.27-.05.35-.14c.08-.09.13-.21.13-.36s-.04-.26-.13-.36c-.08-.09-.2-.14-.35-.14s-.27.05-.35.14c-.08.09-.13.21-.13.36Z"/>
    <path class="cls-1" d="m23.05,17.77c0,.17-.02.32-.08.46-.05.14-.13.26-.23.37-.1.1-.22.18-.37.24-.15.06-.32.09-.51.09s-.37-.03-.52-.09c-.15-.06-.27-.14-.37-.24s-.18-.23-.23-.37c-.05-.14-.08-.3-.08-.46v-1.74h.62v1.71c0,.09.01.17.04.24.03.07.07.14.12.19.05.05.11.1.18.13.07.03.15.05.23.05s.16-.02.23-.05c.07-.03.13-.07.18-.13.05-.05.09-.12.12-.19.03-.07.04-.16.04-.24v-1.71h.62v1.74Z"/>
    <path class="cls-1" d="m24.33,17.38l-.93-1.35h.78l.6.99.58-.99h.75l-.91,1.34,1.02,1.49h-.78l-.69-1.14-.67,1.14h-.74l.99-1.48Z"/>
    <path class="cls-1" d="m27.41,16.03h.71l.7,1.85h0l.71-1.85h.67l-1.17,2.83h-.5l-1.13-2.83Z"/>
    <path class="cls-1" d="m30.13,17.89c0-.15.03-.29.08-.42.06-.13.13-.23.23-.32.1-.09.21-.16.34-.21.13-.05.27-.07.42-.07s.29.02.42.07c.13.05.25.12.34.21.1.09.17.2.23.32.06.12.08.26.08.42s-.03.29-.08.42c-.06.13-.13.23-.23.32-.1.09-.21.16-.34.21-.13.05-.27.07-.42.07s-.29-.02-.42-.07c-.13-.05-.25-.12-.34-.21-.1-.09-.17-.2-.23-.32-.06-.12-.08-.26-.08-.42Zm.6,0c0,.15.04.26.13.36.08.09.2.14.35.14s.27-.05.35-.14c.08-.09.13-.21.13-.36s-.04-.26-.13-.36c-.08-.09-.2-.14-.35-.14s-.27.05-.35.14c-.08.09-.13.21-.13.36Z"/>
    <path class="cls-1" d="m32.6,16.31c0-.1.03-.18.1-.25.07-.07.15-.1.25-.1s.18.03.25.1c.07.07.1.15.1.25s-.03.18-.1.25c-.07.07-.15.1-.25.1s-.18-.03-.25-.1c-.07-.07-.1-.15-.1-.25Zm.05.61h.6v1.94h-.6v-1.94Z"/>
    <path class="cls-1" d="m34.99,17.54s-.07-.08-.12-.11c-.05-.03-.11-.04-.17-.04-.15,0-.27.05-.35.14-.08.09-.13.21-.13.36s.04.26.13.36c.08.09.2.14.35.14.07,0,.12-.01.17-.04.05-.03.09-.06.12-.1l.39.42c-.09.1-.2.16-.33.2-.13.04-.25.06-.36.06-.15,0-.29-.02-.42-.07-.13-.05-.25-.12-.34-.21-.1-.09-.17-.2-.23-.32-.06-.12-.08-.26-.08-.42s.03-.29.08-.42c.06-.13.13-.23.23-.32.1-.09.21-.16.34-.21.13-.05.27-.07.42-.07.11,0,.23.02.36.06.13.04.24.11.33.2l-.39.42Z"/>
    <path class="cls-1" d="m37.44,18.52c-.1.12-.22.22-.36.28-.15.07-.3.1-.46.1-.15,0-.29-.02-.42-.07-.13-.05-.25-.12-.34-.21-.1-.09-.17-.2-.23-.32-.06-.12-.08-.26-.08-.42s.03-.29.08-.42c.06-.13.13-.23.23-.32.1-.09.21-.16.34-.21.13-.05.27-.07.42-.07.14,0,.26.02.38.07s.21.12.29.21c.08.09.14.2.18.32.04.12.06.26.06.42v.19h-1.39c.02.11.08.21.16.27s.18.1.3.1c.1,0,.18-.02.25-.07.07-.04.13-.1.18-.17l.42.31Zm-.51-.85c0-.1-.03-.19-.1-.26s-.16-.11-.27-.11c-.07,0-.12.01-.18.03-.05.02-.09.05-.13.08-.04.03-.06.07-.08.12-.02.04-.03.09-.03.14h.79Z"/>
  </g>
  <g>
    <path class="cls-1" d="m8.17,14.65s-.03,0-.04,0c0,0-.02,0-.04.01-.08.03-.14.1-.17.19,0,.02-.02.05-.02.06,0,0-.02.04-.03.07-.01.03-.03.06-.03.07,0,0-.01.03-.02.06-.01.03-.02.05-.03.06-.01.03-.02.04-.04.09-.01.03-.02.05-.03.06-.02.04-.02.05-.02.06,0,0,0,.02,0,.03,0,.01,0,.04,0,.08s0,.07,0,.08c0,0,0,.02,0,.02,0,.02.04.08.07.12.05.05.1.08.18.09.04,0,.05,0,.09,0,.12-.02.2-.09.26-.24,0,0,0-.02.01-.03,0,0,.01-.03.02-.06.01-.03.02-.05.03-.06.01-.03.02-.04.04-.09.01-.03.02-.05.03-.06.01-.03.02-.04.04-.09.02-.04.03-.06.04-.09.02-.04.03-.08.03-.13,0-.09-.03-.15-.09-.23-.02-.02-.06-.05-.09-.06-.01,0-.03-.01-.03-.01-.01,0-.08-.01-.11-.01,0,0-.03,0-.04,0Z"/>
    <path class="cls-1" d="m5.99,14.66c-.09.03-.16.09-.19.16-.04.09-.04.16-.01.26,0,.03.03.09.07.18,0,0,.01.04.03.06.02.05.03.06.04.09,0,0,.01.04.03.06.03.07.03.07.04.09,0,0,0,.02,0,.02,0,.01.04.09.06.12.06.08.18.13.28.12.07,0,.12-.03.17-.07.03-.02.07-.07.08-.1.02-.04.04-.11.04-.15,0-.04-.02-.12-.04-.15,0,0-.01-.03-.02-.06-.02-.05-.02-.06-.04-.09,0,0-.01-.03-.02-.06-.02-.05-.03-.07-.04-.09,0,0-.02-.04-.02-.06,0-.02-.02-.05-.02-.06,0,0-.02-.04-.03-.06-.03-.07-.05-.11-.09-.14-.03-.03-.07-.05-.13-.08-.03-.01-.15-.01-.18,0Z"/>
    <path class="cls-1" d="m7.06,16.14c-.07,0-.1,0-.19.02-.08.02-.19.05-.23.06,0,0-.02,0-.03.01-.05.02-.15.07-.2.1-.04.02-.15.1-.18.12-.11.09-.14.12-.21.2-.06.07-.12.16-.15.21-.04.08-.05.1-.07.13-.05.12-.09.22-.11.31,0,.02-.01.05-.01.06-.01.06-.02.27-.01.38,0,.1.04.23.08.35.02.05.02.06.07.16.09.19.19.31.4.51.09.08.15.16.2.28.02.05.05.13.06.2,0,.02,0,.04.01.04,0,0,.14,0,.65,0,.36,0,.65,0,.66,0,0,0,0-.02,0-.03.02-.09.04-.16.08-.25.05-.1.08-.15.19-.25.11-.11.15-.15.18-.18.08-.09.16-.21.22-.33.01-.02.02-.05.03-.05,0-.02.04-.1.05-.15.04-.13.06-.21.07-.36,0-.08,0-.21-.01-.29,0-.02,0-.05,0-.06,0-.02,0-.04,0-.05s0-.04-.01-.06c0-.04-.04-.13-.05-.16,0,0-.01-.02-.01-.03-.02-.04-.07-.14-.08-.17-.02-.04-.11-.16-.12-.18,0,0-.02-.03-.03-.04-.08-.09-.19-.19-.28-.26-.02-.01-.03-.02-.03-.02,0,0-.02-.02-.08-.05-.02-.01-.12-.06-.16-.08-.07-.03-.1-.04-.17-.06-.02,0-.04-.01-.06-.02-.01,0-.03,0-.04,0s-.02,0-.04,0c-.09-.02-.23-.03-.38-.02Zm.23.81c.14.03.26.1.36.2.04.04.07.08.08.09,0,0,0,.01.01.02.03.05.07.14.08.22.01.06.01.21,0,.26-.02.07-.05.16-.06.18,0,0-.01.02-.02.03-.03.06-.12.15-.22.25-.04.04-.14.14-.16.17,0,.01-.02.03-.02.03,0,0-.02.02-.02.03-.02.03-.05.08-.06.1,0,0,0,0,0,.01,0,0-.03.05-.06.11-.01.03-.02.05-.03.05,0,0-.02-.02-.03-.05-.01-.03-.03-.06-.04-.07,0-.01-.02-.03-.02-.03s0-.01-.01-.02c0,0-.02-.03-.04-.06-.02-.03-.04-.06-.05-.08-.01-.02-.03-.03-.03-.04-.03-.05-.17-.18-.23-.23-.02-.01-.04-.04-.05-.05-.01-.01-.03-.03-.03-.03s-.02-.02-.03-.05c-.05-.07-.08-.15-.1-.24-.01-.05-.01-.22,0-.27.02-.08.05-.16.09-.22.03-.04.08-.11.12-.15.1-.09.21-.14.35-.17.05,0,.19,0,.24,0Z"/>
    <path class="cls-1" d="m4.44,16.24c-.1.02-.18.08-.23.18-.02.03-.03.09-.03.13,0,.03.01.11.02.11,0,0,0,0,0,.01,0,.02.05.09.08.12.03.03.11.07.13.07,0,0,.01,0,.02,0,.02,0,.03.01.07.03.02,0,.04.01.04.02.03.01.04.02.09.04.03.01.05.02.06.02,0,0,.03.01.06.02.03.01.05.02.06.03.11.05.15.06.21.06.14,0,.26-.08.31-.22.01-.04.02-.14,0-.18-.03-.08-.09-.15-.15-.18-.02,0-.03-.02-.03-.02,0,0-.02-.01-.04-.02s-.05-.02-.06-.02c-.03-.01-.04-.02-.09-.04-.03-.01-.05-.02-.06-.03-.03-.01-.04-.02-.09-.04-.03-.01-.05-.02-.06-.03-.19-.08-.24-.09-.32-.07Z"/>
    <path class="cls-1" d="m9.76,16.24s-.03,0-.04,0c-.02,0-.06.02-.07.03,0,0-.03.01-.05.02-.04.02-.06.02-.09.04,0,0-.03.01-.06.02-.02,0-.05.02-.06.02,0,0-.04.01-.06.03-.05.02-.06.03-.09.04,0,0-.03.01-.04.02-.11.04-.16.09-.2.17-.03.05-.03.08-.03.15,0,.06,0,.08.03.14.02.05.08.11.13.13.02,0,.04.02.04.02s.01,0,.01,0,.02,0,.04,0c.02,0,.04,0,.05,0,.03,0,.11-.01.22-.06,0,0,.04-.02.07-.03.03-.01.07-.03.07-.03,0,0,.04-.01.06-.03.05-.02.06-.02.09-.04,0,0,.03-.01.06-.02.06-.02.07-.03.11-.05s.1-.07.12-.1c.04-.05.05-.09.06-.17,0-.11-.06-.23-.16-.28-.02-.01-.05-.02-.06-.03-.01,0-.03,0-.04,0-.03,0-.09,0-.11,0Z"/>
    <path class="cls-1" d="m4.96,18.16s-.04.01-.05.02c-.02,0-.03.01-.04.01,0,0-.02,0-.06.02,0,0-.03.01-.04.02-.03.01-.04.02-.07.03,0,0-.04.01-.06.03-.05.02-.06.03-.09.04,0,0-.04.02-.07.03-.03.01-.07.03-.07.03,0,0-.02,0-.02,0,0,0-.02.01-.05.03-.09.06-.14.14-.15.24,0,.1.02.18.09.25.05.05.1.07.18.09.04,0,.05,0,.08,0,.06-.01.1-.03.18-.06,0,0,.04-.01.06-.03.03-.01.05-.02.06-.03,0,0,.02-.01.03-.01,0,0,.02,0,.03-.01,0,0,.03-.01.04-.02.02,0,.05-.02.08-.03,0,0,.03-.01.06-.02.06-.03.06-.03.1-.05.1-.05.16-.15.17-.25,0-.04,0-.11-.01-.13,0,0,0-.02-.01-.03-.02-.04-.07-.1-.1-.12-.02-.02-.07-.04-.1-.05-.04-.01-.12-.01-.16,0Z"/>
    <path class="cls-1" d="m9.19,18.16c-.08.03-.14.07-.19.14-.03.04-.05.12-.05.16,0,.07.03.16.08.21.03.03.08.07.1.07,0,0,.01,0,.02,0,.02,0,.04.02.11.05.03.01.07.03.07.03,0,0,.03.01.06.02.02,0,.05.02.06.02.06.03.07.03.12.05.04.02.06.03.09.04.12.05.27.03.35-.05.05-.05.07-.08.09-.14,0-.03.01-.04.01-.09,0-.07,0-.1-.04-.16-.02-.04-.08-.1-.11-.11-.01,0-.03-.02-.04-.02,0,0-.02-.01-.03-.01s-.01,0-.01,0c0,0-.02,0-.04-.02s-.04-.01-.05-.02c0,0-.03-.01-.06-.02-.02,0-.05-.02-.06-.02-.03-.01-.04-.02-.09-.04-.03-.01-.05-.02-.06-.02,0,0-.03-.01-.06-.02-.03-.01-.05-.02-.06-.03,0,0-.03-.01-.04-.02s-.03-.01-.03-.01c-.02,0-.14-.01-.17,0Z"/>
    <path class="cls-1" d="m6.53,19.75s0,.3,0,.34c0,0,0,.03.01.05.03.09.08.19.15.26.04.04.1.09.11.09,0,0,.01,0,.03.02.01,0,.02.02.03.02s.02,0,.03.01c.03.02.06.03.09.03,0,0,.03,0,.04,0,.07.02.16.02.25,0,.04,0,.1-.02.1-.03,0,0,0,0,.01,0,0,0,.02,0,.04-.02s.03-.02.03-.02.01,0,.02,0c0,0,.03-.02.05-.03.06-.04.14-.12.18-.19.01-.02.05-.1.06-.13,0-.01.01-.03.01-.05,0-.01,0-.03.01-.05,0-.02,0-.31,0-.31s-1.25,0-1.26,0Z"/>
  </g>
</svg>