<?xml version="1.0" encoding="utf-8"?>
<!-- Generator: Adobe Illustrator 28.0.0, SVG Export Plug-In . SVG Version: 6.00 Build 0)  -->
<svg version="1.1" id="Layer_1" xmlns="http://www.w3.org/2000/svg" xmlns:xlink="http://www.w3.org/1999/xlink" x="0px" y="0px"
	 viewBox="0 0 701 693" style="enable-background:new 0 0 701 693;" xml:space="preserve">
<style type="text/css">
	.st0{opacity:0.22;}
	.st1{fill:#FFFFFF;}
	.st2{fill:#FFFFFF;stroke:#FFFFFF;stroke-miterlimit:10;}
	.st3{fill:#74AA9C;}
	.st4{clip-path:url(#SVGID_00000143587155141992405830000006810034992383890873_);}
	.st5{fill:#95BF46;}
	.st6{fill:#5E8E3E;}
	.st7{clip-path:url(#SVGID_00000117669937245746375000000003594009425071861683_);}
	.st8{fill:#E01E5A;}
	.st9{fill:#36C5F0;}
	.st10{fill:#2EB67D;}
	.st11{fill:#ECB22E;}
	.st12{clip-path:url(#SVGID_00000071550829474746121890000005453499846618462631_);}
	.st13{fill-rule:evenodd;clip-rule:evenodd;fill:#00A1E0;}
	.st14{fill-rule:evenodd;clip-rule:evenodd;fill:#FFFFFE;}
	.st15{clip-path:url(#SVGID_00000017476168626831124700000004478175961369451656_);}
	.st16{fill:#FCB400;}
	.st17{fill:#18BFFF;}
	.st18{fill:#F82B60;}
	.st19{fill-opacity:0.25;}
	.st20{clip-path:url(#SVGID_00000147206231421756546390000002063196002665031569_);}
	.st21{fill:#0056FE;}
	.st22{fill:#5059C9;}
	.st23{fill:#7B83EB;}
	.st24{fill:#6E76D3;}
	.st25{fill:#6269BC;}
	.st26{fill:#B7B7B7;}
	.st27{fill:#585EA9;}
	.st28{fill:#464B87;}
	.st29{fill:#757575;}
	.st30{fill:#383C6C;}
	.st31{fill:#E5E5E5;}
	.st32{fill:#929292;}
	.st33{fill:url(#SVGID_00000012463762942327744600000011610782008965555093_);}
	.st34{clip-path:url(#SVGID_00000040554337716450850250000009297197483734010772_);}
	.st35{fill:#E75A4D;}
	.st36{fill:url(#SVGID_00000155833595832924690460000012527414383858415261_);}
	.st37{fill:#E7E4D7;}
	.st38{fill:#B8B7AE;}
	.st39{fill:#B7B6AD;}
	.st40{fill:#B2392F;}
	.st41{fill:url(#SVGID_00000080888528470137137510000014753131433091016355_);}
	.st42{fill:url(#SVGID_00000018204026346208183480000001327776019927271343_);}
	.st43{fill:url(#SVGID_00000002364308128606395060000008390393116098182296_);}
	.st44{fill:url(#SVGID_00000031180953725116273970000004058750917913124235_);}
	.st45{fill:url(#SVGID_00000033360018848956534020000010090191294814629280_);}
	.st46{fill:url(#SVGID_00000025440981533744074510000009999087362182087831_);}
	.st47{fill:url(#SVGID_00000142163800010635061140000007024677806278931088_);}
	.st48{fill:#F7F5ED;}
	.st49{clip-path:url(#SVGID_00000069386601331011656520000017648081274346266519_);}
	.st50{fill:#F62B54;}
	.st51{fill:#FFCC00;}
	.st52{fill:#00CA72;}
	.st53{clip-path:url(#SVGID_00000065784766072999571680000018164301795001932213_);}
	.st54{fill:#3C8BD9;}
	.st55{fill:#FABC04;}
	.st56{fill:#34A852;}
	.st57{fill:#E1C025;}
	.st58{clip-path:url(#SVGID_00000013890575725629616950000006816935711910318482_);}
	.st59{fill:#0A66C2;}
	.st60{clip-path:url(#SVGID_00000123403805829493608210000013094418378796616834_);}
	.st61{fill:#E24329;}
	.st62{fill:#FC6D26;}
	.st63{fill:#FCA326;}
	.st64{opacity:0.1;fill:#006937;enable-background:new    ;}
	.st65{opacity:0.15;fill:#006937;enable-background:new    ;}
	.st66{opacity:0.2;fill:#006937;enable-background:new    ;}
	.st67{fill:#489541;}
</style>
<g id="Layer_2_00000023984493418328245570000005279596155147272836_">
</g>
<g id="Layer_1_00000122679919261090360710000005711829071699860151_">
	<g class="st0">
		<path class="st1" d="M468.7,399c-20.3,42.7-63.9,72.4-114.2,72.4c-69.7,0-126.4-56.7-126.4-126.4s56.7-126.4,126.4-126.4
			c29.2,0,56.1,10,77.5,26.7c-0.5-0.5-1-1-1.6-1.5c-1.8-1.7-1.9-3.7-1-5.4c-21.2-15-47.1-23.8-74.9-23.8
			c-71.9,0-130.4,58.5-130.4,130.4s58.5,130.4,130.4,130.4c50.9,0,95-29.3,116.5-71.9C469.4,402.7,468.3,401.1,468.7,399z"/>
	</g>
	<g class="st0">
		<path class="st1" d="M354.6,137c-10.8,0-21.4,0.8-31.7,2.4c0.5,1.2,0.5,2.7,0.1,4c10.3-1.6,20.9-2.5,31.6-2.5
			c112.5,0,204,91.5,204,204s-91.5,204-204,204c-92.1,0-170.1-61.4-195.4-145.4c-0.2-0.1-0.4-0.3-0.6-0.4c-0.9,0.8-2.2,1.2-3.4,1.2
			C180.8,490.2,260.5,553,354.6,553c114.7,0,208-93.3,208-208S469.3,137,354.6,137z"/>
	</g>
	<g class="st0">
		<path class="st2" d="M609.2,473.3c-13.3,26-30.8,50.1-52.1,71.4c-53.5,53.5-124.5,82.9-200.1,82.9s-146.7-29.4-200.1-82.9
			S74,420.2,74,344.6s29.4-146.7,82.9-200.1S281.4,61.6,357,61.6c57.5,0,112.4,17,158.9,48.7c0.5-1.2,1.1-2.5,1.7-3.7
			c-47-31.8-102.5-49-160.6-49c-76.7,0-148.7,29.9-202.9,84.1S70,267.9,70,344.6s29.9,148.7,84.1,202.9s126.3,84.1,202.9,84.1
			c76.7,0,148.7-29.9,202.9-84.1c21.5-21.5,39.1-45.7,52.5-71.9C611.4,474.8,610.3,474.1,609.2,473.3z"/>
	</g>
	<g>
		<g>
			<circle class="st1" cx="426.5" cy="243" r="29"/>
		</g>
		<g>
			<path class="st3" d="M409.7,234.3v17.5c0,1.4,0.3,2.7,0.9,3.8c1.4,2.5,4,4.2,7.1,4.2h17.5c4.5,0,8.1-3.6,8.1-8.1v-17.5
				c0-4.1-3-7.4-6.9-8h-18.7C413.3,226.2,409.7,229.8,409.7,234.3z"/>
			<path class="st1" d="M425.2,230.3c-2.8,0-5.2,1.8-6.1,4.4c-1.8,0.4-3.3,1.5-4.2,3.1c-1.4,2.4-1.1,5.4,0.8,7.5
				c-0.6,1.7-0.4,3.6,0.5,5.2c1.4,2.4,4.2,3.6,6.9,3.1c1.2,1.4,2.9,2.1,4.8,2.1c2.8,0,5.2-1.8,6.1-4.4c1.8-0.4,3.3-1.5,4.2-3.1
				c1.4-2.4,1.1-5.4-0.8-7.5l0,0c0.6-1.7,0.4-3.6-0.5-5.2c-1.4-2.4-4.2-3.6-6.9-3.1C428.7,231.1,427,230.3,425.2,230.3L425.2,230.3z
				 M425.2,232L425.2,232c1.1,0,2.2,0.4,3,1.1c0,0-0.1,0.1-0.2,0.1l-5,2.9c-0.3,0.1-0.4,0.4-0.4,0.7v6.8l-2.2-1.3v-5.6
				C420.4,234.1,422.5,232,425.2,232L425.2,232z M431.3,234c1.7,0,3.3,0.9,4.1,2.4c0.5,1,0.8,2.1,0.6,3.2l-0.1-0.1l-5-2.9
				c-0.3-0.1-0.6-0.1-0.8,0l-5.9,3.4v-2.5l4.9-2.8C429.6,234.2,430.4,234,431.3,234z M418.8,236.6v6c0,0.3,0.2,0.6,0.4,0.7l5.9,3.4
				l-2.2,1.3l-4.9-2.8c-2.3-1.3-3-4.2-1.7-6.5C416.9,237.7,417.7,236.9,418.8,236.6z M430.1,238l4.9,2.8c2.3,1.3,3,4.2,1.7,6.5l0,0
				c-0.6,1-1.4,1.7-2.5,2.1v-6c0-0.3-0.2-0.6-0.4-0.7l-5.9-3.4L430.1,238L430.1,238z M426.5,240.1l2.5,1.4v2.9l-2.5,1.4l-2.5-1.4
				v-2.9L426.5,240.1z M430.4,242.4l2.2,1.3v5.6c0,2.6-2.1,4.7-4.7,4.7l0,0c-1.1,0-2.2-0.4-3-1.1c0,0,0.1-0.1,0.2-0.1l5-2.9
				c0.3-0.1,0.4-0.4,0.4-0.7L430.4,242.4L430.4,242.4z M429,246.1v2.5l-4.9,2.8c-2.3,1.3-5.2,0.5-6.5-1.7l0,0
				c-0.6-1-0.8-2.1-0.6-3.2l0.1,0.1l5,2.9c0.3,0.1,0.6,0.1,0.8,0L429,246.1L429,246.1z"/>
		</g>
	</g>
	<g>
		<g>
			<g>
				<circle class="st1" cx="206.8" cy="584.8" r="29"/>
			</g>
		</g>
		<g>
			<g>
				<g>
					<g>
						<defs>
							<rect id="SVGID_1_" x="190.2" y="566.6" width="29.3" height="32.3"/>
						</defs>
						<clipPath id="SVGID_00000119098076918996834930000012554447921164545941_">
							<use xlink:href="#SVGID_1_"  style="overflow:visible;"/>
						</clipPath>
						<g style="clip-path:url(#SVGID_00000119098076918996834930000012554447921164545941_);">
							<path class="st5" d="M215.8,573c0-0.2-0.2-0.3-0.3-0.3s-2.7-0.2-2.7-0.2s-1.8-1.7-2-1.9s-0.6-0.1-0.7-0.1c0,0-0.4,0.1-1,0.3
								c-0.6-1.7-1.6-3.2-3.5-3.2c-0.1,0-0.1,0-0.2,0c-0.5-0.7-1.2-1-1.7-1c-4.3,0-6.3,5.2-7,7.8c-1.7,0.5-2.8,0.9-3,0.9
								c-0.9,0.3-1,0.3-1.1,1.2c-0.1,0.6-2.5,18.9-2.5,18.9l18.9,3.4l10.3-2.2C219.4,596.7,215.8,573.1,215.8,573L215.8,573z
								 M208.1,571.1l-1.6,0.5c0-0.1,0-0.2,0-0.3c0-1-0.1-1.9-0.4-2.5C207.1,568.9,207.7,569.9,208.1,571.1z M204.9,569
								c0.3,0.6,0.4,1.6,0.4,2.8c0,0.1,0,0.1,0,0.2c-1,0.3-2.2,0.7-3.3,1C202.7,570.6,203.9,569.4,204.9,569z M203.7,567.8
								c0.2,0,0.4,0.1,0.5,0.2c-1.4,0.6-2.8,2.2-3.5,5.3l-2.6,0.8C198.9,571.7,200.6,567.8,203.7,567.8L203.7,567.8z"/>
							<path class="st6" d="M215.5,572.7c-0.1,0-2.7-0.2-2.7-0.2s-1.8-1.7-2-1.9c-0.1-0.1-0.2-0.1-0.3-0.1l-1.4,28.4l10.3-2.2
								c0,0-3.6-23.6-3.6-23.8S215.6,572.7,215.5,572.7z"/>
							<path class="st1" d="M205.7,578.2l-1.3,3.6c0,0-1.1-0.6-2.5-0.6c-2,0-2.1,1.2-2.1,1.5c0,1.7,4.5,2.3,4.5,6.2c0,3.1-2,5-4.7,5
								c-3.2,0-4.9-2-4.9-2l0.9-2.8c0,0,1.7,1.4,3.1,1.4c0.9,0,1.3-0.7,1.3-1.2c0-2.2-3.7-2.3-3.7-5.8c0-3,2.2-5.9,6.7-5.9
								C204.8,577.7,205.7,578.2,205.7,578.2z"/>
						</g>
					</g>
				</g>
			</g>
		</g>
	</g>
	<g>
		<g>
			<circle class="st1" cx="293.4" cy="454.3" r="29"/>
		</g>
		<g>
			<g>
				<g>
					<g>
						<defs>
							<rect id="SVGID_00000179634700182774641200000004788692528511109812_" x="277.4" y="438.1" width="32.1" height="32.5"/>
						</defs>
						<clipPath id="SVGID_00000085953127789542201440000002928151209417292698_">
							<use xlink:href="#SVGID_00000179634700182774641200000004788692528511109812_"  style="overflow:visible;"/>
						</clipPath>
						<g style="clip-path:url(#SVGID_00000085953127789542201440000002928151209417292698_);">
							<path class="st8" d="M284.3,458.6c0,1.9-1.5,3.4-3.3,3.4s-3.3-1.5-3.3-3.4s1.5-3.4,3.3-3.4h3.3V458.6z M285.9,458.6
								c0-1.9,1.5-3.4,3.3-3.4s3.3,1.5,3.3,3.4v8.5c0,1.9-1.5,3.4-3.3,3.4s-3.3-1.5-3.3-3.4V458.6z"/>
							<path class="st9" d="M289.3,445c-1.8,0-3.3-1.5-3.3-3.4s1.5-3.4,3.3-3.4s3.3,1.5,3.3,3.4v3.4H289.3z M289.3,446.7
								c1.8,0,3.3,1.5,3.3,3.4s-1.5,3.4-3.3,3.4h-8.4c-1.8,0-3.3-1.5-3.3-3.4s1.5-3.4,3.3-3.4H289.3z"/>
							<path class="st10" d="M302.6,450.1c0-1.9,1.5-3.4,3.3-3.4s3.3,1.5,3.3,3.4s-1.5,3.4-3.3,3.4h-3.3V450.1z M301,450.1
								c0,1.9-1.5,3.4-3.3,3.4s-3.3-1.5-3.3-3.4v-8.5c0-1.9,1.5-3.4,3.3-3.4s3.3,1.5,3.3,3.4V450.1z"/>
							<path class="st11" d="M297.6,463.6c1.8,0,3.3,1.5,3.3,3.4s-1.5,3.4-3.3,3.4s-3.3-1.5-3.3-3.4v-3.4H297.6z M297.6,462
								c-1.8,0-3.3-1.5-3.3-3.4s1.5-3.4,3.3-3.4h8.4c1.8,0,3.3,1.5,3.3,3.4s-1.5,3.4-3.3,3.4H297.6z"/>
						</g>
					</g>
				</g>
			</g>
		</g>
	</g>
	<g>
		<g>
			<circle class="st1" cx="241.9" cy="283.9" r="29"/>
		</g>
		<g>
			<g>
				<g>
					<g>
						<defs>
							<rect id="SVGID_00000142144483423019797180000012898236344299172497_" x="222.2" y="270.4" width="40.8" height="28"/>
						</defs>
						<clipPath id="SVGID_00000142897266347644836390000003508209620958092176_">
							<use xlink:href="#SVGID_00000142144483423019797180000012898236344299172497_"  style="overflow:visible;"/>
						</clipPath>
						<g style="clip-path:url(#SVGID_00000142897266347644836390000003508209620958092176_);">
							<g>
								<path class="st13" d="M239.1,273.5c1.3-1.3,3.1-2.2,5.2-2.2c2.7,0,5,1.5,6.3,3.7c1.1-0.5,2.3-0.7,3.5-0.7
									c4.8,0,8.8,3.9,8.8,8.7s-3.9,8.7-8.8,8.7c-0.6,0-1.2-0.1-1.7-0.2c-1.1,1.9-3.2,3.2-5.6,3.2c-1,0-1.9-0.2-2.8-0.6
									c-1.1,2.6-3.7,4.4-6.7,4.4c-3.2,0-5.8-2-6.9-4.7c-0.5,0.1-0.9,0.1-1.4,0.1c-3.7,0-6.8-3-6.8-6.7c0-2.5,1.4-4.7,3.4-5.8
									c-0.4-1-0.7-2-0.6-3.1c0-4.3,3.5-7.7,7.9-7.7C235.4,270.5,237.6,271.7,239.1,273.5"/>
								<path class="st14" d="M228.1,285C228.1,285,228.1,285.1,228.1,285c0.1,0.1,0.2,0.2,0.2,0.2c0.4,0.2,0.8,0.3,1.2,0.3
									c0.8,0,1.4-0.4,1.4-1.1l0,0c0-0.6-0.6-0.9-1.1-1.1h-0.1c-0.4-0.1-0.8-0.2-0.8-0.5l0,0c0-0.2,0.2-0.4,0.5-0.4
									c0.4,0,0.8,0.1,1.1,0.3c0,0,0.1,0.1,0.1,0l0.2-0.4v-0.1c-0.3-0.2-0.7-0.3-1.2-0.3h-0.1c-0.8,0-1.3,0.5-1.3,1.1l0,0
									c0,0.7,0.6,0.9,1.1,1.1h0.1c0.4,0.1,0.7,0.2,0.7,0.5l0,0c0,0.3-0.2,0.4-0.6,0.4c-0.1,0-0.6,0-1.1-0.3
									c-0.1,0-0.1-0.1-0.1-0.1h-0.1L228.1,285L228.1,285z M240.3,285C240.3,285,240.3,285.1,240.3,285c0.1,0.1,0.2,0.2,0.2,0.2
									c0.4,0.2,0.8,0.3,1.2,0.3c0.8,0,1.4-0.4,1.4-1.1l0,0c0-0.6-0.6-0.9-1.1-1.1h-0.1c-0.4-0.1-0.8-0.2-0.8-0.5l0,0
									c0-0.2,0.2-0.4,0.5-0.4c0.4,0,0.8,0.1,1.1,0.3c0,0,0.1,0.1,0.1,0l0.2-0.4v-0.1c-0.3-0.2-0.7-0.3-1.2-0.3h-0.1
									c-0.8,0-1.3,0.5-1.3,1.1l0,0c0,0.7,0.6,0.9,1.1,1.1h0.1c0.4,0.1,0.7,0.2,0.7,0.5l0,0c0,0.3-0.2,0.4-0.6,0.4
									c-0.1,0-0.6,0-1.1-0.3c-0.1,0-0.1-0.1-0.1-0.1h-0.1L240.3,285L240.3,285z M248.6,283.6c0,0.4-0.1,0.7-0.2,0.9
									c-0.1,0.2-0.4,0.3-0.7,0.3s-0.5-0.1-0.7-0.3c-0.1-0.2-0.2-0.5-0.2-0.9s0.1-0.7,0.2-0.9c0.1-0.2,0.4-0.3,0.7-0.3
									s0.5,0.1,0.7,0.3C248.5,282.9,248.6,283.2,248.6,283.6L248.6,283.6z M249.3,282.9c-0.1-0.2-0.2-0.4-0.3-0.6
									s-0.3-0.3-0.5-0.4s-0.5-0.1-0.7-0.1s-0.5,0-0.7,0.1s-0.4,0.2-0.5,0.4c-0.1,0.2-0.2,0.4-0.3,0.6s-0.1,0.5-0.1,0.7
									c0,0.3,0,0.5,0.1,0.7s0.2,0.4,0.3,0.6s0.3,0.3,0.5,0.4s0.5,0.1,0.7,0.1c0.3,0,0.5,0,0.7-0.1s0.4-0.2,0.5-0.4
									c0.1-0.2,0.2-0.4,0.3-0.6s0.1-0.5,0.1-0.7C249.4,283.3,249.4,283.1,249.3,282.9L249.3,282.9z M255,284.7
									C255,284.7,254.9,284.7,255,284.7c-0.2,0-0.3,0-0.4,0c-0.1,0-0.2,0-0.4,0c-0.3,0-0.6-0.1-0.8-0.3c-0.2-0.2-0.3-0.5-0.3-0.9
									s0.1-0.7,0.3-0.9c0.2-0.2,0.4-0.3,0.8-0.3c0.3,0,0.5,0,0.7,0.1h0.1c0.1-0.2,0.1-0.3,0.2-0.5c0-0.1,0-0.1,0-0.1
									c-0.1,0-0.3-0.1-0.5-0.1s-0.3,0-0.5,0c-0.3,0-0.6,0-0.8,0.1s-0.4,0.2-0.6,0.4c-0.1,0.2-0.3,0.4-0.3,0.6
									c-0.1,0.2-0.1,0.5-0.1,0.7c0,0.6,0.2,1,0.5,1.4c0.3,0.3,0.8,0.5,1.4,0.5c0.4,0,0.7-0.1,1-0.2c0,0,0.1,0,0-0.1L255,284.7
									L255,284.7z M256.2,283.2c0-0.2,0.1-0.4,0.2-0.5c0.1-0.2,0.4-0.3,0.7-0.3c0.3,0,0.5,0.1,0.7,0.3c0.1,0.1,0.1,0.3,0.2,0.5
									H256.2L256.2,283.2z M258.6,282.7c-0.1-0.2-0.2-0.4-0.3-0.5c-0.2-0.2-0.3-0.3-0.4-0.3c-0.2-0.1-0.4-0.1-0.7-0.1
									c-0.3,0-0.6,0-0.8,0.1c-0.2,0.1-0.4,0.2-0.5,0.4c-0.1,0.2-0.3,0.4-0.3,0.6c-0.1,0.2-0.1,0.5-0.1,0.7c0,0.3,0,0.5,0.1,0.7
									s0.2,0.4,0.3,0.6c0.2,0.2,0.4,0.3,0.6,0.4s0.5,0.1,0.9,0.1c0.7,0,1-0.2,1.2-0.2c0,0,0.1,0,0-0.1l-0.2-0.4c0-0.1-0.1,0-0.1,0
									c-0.2,0.1-0.4,0.2-1,0.2c-0.4,0-0.6-0.1-0.8-0.3c-0.2-0.2-0.3-0.4-0.3-0.8h2.4c0,0,0.1,0,0.1-0.1
									C258.7,283.7,258.7,283.3,258.6,282.7L258.6,282.7z M237.4,283.2c0-0.2,0.1-0.4,0.2-0.5c0.1-0.2,0.4-0.3,0.7-0.3
									s0.5,0.1,0.7,0.3c0.1,0.1,0.1,0.3,0.2,0.5H237.4L237.4,283.2z M239.7,282.7c-0.1-0.2-0.2-0.4-0.3-0.5
									c-0.2-0.2-0.3-0.3-0.4-0.3c-0.2-0.1-0.4-0.1-0.7-0.1s-0.6,0-0.8,0.1s-0.4,0.2-0.5,0.4c-0.1,0.2-0.3,0.4-0.3,0.6
									c-0.1,0.2-0.1,0.5-0.1,0.7c0,0.3,0,0.5,0.1,0.7s0.2,0.4,0.3,0.6c0.2,0.2,0.4,0.3,0.6,0.4c0.2,0.1,0.5,0.1,0.9,0.1
									c0.7,0,1-0.2,1.2-0.2c0,0,0.1,0,0-0.1l-0.2-0.4c0-0.1-0.1,0-0.1,0c-0.2,0.1-0.4,0.2-1,0.2c-0.4,0-0.6-0.1-0.8-0.3
									c-0.2-0.2-0.3-0.4-0.3-0.8h2.4c0,0,0.1,0,0.1-0.1C239.8,283.7,239.9,283.3,239.7,282.7L239.7,282.7z M232.3,284.7
									c-0.1-0.1-0.1-0.1-0.1-0.1c0-0.1-0.1-0.2-0.1-0.3c0-0.2,0.1-0.3,0.2-0.4c0,0,0.2-0.2,0.7-0.2c0.2,0,0.4,0,0.6,0.1v1.1l0,0
									c0,0-0.3,0.1-0.6,0.1C232.5,284.9,232.3,284.7,232.3,284.7L232.3,284.7z M233.2,283.1c-0.1,0-0.2,0-0.4,0s-0.4,0-0.6,0.1
									c-0.2,0-0.3,0.1-0.5,0.2c-0.1,0.1-0.3,0.2-0.3,0.4c-0.1,0.2-0.1,0.3-0.1,0.5s0,0.4,0.1,0.5s0.2,0.3,0.3,0.4s0.3,0.2,0.5,0.2
									s0.4,0.1,0.6,0.1c0.2,0,0.5,0,0.7-0.1c0.2,0,0.4-0.1,0.6-0.1c0.1,0,0.2,0,0.2,0c0.1,0,0.1-0.1,0.1-0.1v-2.1
									c0-0.5-0.1-0.8-0.4-1c-0.2-0.2-0.6-0.3-1.1-0.3c-0.2,0-0.5,0-0.6,0.1c0,0-0.5,0.1-0.7,0.3c0,0,0,0,0,0.1l0.2,0.4
									c0,0.1,0.1,0,0.1,0l0,0c0.5-0.2,1-0.2,1-0.2c0.3,0,0.5,0.1,0.6,0.1c0.1,0.1,0.2,0.2,0.2,0.6v0.1
									C233.4,283.1,233.2,283.1,233.2,283.1L233.2,283.1z M252.2,281.9L252.2,281.9L252.2,281.9
									C252.2,281.8,252.2,281.8,252.2,281.9C252.2,281.8,252.2,281.8,252.2,281.9c-0.1-0.1-0.3-0.1-0.4-0.1c-0.3,0-0.5,0-0.6,0.1
									s-0.3,0.2-0.4,0.3v-0.3c0,0,0-0.1-0.1-0.1h-0.6c0,0-0.1,0-0.1,0.1v3.4l0,0c0,0,0,0,0.1,0h0.6c0,0,0,0,0.1,0l0,0v-1.7
									c0-0.2,0-0.5,0.1-0.6s0.1-0.3,0.2-0.3c0.1-0.1,0.2-0.1,0.3-0.2c0.1,0,0.2,0,0.3,0s0.3,0,0.3,0s0.1,0,0.1-0.1
									C252.1,282.3,252.2,282,252.2,281.9"/>
								<path class="st14" d="M246.4,280.3c-0.1,0-0.2,0-0.2-0.1c-0.1,0-0.2,0-0.3,0c-0.4,0-0.8,0.1-1,0.4c-0.2,0.2-0.4,0.6-0.5,1
									v0.2h-0.5c0,0-0.1,0-0.1,0.1l-0.1,0.5c0,0,0,0.1,0.1,0.1h0.5l-0.5,2.9c0,0.2-0.1,0.4-0.1,0.6c-0.1,0.1-0.1,0.3-0.2,0.3
									c-0.1,0.1-0.1,0.1-0.2,0.2c-0.1,0-0.2,0-0.3,0s-0.1,0-0.2,0c-0.1,0-0.1,0-0.1,0h-0.1c0,0-0.2,0.4-0.2,0.5v0.1
									c0.1,0,0.1,0,0.2,0.1c0.1,0,0.2,0,0.3,0c0.2,0,0.4,0,0.6-0.1c0.2-0.1,0.3-0.2,0.4-0.3c0.1-0.1,0.2-0.3,0.3-0.5
									s0.2-0.5,0.2-0.8l0.5-3h0.8c0,0,0.1,0,0.1-0.1l0.1-0.5c0,0,0-0.1-0.1-0.1H245c0,0,0-0.3,0.1-0.5c0-0.1,0.1-0.2,0.2-0.2
									c0.1-0.1,0.1-0.1,0.2-0.1c0.1,0,0.2,0,0.3,0s0.1,0,0.2,0c0.1,0,0.1,0,0.1,0c0.1,0,0.1,0,0.1,0L246.4,280.3
									C246.5,280.3,246.4,280.3,246.4,280.3z M235.9,285.3C235.9,285.4,235.9,285.4,235.9,285.3l-0.7,0.1c0,0-0.1,0-0.1-0.1v-4.9
									c0,0,0-0.1,0.1-0.1h0.6c0,0,0.1,0,0.1,0.1L235.9,285.3L235.9,285.3z"/>
							</g>
						</g>
					</g>
				</g>
			</g>
		</g>
	</g>
	<g>
		<g>
			<g>
				<circle class="st1" cx="309.5" cy="144.6" r="29"/>
			</g>
		</g>
		<g>
			<g>
				<g>
					<g>
						<defs>
							
								<rect id="SVGID_00000005265106766790419610000007363766659446283672_" x="295.3" y="128.5" transform="matrix(3.236324e-03 -1 1 3.236324e-03 163.7871 453.6811)" width="28.3" height="32.4"/>
						</defs>
						<clipPath id="SVGID_00000065789317654382647420000014800029539346157204_">
							<use xlink:href="#SVGID_00000005265106766790419610000007363766659446283672_"  style="overflow:visible;"/>
						</clipPath>
						<g style="clip-path:url(#SVGID_00000065789317654382647420000014800029539346157204_);">
							<path class="st16" d="M307.9,130.7l-12.1,5c-0.7,0.3-0.7,1.3,0,1.5l12.2,4.9c1.1,0.4,2.3,0.4,3.3,0l12.2-4.9
								c0.7-0.3,0.7-1.2,0-1.5l-12.1-5.1C310.2,130.3,309,130.3,307.9,130.7"/>
							<path class="st17" d="M310.4,145v12.3c0,0.6,0.6,1,1.1,0.8l13.6-5.3c0.2-0.1,0.3-0.2,0.4-0.3s0.1-0.3,0.1-0.5v-12.3
								c0-0.6-0.6-1-1.1-0.8l-13.6,5.3c-0.2,0.1-0.3,0.2-0.4,0.3C310.5,144.7,310.4,144.8,310.4,145"/>
							<path class="st18" d="M307.5,145.6l-4,2l-0.4,0.2l-8.5,4.1c-0.5,0.3-1.2-0.1-1.2-0.7v-11.5c0-0.2,0.1-0.4,0.3-0.6
								c0.1-0.1,0.1-0.1,0.2-0.2c0.2-0.1,0.5-0.2,0.7-0.1l12.9,5.2C308.1,144.3,308.1,145.2,307.5,145.6"/>
							<path class="st19" d="M307.5,145.6l-4,2l-9.8-8.5c0.1-0.1,0.1-0.1,0.2-0.2c0.2-0.1,0.5-0.2,0.7-0.1l12.9,5.2
								C308.1,144.3,308.1,145.2,307.5,145.6"/>
						</g>
					</g>
				</g>
			</g>
		</g>
	</g>
	<g>
		<g>
			<g>
				<circle class="st1" cx="411.1" cy="542.5" r="29"/>
			</g>
		</g>
		<g>
			<g>
				<g>
					<g>
						<defs>
							<rect id="SVGID_00000178203236520865669520000017014660469063959686_" x="394.3" y="526.9" width="33.5" height="31.1"/>
						</defs>
						<clipPath id="SVGID_00000137846291485505418670000016453803038894419340_">
							<use xlink:href="#SVGID_00000178203236520865669520000017014660469063959686_"  style="overflow:visible;"/>
						</clipPath>
						<g style="clip-path:url(#SVGID_00000137846291485505418670000016453803038894419340_);">
							<path class="st21" d="M404.1,526.9l-9.8,6.3l6.8,5.4l9.7-6.1L404.1,526.9z M394.3,543.9l9.8,6.4l6.8-5.7l-9.7-6L394.3,543.9z
								 M410.9,544.6l6.9,5.7l9.7-6.3l-6.7-5.4L410.9,544.6z M427.4,533.2l-9.7-6.3l-6.9,5.7l9.8,6.1L427.4,533.2z M411,545.9
								l-6.9,5.7l-2.9-1.9v2.2l9.7,5.8l9.8-5.8v-2.2l-3,1.9L411,545.9z"/>
						</g>
					</g>
				</g>
			</g>
		</g>
	</g>
	<g>
		<g>
			<g>
				<circle class="st1" cx="160.4" cy="405.2" r="29"/>
			</g>
		</g>
		<g>
			<path class="st22" d="M166.2,401.4h8.7c0.8,0,1.5,0.7,1.5,1.5v7.9c0,3-2.4,5.4-5.4,5.4h0c-3,0-5.4-2.4-5.4-5.4v0v-8.6
				C165.4,401.7,165.7,401.4,166.2,401.4z"/>
			<circle class="st22" cx="172" cy="396.3" r="3.5"/>
			<path class="st23" d="M161.1,389.7c2.8,0,5.1,2.3,5.1,5.1c0,2.8-2.3,5.1-5.1,5.1s-5.1-2.3-5.1-5.1S158.3,389.7,161.1,389.7"/>
			<path class="st23" d="M167.9,401.4h-14.3c-0.8,0-1.4,0.7-1.4,1.5v9c-0.1,4.8,3.7,8.9,8.6,9c4.8-0.1,8.7-4.1,8.6-9v-9
				C169.3,402.1,168.7,401.4,167.9,401.4"/>
			<path class="st24" d="M161.5,401.4h-0.8v11.8l0,0v1.6c0,0.2,0,0.4-0.1,0.5l0,0l0,0c0.5-0.2,0.9-0.7,0.9-1.3V401.4"/>
			<path class="st25" d="M160.6,415.3c-0.2,0.1-0.4,0.1-0.5,0.1h-7.2c0.1,0.3,0.2,0.5,0.4,0.8h6.1
				C159.9,416.2,160.4,415.9,160.6,415.3 M152.6,414.6c0.1,0.3,0.2,0.5,0.3,0.8C152.7,415.2,152.6,414.9,152.6,414.6 M152.2,411.9
				c0,0.9,0.1,1.8,0.4,2.7C152.3,413.8,152.2,412.8,152.2,411.9"/>
			<path class="st26" d="M152.2,402.9v9c0,0,0,0,0,0s0,0,0,0V402.9C152.2,402.9,152.2,402.9,152.2,402.9 M153.6,401.4L153.6,401.4
				c-0.8,0-1.4,0.7-1.4,1.5c0,0,0,0,0,0c0,0,0,0,0,0c0,0,0,0,0,0C152.2,402.1,152.8,401.4,153.6,401.4"/>
			<path class="st27" d="M152.2,402.9C152.2,402.9,152.2,402.9,152.2,402.9C152.2,402.9,152.2,402.9,152.2,402.9L152.2,402.9
				C152.2,402.9,152.2,402.9,152.2,402.9v9c0,0,0,0,0,0c0,0,0,0,0,0c0,0.9,0.1,1.8,0.4,2.7l0,0l0,0c0.1,0.3,0.2,0.5,0.3,0.8l0,0l0,0
				h7.2c0.2,0,0.4,0,0.5-0.1l0,0c0.1-0.2,0.1-0.4,0.1-0.5v-1.6c0,0.8-0.6,1.4-1.4,1.4h-6.7c-0.3-0.9-0.4-1.8-0.4-2.8L152.2,402.9
				C152.2,402.9,152.2,402.9,152.2,402.9"/>
			<path class="st28" d="M160.7,401.4h-0.8v11.8c0,0.8-0.6,1.4-1.4,1.4h-6c-0.3-0.9-0.4-1.8-0.4-2.8v-9c0,0,0,0,0,0l0,0c0,0,0,0,0,0
				v9c0,0.9,0.1,1.9,0.4,2.8h6.7c0.8,0,1.4-0.6,1.4-1.4V401.4"/>
			<path class="st29" d="M159.9,401.4h-6.4c-0.8,0-1.4,0.7-1.4,1.5c0,0,0,0,0,0c0-0.8,0.6-1.4,1.4-1.5H159.9"/>
			<path class="st30" d="M159.9,401.4h-6.4c-0.8,0-1.4,0.7-1.4,1.5c0,0,0,0,0,0v9c0,0.9,0.1,1.9,0.4,2.8h6c0.8,0,1.4-0.6,1.4-1.4
				V401.4"/>
			<path class="st31" d="M160.3,399.8c0.1,0,0.2,0,0.3,0l0,0C160.5,399.8,160.4,399.8,160.3,399.8
				C160.3,399.8,160.3,399.8,160.3,399.8"/>
			<path class="st24" d="M160.1,395.9h-3.9c0.1,0.3,0.1,0.5,0.2,0.8c0.6,1.5,1.9,2.6,3.5,3c0.1,0,0.2,0.1,0.4,0.1l0,0
				c-0.1,0-0.2,0-0.4-0.1c-0.7-0.2-1.4-0.5-2-1c-0.7-0.5-1.2-1.2-1.5-2h2.1c0,0,0,0,0,0h0.8c0.8,0,1.4,0.6,1.4,1.4v1.7l0,0
				c0,0-0.1,0-0.1,0l0,0c0,0,0.1,0,0.1,0c0.1,0,0.3,0,0.4,0c0.1,0,0.3,0,0.4,0v-2.5C161.5,396.6,160.9,396,160.1,395.9"/>
			<path class="st32" d="M160.3,399.8c0.1,0,0.2,0,0.3,0C160.5,399.8,160.4,399.8,160.3,399.8"/>
			<path class="st28" d="M159.3,396.7h-0.8c0.8,0,1.4,0.6,1.4,1.4v1.6c-0.7-0.2-1.4-0.5-2-1c0.6,0.5,1.3,0.8,2,1
				c0.1,0,0.2,0.1,0.4,0.1c0.1,0,0.2,0,0.3,0c0,0,0.1,0,0.1,0v-1.7C160.7,397.4,160.1,396.7,159.3,396.7"/>
			<path class="st27" d="M158.5,396.7h-2.1c0.3,0.8,0.9,1.5,1.5,2c-0.7-0.5-1.2-1.2-1.5-2l0,0l0,0H158.5
				C158.5,396.7,158.5,396.7,158.5,396.7"/>
			<path class="st30" d="M158.5,396.7h-2.1c0.3,0.8,0.9,1.5,1.5,2c0.6,0.5,1.3,0.8,2,1v-1.6C159.9,397.4,159.3,396.7,158.5,396.7"/>
			
				<linearGradient id="SVGID_00000115514301132071652300000003863027553759817094_" gradientUnits="userSpaceOnUse" x1="101.6257" y1="596.8349" x2="101.6408" y2="596.8349" gradientTransform="matrix(744.1345 1288.8104 -1288.8104 744.1345 693729.625 -574706.125)">
				<stop  offset="0" style="stop-color:#5A62C3"/>
				<stop  offset="0.5" style="stop-color:#4D55BD"/>
				<stop  offset="1" style="stop-color:#3940AB"/>
			</linearGradient>
			<path style="fill:url(#SVGID_00000115514301132071652300000003863027553759817094_);" d="M144.2,396.7h14.3
				c0.8,0,1.4,0.6,1.4,1.4v14.3c0,0.8-0.6,1.4-1.4,1.4h-14.3c-0.8,0-1.4-0.6-1.4-1.4v-14.3C142.8,397.4,143.4,396.7,144.2,396.7z"/>
			<polygon class="st1" points="155.1,402.2 152.3,402.2 152.3,409.9 150.5,409.9 150.5,402.2 147.6,402.2 147.6,400.7 155.1,400.7 
							"/>
		</g>
	</g>
	<g>
		<g>
			<g>
				<circle class="st1" cx="550.6" cy="291" r="29"/>
			</g>
		</g>
		<g>
			<g>
				<g>
					<g>
						<defs>
							<rect id="SVGID_00000078761788620974227090000004924460775456964496_" x="533.2" y="278.4" width="34.8" height="25.2"/>
						</defs>
						<clipPath id="SVGID_00000089560937177588976660000011283034011410122138_">
							<use xlink:href="#SVGID_00000078761788620974227090000004924460775456964496_"  style="overflow:visible;"/>
						</clipPath>
						<g style="clip-path:url(#SVGID_00000089560937177588976660000011283034011410122138_);">
							<path class="st35" d="M565.1,278.4c1.6,0,2.9,1.3,2.9,2.9v0.8l-4,2.8l-13.5,9.3l-13.5-9.4v18.8h-1c-1.6,0-2.9-1.3-2.9-2.9
								v-19.5c0-1.6,1.3-2.9,2.9-2.9l14.5,10.8L565.1,278.4L565.1,278.4z"/>
							
								<linearGradient id="SVGID_00000160896097557268568780000014842673533069121439_" gradientUnits="userSpaceOnUse" x1="541.2596" y1="479.8" x2="559.85" y2="479.8" gradientTransform="matrix(1 0 0 1 0 -196)">
								<stop  offset="0" style="stop-color:#F8F6EF"/>
								<stop  offset="1" style="stop-color:#E7E4D6"/>
							</linearGradient>
							<path style="fill:url(#SVGID_00000160896097557268568780000014842673533069121439_);" d="M536,278.4l14.5,10.8l14.6-10.8H536
								z"/>
							<path class="st37" d="M537,284.8v18.8h27v-18.7l-13.5,9.3L537,284.8z"/>
							<path class="st38" d="M537,303.6l13.5-9.4h-0.1l-13.4,9.2V303.6z"/>
							<path class="st39" d="M564,284.9v18.7l-13.5-9.4L564,284.9z"/>
							<path class="st40" d="M568,282.1v18.7c-0.1,2.1-1,2.8-4,2.8v-18.7L568,282.1L568,282.1z"/>
							
								<linearGradient id="SVGID_00000177461014089283190900000004198538222913090219_" gradientUnits="userSpaceOnUse" x1="541.2596" y1="479.8" x2="559.85" y2="479.8" gradientTransform="matrix(1 0 0 1 0 -196)">
								<stop  offset="0" style="stop-color:#F8F6EF"/>
								<stop  offset="1" style="stop-color:#E7E4D6"/>
							</linearGradient>
							<path style="fill:url(#SVGID_00000177461014089283190900000004198538222913090219_);" d="M536,278.4l14.5,10.8l14.6-10.8H536
								z"/>
							
								<linearGradient id="SVGID_00000172433726159166122990000012530511561342052536_" gradientUnits="userSpaceOnUse" x1="541.2596" y1="479.8" x2="559.85" y2="479.8" gradientTransform="matrix(1 0 0 1 0 -196)">
								<stop  offset="0" style="stop-color:#F8F6EF"/>
								<stop  offset="1" style="stop-color:#E7E4D6"/>
							</linearGradient>
							<path style="fill:url(#SVGID_00000172433726159166122990000012530511561342052536_);" d="M536,278.4l14.5,10.8l14.6-10.8H536
								z"/>
							
								<linearGradient id="SVGID_00000061442199825498707450000006902554190089822876_" gradientUnits="userSpaceOnUse" x1="541.2596" y1="479.8" x2="559.85" y2="479.8" gradientTransform="matrix(1 0 0 1 0 -196)">
								<stop  offset="0" style="stop-color:#F8F6EF"/>
								<stop  offset="1" style="stop-color:#E7E4D6"/>
							</linearGradient>
							<path style="fill:url(#SVGID_00000061442199825498707450000006902554190089822876_);" d="M536,278.4l14.5,10.8l14.6-10.8H536
								z"/>
							
								<linearGradient id="SVGID_00000037678444818335890560000015495535485425294512_" gradientUnits="userSpaceOnUse" x1="541.2596" y1="479.8" x2="559.85" y2="479.8" gradientTransform="matrix(1 0 0 1 0 -196)">
								<stop  offset="0" style="stop-color:#F8F6EF"/>
								<stop  offset="1" style="stop-color:#E7E4D6"/>
							</linearGradient>
							<path style="fill:url(#SVGID_00000037678444818335890560000015495535485425294512_);" d="M536,278.4l14.5,10.8l14.6-10.8H536
								z"/>
							
								<linearGradient id="SVGID_00000158006742864312414760000000911652378326097298_" gradientUnits="userSpaceOnUse" x1="541.2596" y1="479.8" x2="559.85" y2="479.8" gradientTransform="matrix(1 0 0 1 0 -196)">
								<stop  offset="0" style="stop-color:#F8F6EF"/>
								<stop  offset="1" style="stop-color:#E7E4D6"/>
							</linearGradient>
							<path style="fill:url(#SVGID_00000158006742864312414760000000911652378326097298_);" d="M536,278.4l14.5,10.8l14.6-10.8H536
								z"/>
							
								<linearGradient id="SVGID_00000147908920075367440950000007968161961186449081_" gradientUnits="userSpaceOnUse" x1="541.2596" y1="479.8" x2="559.85" y2="479.8" gradientTransform="matrix(1 0 0 1 0 -196)">
								<stop  offset="0" style="stop-color:#F8F6EF"/>
								<stop  offset="1" style="stop-color:#E7E4D6"/>
							</linearGradient>
							<path style="fill:url(#SVGID_00000147908920075367440950000007968161961186449081_);" d="M536,278.4l14.5,10.8l14.6-10.8H536
								z"/>
							
								<linearGradient id="SVGID_00000095336041954430534430000008485363611766134166_" gradientUnits="userSpaceOnUse" x1="541.2596" y1="479.8" x2="559.85" y2="479.8" gradientTransform="matrix(1 0 0 1 0 -196)">
								<stop  offset="0" style="stop-color:#F8F6EF"/>
								<stop  offset="1" style="stop-color:#E7E4D6"/>
							</linearGradient>
							<path style="fill:url(#SVGID_00000095336041954430534430000008485363611766134166_);" d="M536,278.4l14.5,10.8l14.6-10.8H536
								z"/>
							<path class="st48" d="M536,278.4l14.5,10.8l14.6-10.8H536z"/>
						</g>
					</g>
				</g>
			</g>
		</g>
	</g>
	<g>
		<g>
			<g>
				<circle class="st1" cx="604.4" cy="483.6" r="29"/>
			</g>
		</g>
		<g>
			<g>
				<g>
					<g>
						<defs>
							<rect id="SVGID_00000176751535438559667580000017168318933721030585_" x="585.1" y="471.5" width="38.6" height="24.3"/>
						</defs>
						<clipPath id="SVGID_00000122699659093205367900000008303491850272569010_">
							<use xlink:href="#SVGID_00000176751535438559667580000017168318933721030585_"  style="overflow:visible;"/>
						</clipPath>
						<g style="clip-path:url(#SVGID_00000122699659093205367900000008303491850272569010_);">
							<path class="st50" d="M589.9,495.3c-0.9,0-1.7-0.2-2.4-0.7c-0.7-0.4-1.3-1.1-1.8-1.8c-0.4-0.8-0.6-1.6-0.6-2.5
								s0.3-1.7,0.7-2.4l8.6-13.9c0.4-0.7,1.1-1.4,1.8-1.8s1.6-0.6,2.4-0.6c0.9,0,1.7,0.3,2.4,0.7c0.7,0.5,1.3,1.1,1.7,1.9
								c0.8,1.6,0.7,3.4-0.3,4.9l-8.6,13.9c-0.4,0.7-1,1.3-1.7,1.7C591.5,495.1,590.7,495.3,589.9,495.3z"/>
							<path class="st51" d="M604.7,495.3c-1.7,0-3.3-1-4.2-2.5c-0.4-0.7-0.6-1.6-0.6-2.5s0.3-1.7,0.7-2.4l8.6-13.8
								c0.4-0.8,1.1-1.4,1.8-1.8s1.6-0.6,2.5-0.6c1.8,0,3.3,1,4.1,2.6s0.7,3.5-0.3,4.9l-8.6,13.8c-0.4,0.7-1,1.3-1.7,1.7
								C606.3,495.1,605.5,495.3,604.7,495.3z"/>
							<path class="st52" d="M619.1,495.5c2.5,0,4.4-2,4.4-4.4c0-2.5-2-4.4-4.4-4.4c-2.5,0-4.4,2-4.4,4.4
								C614.7,493.5,616.7,495.5,619.1,495.5z"/>
						</g>
					</g>
				</g>
			</g>
		</g>
	</g>
	<g>
		<g>
			<g>
				<circle class="st1" cx="509" cy="104.6" r="29"/>
			</g>
		</g>
		<g>
			<g>
				<g>
					<g>
						<defs>
							<rect id="SVGID_00000116923612615238063260000016834702027664074429_" x="492" y="89.2" width="33.9" height="30.8"/>
						</defs>
						<clipPath id="SVGID_00000067918087176802961000000013915327195679959957_">
							<use xlink:href="#SVGID_00000116923612615238063260000016834702027664074429_"  style="overflow:visible;"/>
						</clipPath>
						<g style="clip-path:url(#SVGID_00000067918087176802961000000013915327195679959957_);">
							<path class="st54" d="M503.6,93.1c0.3-0.9,0.8-1.6,1.4-2.3c2.7-2.6,7.1-1.9,8.9,1.3c1.4,2.5,2.8,4.9,4.2,7.3
								c2.3,4.1,4.7,8.1,7,12.2c1.9,3.4-0.2,7.7-4,8.3c-2.4,0.4-4.6-0.7-5.8-2.9c-2.1-3.6-4.1-7.1-6.2-10.7c0-0.1-0.1-0.1-0.1-0.2
								c-0.2-0.2-0.3-0.4-0.4-0.7c-0.9-1.6-1.9-3.2-2.8-4.8c-0.6-1-1.2-2.1-1.8-3.1c-0.5-0.9-0.8-1.9-0.7-3
								C503.3,94.1,503.4,93.6,503.6,93.1z"/>
							<path class="st55" d="M503.6,93.1c-0.1,0.5-0.2,1-0.3,1.5c0,1.1,0.2,2.2,0.8,3.2c1.5,2.6,3,5.1,4.5,7.7
								c0.1,0.2,0.2,0.5,0.4,0.7c-0.8,1.4-1.6,2.8-2.5,4.2c-1.1,2-2.3,4-3.4,5.9c-0.1,0-0.1,0-0.1-0.1s0-0.2,0.1-0.3
								c0.6-2,0.1-3.8-1.3-5.4c-0.9-0.9-1.9-1.5-3.2-1.6c-1.6-0.2-3.1,0.2-4.4,1.2c-0.2,0.2-0.4,0.4-0.7,0.6c-0.1,0-0.1,0-0.1-0.1
								c0.7-1.1,1.3-2.3,1.9-3.4c2.7-4.7,5.4-9.3,8.1-14C503.5,93.2,503.6,93.2,503.6,93.1z"/>
							<path class="st56" d="M493.5,110.7c0.3-0.2,0.5-0.5,0.8-0.7c3.3-2.6,8.3-0.7,9,3.4c0.2,1,0.1,1.9-0.2,2.9
								c0,0.1,0,0.1-0.1,0.2c-0.1,0.2-0.2,0.4-0.4,0.7c-1.2,2-3,3-5.3,2.8c-2.7-0.2-4.8-2.2-5.2-4.9c-0.2-1.3,0.1-2.5,0.7-3.6
								c0.1-0.2,0.3-0.5,0.4-0.7C493.4,110.8,493.4,110.7,493.5,110.7z"/>
							<path class="st55" d="M493.5,110.7c-0.1,0.1-0.1,0.1-0.1,0.2C493.4,110.7,493.4,110.7,493.5,110.7L493.5,110.7z"/>
							<path class="st57" d="M503,116.5c-0.1-0.1,0-0.2,0.1-0.2c0,0,0,0,0.1,0.1L503,116.5z"/>
						</g>
					</g>
				</g>
			</g>
		</g>
	</g>
	<g>
		<g>
			<g>
				<circle class="st1" cx="112.3" cy="200.3" r="29"/>
			</g>
		</g>
		<g>
			<g>
				<g>
					<g>
						<defs>
							<rect id="SVGID_00000155856159363827559630000005074213837926903681_" x="96.1" y="184" width="32.5" height="32.5"/>
						</defs>
						<clipPath id="SVGID_00000043427723997576281830000012223111621811701408_">
							<use xlink:href="#SVGID_00000155856159363827559630000005074213837926903681_"  style="overflow:visible;"/>
						</clipPath>
						<g style="clip-path:url(#SVGID_00000043427723997576281830000012223111621811701408_);">
							<path class="st59" d="M123.7,211.7H119v-7.5c0-1.8,0-4.1-2.5-4.1s-2.8,2-2.8,4v7.7H109v-15.5h4.5v2.1h0.1
								c0.5-0.8,1.1-1.4,1.9-1.9s1.7-0.7,2.6-0.6c4.8,0,5.7,3.2,5.7,7.4L123.7,211.7z M103.6,194.1c-0.5,0-1.1-0.2-1.5-0.5
								c-0.5-0.3-0.8-0.7-1-1.3c-0.2-0.5-0.3-1.1-0.2-1.6c0.1-0.5,0.4-1,0.8-1.4s0.9-0.7,1.4-0.8s1.1-0.1,1.6,0.2
								c0.5,0.2,0.9,0.6,1.2,1c0.3,0.5,0.5,1,0.5,1.5c0,0.4-0.1,0.7-0.2,1.1c-0.1,0.3-0.3,0.6-0.6,0.9c-0.3,0.3-0.6,0.5-0.9,0.6
								C104.3,194,104,194.1,103.6,194.1z M106,211.7h-4.7v-15.5h4.7V211.7z M126,184H98.9c-0.6,0-1.2,0.2-1.7,0.7
								c-0.4,0.4-0.7,1-0.7,1.7v27.7c0,0.6,0.3,1.2,0.7,1.7c0.4,0.4,1,0.7,1.7,0.7H126c0.6,0,1.2-0.2,1.7-0.7c0.4-0.4,0.7-1,0.7-1.7
								v-27.7c0-0.6-0.3-1.2-0.7-1.7C127.3,184.3,126.7,184,126,184L126,184z"/>
						</g>
					</g>
				</g>
			</g>
		</g>
	</g>
	<g>
		<g>
			<g>
				<circle class="st1" cx="465" cy="408" r="29"/>
			</g>
		</g>
		<g>
			<g>
				<g>
					<g>
						<defs>
							<rect id="SVGID_00000055681257908585447140000001237063984338538916_" x="449.1" y="392.7" width="31.9" height="30.7"/>
						</defs>
						<clipPath id="SVGID_00000097493746579871386410000016749211967592664991_">
							<use xlink:href="#SVGID_00000055681257908585447140000001237063984338538916_"  style="overflow:visible;"/>
						</clipPath>
						<g style="clip-path:url(#SVGID_00000097493746579871386410000016749211967592664991_);">
							<path class="st61" d="M480.4,405v-0.1l-4.3-11.3c-0.1-0.2-0.2-0.4-0.4-0.5c-0.1-0.1-0.3-0.2-0.5-0.2s-0.4,0-0.5,0.1
								c-0.2,0.1-0.3,0.2-0.4,0.3c-0.1,0.1-0.2,0.3-0.3,0.5l-2.9,8.9h-11.8l-2.9-8.9c0-0.2-0.1-0.3-0.3-0.5
								c-0.1-0.1-0.3-0.2-0.4-0.3c-0.2-0.1-0.3-0.1-0.5-0.1s-0.3,0.1-0.5,0.2s-0.4,0.3-0.4,0.5l-4.3,11.3v0.1
								c-0.6,1.6-0.7,3.4-0.2,5.1s1.5,3.1,2.9,4.2l0,0l0,0l6.5,4.9l3.2,2.5l2,1.5c0.2,0.2,0.5,0.3,0.8,0.3s0.6-0.1,0.8-0.3l2-1.5
								l3.2-2.5l6.6-4.9l0,0c1.4-1,2.4-2.5,2.9-4.2C481.1,408.4,481,406.6,480.4,405z"/>
							<path class="st62" d="M480.4,405v-0.1c-2.1,0.4-4.1,1.3-5.8,2.6l-9.4,7.2l6,4.6l6.6-4.9l0,0c1.4-1,2.4-2.5,2.9-4.2
								C481.1,408.4,481,406.6,480.4,405z"/>
							<path class="st63" d="M459.1,419.2l3.2,2.5l2,1.5c0.2,0.2,0.5,0.3,0.8,0.3s0.6-0.1,0.8-0.3l2-1.5l3.2-2.5l-6-4.6L459.1,419.2
								z"/>
							<path class="st62" d="M455.6,407.5c-1.7-1.3-3.7-2.2-5.8-2.6v0.1c-0.6,1.6-0.7,3.4-0.2,5.1s1.5,3.1,2.9,4.2l0,0l0,0l6.5,4.9
								l6-4.6L455.6,407.5z"/>
						</g>
					</g>
				</g>
			</g>
		</g>
	</g>
	<g>
		<circle class="st64" cx="351.7" cy="350.3" r="77.8"/>
		<circle class="st65" cx="351.7" cy="350.3" r="63.6"/>
		<circle class="st66" cx="351.7" cy="350.3" r="52.6"/>
		<g>
			<g>
				<circle class="st67" cx="351.7" cy="350.3" r="43.8"/>
			</g>
		</g>
		<g>
			<path class="st1" d="M340.9,349.4c0-4.9,3.9-8.9,8.9-8.9c4.9,0,8.9,3.9,8.9,8.9c0,4.9-3.9,8.9-8.9,8.9
				C344.8,358.2,340.9,354.2,340.9,349.4"/>
			<path class="st1" d="M375,366.6l-6.2-5.3c2.2-3.5,3.5-7.6,3.5-11.9c0-12.4-10.1-22.5-22.5-22.5s-22.5,10.1-22.5,22.5
				s10.1,22.5,22.5,22.5c4.8,0,9.3-1.5,12.9-4.1l6.7,5.6c0,0,1,0.9,1.9-0.1l3.9-4.7C375.1,368.5,376,367.4,375,366.6 M363.5,349.4
				c0,7.7-6.1,13.8-13.8,13.8c-7.7,0-13.8-6.1-13.8-13.8c0-7.7,6.1-13.8,13.8-13.8S363.5,341.8,363.5,349.4 M371.2,333.5
				c0-1.3,1.1-2.4,2.4-2.4s2.4,1.1,2.4,2.4s-1.1,2.4-2.4,2.4C372.3,335.9,371.2,334.8,371.2,333.5 M373.6,331.5
				c-1.2,0-2.1,1-2.1,2.1c0,1.2,0.9,2.1,2.1,2.1s2.1-1,2.1-2.1C375.7,332.3,374.8,331.5,373.6,331.5 M373.1,335.1h-0.3v-3h1.1
				c0.5,0,0.9,0.2,0.9,0.9c0,0.4-0.2,0.8-0.7,0.9l0.9,1.3h-0.4l-0.8-1.3h-0.5v1.2H373.1z M373.1,333.4h0.7c0.4,0,0.7-0.1,0.7-0.5
				s-0.3-0.5-0.7-0.5h-0.7V333.4z"/>
		</g>
	</g>
</g>
</svg>
