<?xml version="1.0" encoding="utf-8"?>
<!-- Generator: Adobe Illustrator 28.0.0, SVG Export Plug-In . SVG Version: 6.00 Build 0)  -->
<svg version="1.1" id="Layer_1" xmlns="http://www.w3.org/2000/svg" xmlns:xlink="http://www.w3.org/1999/xlink" x="0px" y="0px"
	 viewBox="0 0 87.7 41.1" style="enable-background:new 0 0 87.7 41.1;" xml:space="preserve">
<style type="text/css">
	.st0{fill:#494949;}
	.st1{fill-rule:evenodd;clip-rule:evenodd;fill:#494949;}
</style>
<path id="Combined-Shape-Copy-2" class="st0" d="M12.6,4c-0.1-0.2,0.1-0.7,0.4-1.1c0.3-0.4,0.4-0.5,0.8-0.7c0.9-0.5,2.1-0.8,2.9-0.6
	c0.2,0,0.4,0.1,0.4,0.1s0,0.1-0.1,0.2C16.9,2.2,16,3,15.6,3.3c-0.7,0.5-0.9,0.5-1.5,0.7C13.5,4.1,12.7,4.1,12.6,4L12.6,4z M9.9,4.2
	c0-1.1,0.3-1.8,1.1-2.7c0.5-0.5,0.6-0.7,1.1-0.9c0.3-0.2,0.6-0.3,0.6-0.3s0.1,0.2,0.1,0.4c0,0.4-0.2,1.4-0.5,2.2
	c-0.2,0.7-0.6,1.4-1,1.8c-0.4,0.4-0.9,0.8-1.1,0.7C10.1,5.2,9.9,4.6,9.9,4.2L9.9,4.2z M11.1,6.1c-0.2-0.2-0.2-0.2-0.1-0.4
	c0.3-0.6,1.2-0.9,2.3-0.9c0.7,0,1.4,0.2,2,0.6c0.2,0.1,0.4,0.2,0.4,0.2c0.1,0.1,0.1,0.1,0,0.2c-0.2,0.2-1.1,0.6-1.7,0.7
	C12.8,6.7,11.6,6.6,11.1,6.1L11.1,6.1z M7.3,8C6.7,7.1,6.8,5.7,7.5,4.3c0.3-0.5,1.2-1.5,1.4-1.6l0.2-0.1l0.1,0.3
	c0.2,0.8,0.1,2.2-0.2,3.1S8,8,7.6,8.1C7.5,8.2,7.4,8.1,7.3,8L7.3,8z M8.3,8.8c0,0,0-0.2,0.1-0.3c0.5-1.2,2.5-1.8,4.1-1.3
	c0.5,0.2,0.8,0.3,0.7,0.5c-0.3,0.4-1.4,1-2.1,1.2C10.3,9.1,9.5,9.1,8.8,9c-0.1,0-0.1,0-0.2-0.1l-0.1,0C8.4,8.8,8.3,8.8,8.3,8.8
	L8.3,8.8z M5.2,28.9c-1.4-3.2-1.9-7.1-1.4-10.5c0-0.3,0.1-0.8,0.2-1.2L4,17c0.1-0.7,0.2-1.3,0.2-1.3c0,0,0.2-0.6,0.4-1.3
	c0.5-1.5,1-2.5,1.7-3.8c0.7-1.1,1.4-2.1,2.2-3.1C9.1,6.9,10,6,9.8,6.3c0,0-0.4,0.5-0.8,1C7.9,8.5,7.6,8.9,7,10
	c-1.2,1.9-2,3.8-2.4,5.7c-0.4,1.5-0.7,4.7-0.6,5.5c0,0.2,0.1,0.6,0.1,1c0.1,1.4,0.5,3.4,1,5.1c1.7,5,5.5,9.4,10.1,11.6
	c1.2,0.6,2.7,1.1,4.8,1.7c0.2,0,0.3,0.1,0.2,0.3c0,0.1,0,0.2-0.1,0.3c-0.2,0.2-3.3-0.8-5.1-1.7C10.7,37.3,7.1,33.4,5.2,28.9
	L5.2,28.9z M6.3,12.1l0-0.2c0-0.3,0.3-0.9,0.6-1.1c0.5-0.5,1.3-0.8,2.3-0.9c0.6-0.1,1.6,0.1,1.8,0.2c0.1,0.1-0.1,0.2-0.5,0.6
	c-0.5,0.5-0.7,0.6-1.1,0.9c-1,0.6-1.6,0.7-2.6,0.6L6.3,12.1L6.3,12.1z M4.9,11c-0.2-0.2-0.3-0.4-0.4-0.9C4.2,9,4.3,8,4.9,6.8
	c0.3-0.6,0.8-1.2,0.8-1.2c0,0,0.1,0.3,0.2,0.6c0.3,0.9,0.4,2,0.4,2.7c0,0.9-0.3,1.8-0.7,2.3C5.3,11.6,5.4,11.6,4.9,11L4.9,11z
	 M5,15.7c-0.1-0.1,0-0.7,0.2-1.2c0.3-0.7,1.3-1.4,2.2-1.6c0.4-0.1,1.8-0.2,1.8-0.1c0,0,0,0.1,0,0.1c0,0.4-0.9,1.4-1.6,1.9
	C7.4,15,7,15.3,6.7,15.4C6.2,15.6,5.1,15.8,5,15.7L5,15.7z M2.5,13.8c-0.3-1-0.3-2.1,0.1-3.3c0.1-0.3,0.2-0.6,0.3-0.8
	c0.1-0.2,0.4,0,0.7,0.7c0.6,1.1,0.8,2,0.8,3c0,0.5-0.1,1.1-0.1,1.3c-0.1,0.4-0.3,0.8-0.5,0.8c0,0-0.3-0.2-0.5-0.5l-0.1-0.1
	C2.7,14.4,2.6,14.4,2.5,13.8L2.5,13.8z M4.3,19.8c0,0-0.1-0.3,0-0.5C4.3,18,5,17,6.2,16.4C6.7,16.2,7.6,15.9,8,16c0.2,0,0.2,0,0,0.4
	c-0.6,1.5-1.6,2.7-2.8,3.2C4.9,19.8,4.4,19.9,4.3,19.8L4.3,19.8z M4.5,24.1l-0.1-0.3c-0.2-0.6-0.2-1.2,0-1.7
	c0.1-0.2,0.2-0.5,0.2-0.6c0.1-0.3,1.1-1.3,1.6-1.6c0.4-0.3,1.3-0.6,1.4-0.5c0,0,0,0.2,0,0.4c-0.1,0.6-0.5,1.8-0.8,2.3
	c-0.2,0.4-0.4,0.7-0.8,1.1l-0.1,0.1l-0.2,0.1C5.4,23.8,5.3,23.9,5,24C5,24,4.5,24.1,4.5,24.1z M0.8,15.6c0-0.5,0.2-1.7,0.3-1.7
	c0.1-0.1,0.7,0.6,1,1.1c0.8,1.1,1.3,2.4,1.4,3.3c0,0.5-0.1,1.5-0.2,1.6c-0.1,0.1-0.8-0.2-1.2-0.5C1.3,18.6,0.7,16.9,0.8,15.6
	L0.8,15.6z M5.4,27.5c-0.3-0.8-0.2-1.7,0.3-2.6c0.3-0.5,1.2-1.4,1.7-1.7c0.2-0.1,0.4-0.2,0.4-0.2s0.1,0.3,0.1,0.5
	c0,1.1-0.3,2.4-0.8,3.2C6.9,27.2,6.3,27.9,6,28C5.8,28.2,5.6,28,5.4,27.5L5.4,27.5z M7,30.8c-0.3-1,0.1-2.5,1-3.7
	c0.3-0.4,0.8-0.7,0.9-0.6c0,0,0.1,0.3,0.1,0.6c0.1,0.7,0.1,2,0,2.7c-0.1,0.3-0.2,0.7-0.4,1c-0.2,0.5-0.8,1.2-1,1.2
	C7.6,31.8,7.1,31.2,7,30.8z M0.4,21.6C0.1,20.9,0,20.1,0,19.3c0-0.4,0-0.5,0.1-0.5c0.3,0.1,1.5,1.2,2.1,1.9c0.7,0.9,1.2,2.1,1.3,3.1
	l0,0.5l-0.4-0.1c-0.7-0.1-1-0.3-1.5-0.8C1,23,0.7,22.5,0.4,21.6L0.4,21.6z M9.3,33.7c-0.1-0.2-0.1-0.6-0.1-1c0-0.8,0.3-1.7,0.8-2.4
	c0.2-0.2,0.4-0.5,0.4-0.6c0.1-0.2,0.1-0.2,0.4,0.3c0.5,1,0.7,2.8,0.5,3.8c-0.1,0.4-0.6,1.4-0.7,1.4C10.3,35.3,9.5,34.3,9.3,33.7
	L9.3,33.7z M13.1,37.2c-0.6-0.7-1-1.5-0.9-2.6c0-0.5,0.1-0.8,0.3-1.4c0.4-1.2,0.4-1.2,0.7-0.9c0.1,0.1,0.3,0.4,0.5,0.7
	c0.9,1.5,1.1,3,0.8,4.2c-0.1,0.3-0.2,0.6-0.2,0.6C14,37.9,13.4,37.6,13.1,37.2z M0.4,25.6C0.1,25-0.1,24.1,0,24.1
	c0.2,0,1.3,0.5,2.1,1c0.7,0.5,1.6,1.3,1.9,1.9c0.3,0.5,0.6,1.2,0.6,1.4c0,0.2,0,0.2-0.3,0.3c-0.3,0.1-1.1,0-1.6-0.3
	c-0.2-0.1-0.6-0.4-0.9-0.7C1.2,27.1,0.7,26.5,0.4,25.6z M1.2,29.5c-0.1-0.4-0.1-0.4,0.9-0.2c1.7,0.4,3.5,1.3,4.2,2.3
	c0.3,0.4,0.5,0.9,0.4,0.9c0,0-0.2,0.1-0.5,0.2c-0.9,0.2-1.8,0.1-2.7-0.5C2.6,31.8,1.6,30.5,1.2,29.5L1.2,29.5z M6.5,38.4L7,38.2
	c2.7-0.8,4.7-0.6,6.2,0.5l0.3,0.2l-0.2,0.2c-0.3,0.4-1,0.8-1.6,0.9c-0.3,0.1-0.8,0.1-1.1,0.1c-1.1,0-2.7-0.7-3.7-1.5
	C6.9,38.7,6.5,38.4,6.5,38.4z M3.4,34c0.1-0.1,2.1-0.1,2.8,0c0.8,0.1,1.6,0.4,2.1,0.7c0.4,0.3,1.1,0.8,1.2,1.1c0.2,0.5-1,1-2.1,0.9
	c-1.1-0.1-2.1-0.6-3.2-1.6C3.6,34.5,3.3,34.2,3.4,34z"/>
<path id="Combined-Shape-Copy-3" class="st0" d="M75,3.7c0.1-0.2-0.1-0.7-0.4-1.1c-0.3-0.4-0.4-0.5-0.8-0.7
	c-0.9-0.5-2.1-0.8-2.9-0.6c-0.2,0-0.4,0.1-0.4,0.1s0,0.1,0.1,0.2c0.2,0.3,1.1,1.2,1.5,1.5c0.7,0.5,0.9,0.5,1.5,0.7
	C74.2,3.9,75,3.9,75,3.7L75,3.7z M77.8,4c0-1.1-0.3-1.8-1.2-2.7c-0.5-0.5-0.6-0.7-1.1-0.9C75.2,0.1,74.9,0,74.9,0s-0.1,0.2-0.1,0.4
	c0,0.4,0.2,1.4,0.5,2.2c0.2,0.7,0.6,1.4,1,1.8c0.4,0.4,0.9,0.8,1.1,0.7C77.6,4.9,77.8,4.3,77.8,4L77.8,4z M76.6,5.9
	c0.2-0.2,0.2-0.2,0.1-0.4c-0.3-0.6-1.2-0.9-2.3-0.9c-0.7,0-1.4,0.2-2,0.6c-0.2,0.1-0.4,0.2-0.4,0.2c-0.1,0.1-0.1,0.1,0,0.2
	c0.2,0.2,1.1,0.6,1.7,0.7C74.9,6.5,76.1,6.3,76.6,5.9L76.6,5.9z M80.4,7.7c0.6-0.9,0.5-2.3-0.2-3.6c-0.3-0.5-1.2-1.5-1.4-1.6
	l-0.2-0.1l-0.1,0.3c-0.2,0.8-0.1,2.2,0.2,3.1s0.9,1.9,1.3,2C80.2,7.9,80.2,7.9,80.4,7.7L80.4,7.7z M79.4,8.6c0,0,0-0.2-0.1-0.3
	C78.8,7,76.8,6.4,75.2,7c-0.5,0.2-0.8,0.3-0.7,0.5c0.3,0.4,1.4,1,2.1,1.2c0.7,0.2,1.5,0.2,2.2,0.1c0.1,0,0.1,0,0.2-0.1l0.1,0
	C79.3,8.6,79.4,8.6,79.4,8.6L79.4,8.6z M82.5,28.7c1.4-3.2,1.9-7.1,1.4-10.5c0-0.3-0.1-0.8-0.2-1.2l0-0.2c-0.1-0.7-0.2-1.3-0.2-1.3
	c0,0-0.2-0.6-0.4-1.3c-0.5-1.5-1-2.5-1.7-3.8c-0.7-1.1-1.4-2.1-2.2-3.1c-0.5-0.6-1.4-1.5-1.2-1.2c0,0,0.4,0.5,0.8,1
	c1.1,1.3,1.3,1.6,2,2.7c1.2,1.9,2,3.8,2.4,5.7c0.4,1.5,0.7,4.7,0.6,5.5c0,0.2-0.1,0.6-0.1,1c-0.1,1.4-0.5,3.4-1,5.1
	c-1.7,5-5.5,9.4-10.1,11.6c-1.2,0.6-2.7,1.1-4.8,1.7c-0.2,0-0.3,0.1-0.2,0.3c0,0.1,0.1,0.2,0.1,0.3c0.2,0.2,3.3-0.8,5.1-1.7
	C77,37,80.6,33.2,82.5,28.7L82.5,28.7z M81.4,11.9l0-0.2c0-0.3-0.3-0.9-0.6-1.1c-0.5-0.5-1.3-0.8-2.3-0.9c-0.6-0.1-1.6,0.1-1.8,0.2
	c-0.1,0.1,0.1,0.2,0.5,0.6c0.5,0.5,0.7,0.6,1.1,0.9c1,0.6,1.6,0.7,2.6,0.6L81.4,11.9L81.4,11.9z M82.8,10.8c0.2-0.2,0.3-0.4,0.4-0.9
	c0.3-1.1,0.1-2.1-0.5-3.3C82.5,6,82,5.4,81.9,5.5c0,0-0.1,0.3-0.2,0.6c-0.3,0.9-0.4,2-0.4,2.7c0,0.9,0.3,1.8,0.7,2.3
	C82.4,11.4,82.3,11.4,82.8,10.8L82.8,10.8z M82.7,15.5c0.1-0.1,0-0.7-0.2-1.2c-0.3-0.7-1.3-1.4-2.2-1.6c-0.4-0.1-1.8-0.2-1.8-0.1
	c0,0,0,0.1,0,0.1c0,0.4,0.9,1.4,1.6,1.9c0.3,0.2,0.7,0.4,0.9,0.6C81.4,15.4,82.6,15.6,82.7,15.5L82.7,15.5z M85.2,13.6
	c0.3-1,0.3-2.1-0.1-3.3C85,10,84.9,9.6,84.8,9.5c-0.1-0.2-0.4,0-0.7,0.7c-0.6,1.1-0.8,2-0.8,3c0,0.5,0.1,1.1,0.1,1.3
	c0.1,0.4,0.3,0.8,0.5,0.8c0,0,0.3-0.2,0.6-0.5l0.1-0.1C85,14.2,85,14.2,85.2,13.6L85.2,13.6z M83.4,19.5c0,0,0.1-0.3,0-0.5
	c-0.1-1.2-0.8-2.2-2-2.8c-0.5-0.2-1.4-0.5-1.8-0.4c-0.2,0-0.2,0,0,0.4c0.6,1.5,1.6,2.7,2.8,3.2C82.8,19.5,83.3,19.6,83.4,19.5
	L83.4,19.5z M83.1,23.9l0.1-0.3c0.2-0.6,0.2-1.2,0-1.7c-0.1-0.2-0.2-0.5-0.2-0.6c-0.1-0.3-1.1-1.3-1.6-1.6c-0.4-0.3-1.3-0.6-1.4-0.5
	c0,0,0,0.2,0,0.4c0.1,0.6,0.5,1.8,0.8,2.3c0.2,0.4,0.4,0.7,0.8,1.1l0.1,0.1l0.2,0.1c0.3,0.3,0.4,0.4,0.8,0.5
	C82.7,23.7,83.1,23.9,83.1,23.9z M86.9,15.3c0-0.5-0.2-1.7-0.3-1.7c-0.1-0.1-0.7,0.6-1,1.1c-0.8,1.1-1.3,2.4-1.4,3.3
	c0,0.5,0.1,1.5,0.2,1.6c0.1,0.1,0.8-0.2,1.2-0.5C86.4,18.3,87,16.7,86.9,15.3L86.9,15.3z M82.3,27.3c0.3-0.8,0.2-1.7-0.3-2.6
	c-0.3-0.5-1.2-1.4-1.7-1.7c-0.2-0.1-0.4-0.2-0.4-0.2s-0.1,0.3-0.1,0.5c0,1.1,0.3,2.4,0.8,3.2c0.2,0.4,0.9,1.1,1.2,1.2
	C81.9,27.9,82.1,27.8,82.3,27.3L82.3,27.3z M80.7,30.5c0.3-1-0.1-2.5-1.1-3.7c-0.3-0.4-0.8-0.7-0.9-0.6c0,0-0.1,0.3-0.2,0.6
	c-0.2,0.7-0.1,2,0,2.7c0.1,0.3,0.2,0.7,0.3,1c0.2,0.5,0.8,1.2,1,1.2S80.6,30.9,80.7,30.5z M87.3,21.3c0.2-0.7,0.4-1.5,0.4-2.3
	c0-0.4,0-0.5-0.1-0.5c-0.3,0.1-1.5,1.2-2.1,1.9c-0.7,0.9-1.2,2.1-1.3,3.1l0,0.5l0.4-0.1c0.7-0.1,1-0.3,1.6-0.8
	C86.7,22.7,87,22.2,87.3,21.3L87.3,21.3z M78.4,33.4c0.1-0.2,0.1-0.6,0.1-1c0-0.8-0.3-1.7-0.8-2.4c-0.2-0.2-0.4-0.5-0.4-0.6
	c-0.1-0.2-0.1-0.2-0.3,0.3c-0.5,1-0.7,2.8-0.5,3.8c0.1,0.4,0.6,1.4,0.7,1.4C77.4,35,78.2,34.1,78.4,33.4L78.4,33.4z M74.6,37
	c0.7-0.7,1-1.5,0.9-2.6c0-0.5-0.1-0.8-0.3-1.4c-0.4-1.2-0.4-1.2-0.7-0.9c-0.1,0.1-0.3,0.4-0.5,0.7c-0.9,1.5-1.1,3-0.8,4.2
	c0.1,0.3,0.2,0.6,0.2,0.6C73.7,37.6,74.3,37.3,74.6,37z M87.3,25.4c0.2-0.6,0.4-1.5,0.3-1.6c-0.2,0-1.3,0.5-2.1,1
	c-0.7,0.5-1.6,1.3-1.9,1.9c-0.3,0.5-0.6,1.2-0.6,1.4c0,0.2,0,0.2,0.3,0.3c0.3,0.1,1.1,0,1.6-0.3c0.2-0.1,0.6-0.4,0.9-0.7
	C86.5,26.9,87,26.2,87.3,25.4z M86.5,29.3c0.2-0.4,0.1-0.4-0.9-0.2c-1.7,0.4-3.5,1.3-4.2,2.3c-0.3,0.4-0.5,0.9-0.4,0.9
	c0,0,0.2,0.1,0.5,0.2c0.9,0.2,1.8,0.1,2.7-0.5C85.1,31.5,86.1,30.3,86.5,29.3L86.5,29.3z M81.2,38.1L80.7,38
	c-2.7-0.8-4.7-0.6-6.2,0.5l-0.3,0.2l0.2,0.2c0.3,0.4,1,0.8,1.6,0.9c0.3,0.1,0.8,0.1,1.1,0.1c1.1,0,2.7-0.7,3.7-1.5
	C80.8,38.4,81.2,38.1,81.2,38.1z M84.3,33.8c-0.1-0.1-2.1-0.1-2.8,0c-0.8,0.1-1.6,0.4-2.1,0.7c-0.4,0.3-1.1,0.8-1.2,1.1
	c-0.2,0.5,1,1,2.1,0.9c1.1-0.1,2.1-0.6,3.2-1.6C84.1,34.3,84.4,33.9,84.3,33.8L84.3,33.8z"/>
<rect x="20.2" y="28.1" class="st0" width="47.1" height="0.4"/>
<g>
	<path class="st0" d="M24.4,33h-1.3v3.5h-0.5V33h-1.3v-0.4h3C24.4,32.6,24.4,33,24.4,33z"/>
	<path class="st0" d="M27,35.5h-1.6l-0.4,1h-0.5l1.5-3.9h0.5l1.5,3.9h-0.5L27,35.5L27,35.5z M25.5,35.1h1.3l-0.7-1.8L25.5,35.1z"/>
	<path class="st0" d="M28.9,36.1h1.9v0.4h-2.4v-3.9h0.5C28.9,32.6,28.9,36.1,28.9,36.1z"/>
	<path class="st0" d="M33.6,34.7h-1.7v1.4h2v0.4h-2.5v-3.9h2.5V33h-2v1.3h1.7V34.7L33.6,34.7z"/>
	<path class="st0" d="M37.5,36.5H37l-2-3v3h-0.5v-3.9H35l2,3v-3h0.5V36.5z"/>
	<path class="st0" d="M41.2,33h-1.3v3.5h-0.5V33h-1.3v-0.4h3C41.2,32.6,41.2,33,41.2,33z"/>
	<path class="st0" d="M42.9,34.8c-0.4-0.1-0.8-0.3-1-0.5c-0.2-0.2-0.3-0.4-0.3-0.7c0-0.3,0.1-0.6,0.4-0.8s0.6-0.3,1-0.3
		c0.3,0,0.5,0,0.7,0.2c0.2,0.1,0.4,0.2,0.5,0.4s0.2,0.4,0.2,0.6h-0.5c0-0.2-0.1-0.4-0.2-0.6C43.4,33,43.2,33,42.9,33
		c-0.3,0-0.5,0.1-0.6,0.2s-0.2,0.3-0.2,0.5c0,0.2,0.1,0.3,0.2,0.4s0.4,0.2,0.7,0.3c0.3,0.1,0.6,0.2,0.8,0.3s0.3,0.2,0.4,0.4
		c0.1,0.2,0.1,0.3,0.1,0.5c0,0.3-0.1,0.6-0.4,0.8c-0.2,0.2-0.6,0.3-1,0.3c-0.3,0-0.5,0-0.8-0.2s-0.4-0.2-0.5-0.4s-0.2-0.4-0.2-0.6
		H42c0,0.2,0.1,0.4,0.3,0.6s0.4,0.2,0.7,0.2c0.3,0,0.5-0.1,0.6-0.2c0.2-0.1,0.2-0.3,0.2-0.5s-0.1-0.3-0.2-0.5
		C43.5,35,43.2,34.9,42.9,34.8L42.9,34.8z"/>
	<path class="st0" d="M46.3,36.5v-3.9h1.2c0.3,0,0.7,0.1,0.9,0.2c0.3,0.2,0.5,0.4,0.6,0.7c0.2,0.3,0.2,0.6,0.2,1v0.2
		c0,0.4-0.1,0.7-0.2,1c-0.2,0.3-0.4,0.5-0.6,0.7c-0.3,0.2-0.6,0.2-0.9,0.2L46.3,36.5L46.3,36.5z M47.1,33.3v2.6h0.4
		c0.3,0,0.6-0.1,0.7-0.3c0.2-0.2,0.2-0.5,0.3-0.9v-0.2c0-0.4-0.1-0.7-0.2-0.9s-0.4-0.3-0.7-0.3L47.1,33.3L47.1,33.3z"/>
	<path class="st0" d="M52.2,34.8h-1.5v1h1.8v0.7h-2.6v-3.9h2.6v0.7h-1.8v0.9h1.5V34.8z"/>
	<path class="st0" d="M55,35.5c0-0.2,0-0.3-0.2-0.3c-0.1-0.1-0.3-0.2-0.6-0.3s-0.5-0.2-0.7-0.3c-0.5-0.2-0.7-0.6-0.7-1
		c0-0.2,0.1-0.4,0.2-0.6s0.3-0.3,0.5-0.4c0.2-0.1,0.5-0.1,0.8-0.1s0.5,0,0.8,0.2c0.2,0.1,0.4,0.2,0.5,0.4c0.1,0.2,0.2,0.4,0.2,0.6
		H55c0-0.2-0.1-0.3-0.2-0.4c-0.1-0.1-0.3-0.2-0.5-0.2s-0.3,0-0.5,0.1c-0.1,0.1-0.2,0.2-0.2,0.3c0,0.1,0.1,0.2,0.2,0.3
		c0.1,0.1,0.3,0.2,0.6,0.2c0.5,0.1,0.8,0.3,1,0.5s0.3,0.5,0.3,0.8c0,0.3-0.1,0.6-0.4,0.8s-0.6,0.3-1,0.3c-0.3,0-0.6-0.1-0.8-0.2
		c-0.2-0.1-0.4-0.3-0.6-0.5c-0.1-0.2-0.2-0.4-0.2-0.7h0.8c0,0.4,0.3,0.7,0.8,0.7c0.2,0,0.3,0,0.5-0.1S55,35.6,55,35.5L55,35.5z"/>
	<path class="st0" d="M57.2,36.5h-0.8v-3.9h0.8V36.5z"/>
	<path class="st0" d="M61.1,36c-0.2,0.2-0.3,0.3-0.6,0.4s-0.6,0.1-0.9,0.1s-0.6-0.1-0.9-0.2s-0.5-0.4-0.6-0.7
		c-0.1-0.3-0.2-0.6-0.2-1v-0.3c0-0.4,0.1-0.7,0.2-1s0.3-0.5,0.6-0.7s0.5-0.2,0.9-0.2c0.5,0,0.8,0.1,1.1,0.3s0.4,0.5,0.5,1h-0.8
		c0-0.2-0.1-0.4-0.2-0.5c-0.1-0.1-0.3-0.2-0.5-0.2c-0.3,0-0.5,0.1-0.6,0.3s-0.2,0.5-0.2,0.9v0.2c0,0.4,0.1,0.7,0.2,0.9
		c0.2,0.2,0.4,0.3,0.7,0.3s0.5-0.1,0.7-0.2V35h-0.7v-0.6h1.5V36L61.1,36z"/>
	<path class="st0" d="M64.9,36.5h-0.8L62.6,34v2.6h-0.8v-3.9h0.8l1.6,2.6v-2.6h0.8V36.5z"/>
</g>
<path class="st1" d="M58.8,11.7c-0.2,0.4-1.9,0.8-2-1c0-1.3,0.7-1.7,2-1.5C58.8,9.2,58.8,11.7,58.8,11.7z M25.6,10.5
	c-0.1-0.1-0.2-0.4-0.2-0.5l-0.8-1.4c-0.2-0.3-0.3-0.6-0.5-0.9c-0.2-0.4-0.3-0.7-0.5-1c-0.1,0.3-0.2,0.4-0.3,0.7
	c-0.3,1.8,2.4,3.1,1.3,5c-0.2-0.7-0.8-1.6-1.2-2.2c-0.3-0.5-0.6-1-0.6-1.6c-0.3,0-1.2,0.4-1.5,0.6c-2.1,1.4-0.4,3.8,3.4,3.8
	c4.1,0,5.7-2.8,2.9-4.1l-1-0.4c0-0.4-0.3-0.8-0.5-1.2c-0.4-0.7-1.1-1.8-1.4-2.5c-0.3,0.4-0.4,1-0.2,1.6c0.1,0.4,0.5,0.9,0.7,1.3
	c0.2,0.4,0.6,0.9,0.7,1.3C26,9.4,26,10.1,25.6,10.5L25.6,10.5L25.6,10.5z M40.6,9.3c0.3-0.1,0.9-0.1,1.2,0c0.4,0.1,0.5,0.3,0.5,0.8
	v2.7h0.9v-2.1c0-0.6,0.1-1.3-0.3-1.7c-0.7-0.8-2.2-0.6-3.3-0.3v4.1h0.9C40.6,12.8,40.6,9.3,40.6,9.3z M37.8,11.7
	c-0.2,0.4-1.9,0.8-2-1c0-1.3,0.7-1.7,2-1.5C37.8,9.2,37.8,11.7,37.8,11.7z M38.7,8.6c-0.7-0.2-1.8-0.3-2.6-0.1
	c-0.7,0.3-1.1,0.8-1.2,1.7c-0.3,2.9,2.5,2.9,2.9,2v0.4h0.9L38.7,8.6L38.7,8.6z M58.8,8.4c-0.6-0.1-1.2,0-1.7,0.1
	c-0.7,0.3-1.1,0.8-1.2,1.7c-0.3,2.9,2.5,2.9,2.9,2v0.4h0.9v-4v0V7c-0.3,0-0.6,0-0.9,0.1L58.8,8.4L58.8,8.4L58.8,8.4z M65,8.7v4.1
	h0.9V9.2h1.3l0.1-0.7C67.1,8.3,65,8.4,65,8.7C65,8.7,65,8.7,65,8.7z M46.5,8.5h-1.4V7c-0.3,0-0.6,0-0.9,0.1v4c0,0.7,0.1,1.1,0.5,1.4
	c0.5,0.3,1.1,0.2,1.7,0.1l0.1-0.8c-0.6,0.1-1.3,0.3-1.4-0.5c0-0.5,0-1.6,0-2.1h1.3L46.5,8.5L46.5,8.5L46.5,8.5z M52.4,9.2
	c0.3-0.1,0.9-0.1,1.2,0c0.4,0.1,0.5,0.3,0.5,0.8v2.7h0.9v-2.1c0-0.6,0.1-1.3-0.3-1.7c-0.7-0.8-2.2-0.6-3.3-0.3v4.1h0.9L52.4,9.2
	C52.4,9.2,52.4,9.2,52.4,9.2z M49.7,11.7c-0.2,0.4-1.9,0.8-2-1c0-1.3,0.7-1.7,2-1.5V11.7C49.7,11.7,49.7,11.7,49.7,11.7z M50.6,8.6
	c-0.7-0.2-1.8-0.3-2.6-0.1c-0.7,0.3-1.1,0.8-1.2,1.7c-0.3,2.9,2.5,2.9,2.9,2v0.4h0.9L50.6,8.6L50.6,8.6z M61.4,10.2
	c0-0.3,0.1-0.6,0.3-0.8c0.6-0.7,1.9-0.1,1.7,0.8H61.4L61.4,10.2z M64.2,10.9c0.2-1-0.1-2.3-1.3-2.5c-0.6-0.1-1.2,0-1.6,0.2
	c-0.9,0.6-1,2-0.7,2.9c0.4,1.1,1.5,1.3,2.6,1.2c0.2,0,0.7-0.1,0.8-0.2l0.2-0.8c-0.6,0.2-1,0.4-1.7,0.3c-0.6-0.1-1-0.4-1-1.1
	L64.2,10.9L64.2,10.9z M30.7,11.7c-0.1,0.2-0.2,0.6-0.1,0.8c0.5,0.4,2.2,0.4,3,0c0.3-0.2,0.7-0.5,0.8-1.1c0.3-2-2.3-1.8-2.7-2.8
	c-0.3-0.5,0.2-0.9,0.7-1c0.8-0.1,1.2,0.2,1.6,0.2c0.1-0.2,0.1-0.5,0.2-0.8c-1-0.3-2.3-0.4-3,0.2c-0.6,0.6-0.7,1.8,0.3,2.4
	c0.4,0.2,0.8,0.4,1.2,0.6c0.4,0.2,0.9,0.4,0.8,1c-0.1,0.5-0.6,0.6-1.2,0.6c-0.3,0-0.5,0-0.8-0.1C31.2,11.8,30.9,11.7,30.7,11.7
	L30.7,11.7L30.7,11.7z"/>
<g>
	<path class="st0" d="M30,18.6c0.6-0.5,1.1-0.6,1.8-0.6c1,0.1,1.6,0.7,1.7,1.7c0.1,1.2,0,2.4,0,3.5c0,0.2-0.1,0.2-0.2,0.2
		c-0.3,0-0.6,0-0.8,0c-0.2,0-0.3-0.1-0.3-0.3c0-0.8,0-1.7,0-2.5c0-0.2,0-0.3,0-0.5c0-0.7-0.3-1-0.9-1c-0.7-0.1-1.1,0.2-1.3,0.9
		C30,20.3,30,20.6,30,20.9c0,0.8,0,1.5,0,2.3c0,0.2,0,0.3-0.3,0.3c-0.3,0-0.8,0.1-1-0.1c-0.2-0.2-0.1-0.6-0.1-0.9c0-1.3,0-2.7,0-4
		c0-0.2,0.1-0.3,0.3-0.3c0.2,0,0.4,0,0.6,0C29.9,18.1,30.2,18.1,30,18.6L30,18.6z"/>
	<path class="st0" d="M22.8,20c0-0.5,0-1.1,0-1.6c0-0.2,0-0.3,0.2-0.2c0.3,0,0.8-0.1,1,0.1c0.2,0.2,0,0.6,0,0.9c0,0.7,0,1.4,0,2.1
		c0,0.8,0.4,1.2,1,1.2c0.6,0,1.1-0.3,1.1-1c0.1-0.9,0-1.7,0-2.6c0-0.8,0-0.8,0.8-0.8c0.3,0,0.5,0.2,0.5,0.5c0,0.9,0,1.8,0,2.7
		c0,1.3-0.7,2-1.9,2.2c-0.5,0.1-0.9,0-1.4-0.1c-0.9-0.3-1.5-1-1.5-2C22.8,21,22.8,20.5,22.8,20L22.8,20L22.8,20z"/>
	<path class="st0" d="M54.9,23.6c-0.8,0-1.5-0.4-1.9-1.1c-0.1-0.1-0.1-0.2,0.1-0.3c0.1,0,0.2-0.1,0.3-0.1c0.2-0.1,0.3-0.2,0.5-0.2
		c0.2,0,0.2,0.3,0.3,0.4c0.2,0.1,0.3,0.2,0.5,0.3c0.3,0,0.6,0,0.7-0.3c0.1-0.3,0-0.6-0.3-0.7c-0.4-0.2-0.9-0.4-1.3-0.6
		c-0.5-0.3-0.8-0.7-0.7-1.3c0-0.7,0.6-1.3,1.3-1.5c0.8-0.2,1.7,0.2,2,0.9c0,0.1,0,0.2-0.1,0.2c-0.1,0.1-0.3,0.1-0.4,0.2
		c-0.3,0.2-0.5,0.3-0.8-0.1c-0.2-0.2-0.6-0.2-0.7,0c-0.2,0.3,0,0.5,0.2,0.6c0.2,0.1,0.3,0.2,0.5,0.2c0.3,0.1,0.6,0.3,0.9,0.4
		c0.9,0.5,1,1.7,0.3,2.4C56,23.4,55.5,23.6,54.9,23.6L54.9,23.6z"/>
	<path class="st0" d="M40.1,20.8c-0.9-0.4-1.8-0.8-2.7-1.1c-0.4-0.1-0.5-0.3-0.5-0.7c0-0.3,0-0.5,0-0.8c0.2,0,0.2,0.1,0.3,0.1
		c1.5,0.7,2.9,1.4,4.4,2c0.4,0.2,0.2,0.5,0.3,0.7c0,0.2,0,0.4-0.3,0.5c-1.5,0.7-3,1.3-4.5,2C37,23.5,37,23.5,37,23.2
		c0-0.3-0.1-0.7,0-1c0.2-0.3,0.6-0.3,0.9-0.5c0.7-0.3,1.4-0.6,2-0.9C40,20.9,40,20.8,40.1,20.8L40.1,20.8z"/>
	<path class="st0" d="M50.5,18.5c0.6-0.6,1.3-0.7,2.1-0.4c0.2,0.1,0.3,0.2,0.1,0.4c0,0.1-0.1,0.2-0.1,0.2c-0.1,0.2-0.2,0.4-0.3,0.5
		c-0.2,0.1-0.3-0.1-0.5-0.1c-0.5-0.1-0.9,0.1-1.1,0.6c-0.1,0.3-0.1,0.6-0.1,0.9c0,0.8,0,1.6,0,2.5c0,0.2-0.1,0.3-0.3,0.3
		c-0.3,0-0.8,0.1-1-0.1c-0.2-0.2-0.1-0.6-0.1-0.9c0-1.3,0-2.7,0-4c0-0.2,0-0.3,0.3-0.3c0.2,0,0.4,0,0.6,0
		C50.3,18.1,50.5,18.2,50.5,18.5L50.5,18.5z"/>
	<path class="st0" d="M36,20.8c0,0.8,0,1.5,0,2.3c0,0.2,0,0.3-0.3,0.3s-0.5,0-0.7,0c-0.2,0-0.3,0-0.3-0.3c0-1.6,0-3.2,0-4.8
		c0-0.2,0-0.2,0.2-0.2c0.3,0,0.8-0.1,1,0.1c0.2,0.2,0,0.6,0.1,1C36,19.7,36,20.3,36,20.8L36,20.8z"/>
	<path class="st0" d="M59.2,20.8c0,0.8,0,1.6,0,2.4c0,0.2,0,0.3-0.3,0.3c-0.2,0-0.5,0-0.7,0s-0.3-0.1-0.3-0.3c0-1.4,0-2.9,0-4.3
		c0-0.5,0.2-0.7,0.7-0.7s0.7,0.2,0.6,0.6V20.8z"/>
	<path class="st0" d="M44.4,21.1c0.6,0,1.2,0,1.7,0c0.6,0,1.2,0,1.8,0c0.2,0,0.2,0,0.2-0.2c0.1-1.7-1-2.9-2.7-2.9
		c-1.1,0-2,0.5-2.4,1.6c-0.4,1.1-0.4,2.3,0.5,3.2c0.2,0.2,0.3,0.3,0.5,0.4c1.2,0.7,3,0.4,3.8-0.7c0.2-0.3,0.2-0.5-0.2-0.7
		c-0.1,0-0.2-0.1-0.3-0.1c-0.3-0.2-0.4-0.2-0.6,0.1c-0.1,0.1-0.2,0.2-0.3,0.4c-0.4,0.4-0.9,0.4-1.5,0.3c-0.5-0.2-0.8-0.5-0.9-1
		C44.1,21.1,44.2,21,44.4,21.1L44.4,21.1z M45.6,19.1c0.6,0,1,0.3,1.2,0.9h-2.5C44.4,19.4,44.9,19.1,45.6,19.1z"/>
	<path class="st0" d="M65.1,22c0-0.8,0-1.6,0-2.3c0-0.6-0.3-1-0.8-1.2c-1-0.4-2.1-0.4-3.1,0c-0.5,0.2-0.8,0.6-1,1.2
		c0,0.2,0,0.2,0.2,0.2c0.4,0,0.7,0,1.1,0c0.1,0,0.2,0,0.2-0.1c0.3-0.6,0.8-0.8,1.5-0.6c0.3,0.1,0.4,0.3,0.4,0.6
		c0,0.3-0.2,0.4-0.4,0.5c-0.2,0-0.4,0.1-0.6,0.1c-0.6,0.1-1.2,0.1-1.7,0.3c-0.5,0.2-0.8,0.5-0.9,1c-0.1,0.9,0.3,1.6,1.3,1.8
		c0.8,0.1,1.6,0,2.4-0.5c0,0.5,0.2,0.5,0.6,0.5c0.3,0,0.7,0,1,0C65.1,23,65.1,22.5,65.1,22L65.1,22z M63.5,21.4c0,1-0.7,1.5-1.6,1.2
		c-0.3-0.1-0.4-0.2-0.5-0.5c0-0.3,0.1-0.5,0.3-0.6c0.2-0.1,0.4-0.2,0.6-0.2c0.4,0,0.7-0.1,1.1-0.2C63.5,21.2,63.5,21.3,63.5,21.4
		L63.5,21.4z"/>
</g>
</svg>
