<?xml version="1.0" encoding="UTF-8"?>
<svg id="Layer_1" data-name="Layer 1" xmlns="http://www.w3.org/2000/svg" viewBox="0 0 124.38 50">
  <defs>
    <style>
      .cls-1 {
        fill: #4b4b4b;
        stroke-width: 0px;
      }
    </style>
  </defs>
  <path class="cls-1" d="m15.75,11.15l6.66,6.66s.1.09.15.14l5.81,5.82-9.45,9.4,4.33,4.33-2.9,2.88-6.62-6.62c-.08-.07-.16-.15-.24-.23l-5.81-5.81,9.42-9.37-4.29-4.29,2.93-2.92Zm4.22,10.44c-.08-.03-.17-.03-.26,0-.09.02-.16.06-.31.22l-5.38,5.36c-.16.16-.19.23-.22.31-.03.08-.03.17,0,.26.03.09.07.16.22.31l1.71,1.71c.16.16.23.19.31.22.08.03.17.03.26,0,.09-.03.16-.07.31-.22l5.38-5.36c.16-.16.19-.23.22-.31.03-.08.03-.17,0-.26-.02-.09-.06-.16-.22-.31l-1.71-1.71c-.16-.15-.23-.19-.31-.22Z"/>
  <path class="cls-1" d="m71.22,18.56c2.16,0,4,.83,5.47,2.45,1.49,1.57,2.24,3.72,2.23,6.4,0,2.62-.77,4.91-2.29,6.52-1.5,1.61-3.42,2.42-5.7,2.42-1.97,0-3.76-.71-4.94-1.93l-.17-.18-.02,6.91h-3.9v-.3l.05-22.1h3.88s0,2.7,0,2.7c1.28-1.44,3.33-2.9,5.41-2.9Zm24.99.05c2.23,0,3.77.5,4.95,1.47,1.13.94,1.74,2.61,1.79,4.37v.28s-.02,11.4-.02,11.4h-3.95v-.48c0-.49,0-.99,0-1.5-1.14,1.59-2.74,2.35-4.86,2.35-1.69,0-3.11-.51-4.16-1.46-1.06-.97-1.62-2.28-1.61-3.82.01-2.89,2.06-4.88,5.63-5.52l.29-.05,4.74-.74v-.38c0-.8-.24-1.77-.7-2.16-.49-.41-1.06-.75-2.08-.75-2.79,0-3.35,2.06-3.39,3.09v.09s-3.5.05-3.5.05c0-1.52.7-3.49,2.14-4.73,1.14-.99,2.81-1.45,4.42-1.5h.3s.03,0,.03,0Zm-15.3-4.46h3.89s0,4.66,0,4.66h3.61s0,3.25,0,3.25h-3.61s-.02,8.73-.02,8.73c0,.96.2,1.58.62,1.88.44.31,1.33.02,1.33.02l.35,3.4s-1.23.31-2.01.31c-1.02,0-1.88-.26-2.55-.77-1.08-.82-1.63-2.25-1.63-4.26v-9.32s-3.25-3.26-3.25-3.26h3.27s0-4.65,0-4.65h0Zm-22.96,6.96c1.12,1.16,2.46,3.21,2.45,6.4,0,3.19-1.35,5.23-2.46,6.38-1.53,1.57-3.61,2.47-5.71,2.47-.08,0-.17,0-.26,0-2.24,0-4.22-.81-5.88-2.38-1.67-1.59-2.51-3.77-2.51-6.51s.85-4.92,2.53-6.5c1.65-1.56,3.63-2.35,5.87-2.35,2.22-.06,4.39.85,5.97,2.5h0Zm-9.01-7.2v3.85h-7.52s.02,18.38.02,18.38h-4.06v-.36l.03-18.02h-7.67v-3.85h19.21,0Zm55.89.26h3.5v.1l-.04,21.85h-3.5v-.11s.03-21.84.03-21.85Zm9.22,16.69c.72,0,1.35.26,1.86.78.52.52.77,1.14.77,1.87s-.26,1.35-.77,1.85c-.49.5-1.16.78-1.86.77-.73,0-1.35-.25-1.85-.77-.5-.48-.78-1.15-.77-1.85,0-.72.25-1.35.77-1.87s1.13-.78,1.85-.78h0Zm.02.43c-.61,0-1.13.22-1.55.65-.43.42-.64.94-.64,1.56s.2,1.14.63,1.58c.42.42.94.64,1.56.64s1.13-.22,1.55-.64c.42-.43.64-.95.64-1.58.01-.59-.22-1.15-.64-1.56-.4-.42-.96-.66-1.55-.65Zm.17.77c.58,0,.92.34.92.82,0,.4-.3.71-.7.78l.71,1.27h-.49s-.7-1.25-.7-1.25h-.48v1.26h-.43v-2.88s1.17,0,1.17,0Zm-.06.38h-.67v.88h.67c.38,0,.56-.14.56-.43s-.19-.45-.56-.45Zm-15.18-4.4l-3.89.66c-1.9.32-2.78,1.07-2.79,2.35,0,1.18.83,1.96,2.13,2.03h.18s.02,0,.02,0c2.49,0,4.25-1.94,4.36-4.76v-.24s0-.04,0-.04h0Zm-47.05-5.97c-1.31,0-2.44.5-3.35,1.5-.9.98-1.36,2.29-1.36,3.9s.46,2.92,1.35,3.9c.92,1,2.05,1.51,3.35,1.51,1.33,0,2.47-.5,3.39-1.5.92-1,1.38-2.32,1.39-3.9,0-1.59-.46-2.9-1.38-3.9-.92-1.01-2.06-1.52-3.39-1.51Zm18.34.12h-.02c-1.31,0-2.39.48-3.32,1.47-.92.96-1.38,2.2-1.38,3.71,0,1.52.45,2.89,1.38,3.89.94.97,2.03,1.44,3.32,1.44s2.43-.49,3.32-1.44c.93-.99,1.38-2.35,1.38-3.88,0-1.52-.46-2.76-1.37-3.71-.88-.98-2-1.48-3.32-1.48Z"/>
</svg>